<?xml version="1.0" encoding="utf-8"?>
<!-- Generator: Adobe Illustrator 24.3.0, SVG Export Plug-In . SVG Version: 6.00 Build 0)  -->
<svg version="1.1" id="Layer_1" xmlns="http://www.w3.org/2000/svg" xmlns:xlink="http://www.w3.org/1999/xlink" x="0px" y="0px"
	 viewBox="0 0 136 136" style="enable-background:new 0 0 136 136;" xml:space="preserve">
<style type="text/css">
	.st0{fill:#12A9E0;}
	.st1{fill:#FFFFFF;}
	.st2{fill:none;stroke:#434246;stroke-width:2;stroke-linecap:round;stroke-miterlimit:10;}
	.st3{fill:none;stroke:#434246;stroke-width:2;stroke-linecap:round;stroke-linejoin:round;stroke-miterlimit:10;}
	.st4{fill:#434246;}
</style>
<g>
	<circle class="st0" cx="68" cy="70.73" r="31.98"/>
	<circle class="st1" cx="68" cy="70.73" r="21.02"/>
	<circle class="st1" cx="85.1" cy="42.08" r="8.49"/>
	<path class="st2" d="M68,38.75c-17.66,0-31.98,14.32-31.98,31.98S50.34,102.71,68,102.71S99.98,88.4,99.98,70.73
		c0-3.76-0.65-7.36-1.84-10.71"/>
	<path class="st2" d="M93.6,42.08c0-4.69-3.8-8.49-8.49-8.49c-4.69,0-8.49,3.8-8.49,8.49s3.8,8.49,8.49,8.49
		c1,0,1.96-0.17,2.84-0.49"/>
	<path class="st2" d="M63.89,33.29"/>
	<polyline class="st2" points="64.78,34.36 69.18,38.75 64.78,43.14 	"/>
	<polyline class="st3" points="85.84,37.94 85.84,42.34 82.45,42.34 	"/>
	<g>
		<path class="st4" d="M62.76,68.8c-0.77,0-1.31-0.15-1.64-0.45s-0.49-0.69-0.49-1.17c0-0.47,0.17-0.85,0.5-1.14
			c0.34-0.29,0.88-0.44,1.62-0.44H69c-0.18-0.26-0.39-0.49-0.65-0.68c-0.25-0.2-0.53-0.36-0.82-0.5c-0.3-0.13-0.6-0.24-0.92-0.31
			C66.28,64.04,65.97,64,65.65,64h-2.89c-1.42,0-2.13-0.53-2.13-1.6c0-1.07,0.71-1.6,2.13-1.6h11.13c0.77,0,1.31,0.14,1.64,0.43
			s0.49,0.67,0.49,1.15s-0.16,0.86-0.49,1.17S74.66,64,73.89,64h-2.11c0.29,0.49,0.51,1.02,0.67,1.6h1.45
			c0.77,0,1.31,0.15,1.64,0.44s0.49,0.67,0.49,1.15c0,0.48-0.16,0.87-0.49,1.17s-0.87,0.45-1.64,0.45h-1.46
			c-0.18,0.61-0.44,1.17-0.79,1.68s-0.77,0.96-1.25,1.35c-0.48,0.39-1.02,0.73-1.61,1c-0.59,0.27-1.21,0.48-1.86,0.61l4.58,3.2
			c0.4,0.28,0.7,0.56,0.88,0.83c0.18,0.27,0.27,0.55,0.27,0.82c0,0.2-0.04,0.39-0.12,0.57c-0.08,0.18-0.19,0.34-0.33,0.49
			c-0.14,0.14-0.3,0.26-0.47,0.35s-0.36,0.13-0.56,0.13c-0.21,0-0.43-0.04-0.68-0.13c-0.24-0.09-0.51-0.23-0.8-0.43l-7.92-5.55
			c-0.3-0.21-0.56-0.43-0.78-0.68c-0.22-0.24-0.33-0.58-0.33-1c0-1.06,0.71-1.58,2.13-1.58h2.18c0.35,0,0.71-0.03,1.09-0.1
			c0.37-0.07,0.74-0.17,1.09-0.31s0.68-0.31,0.98-0.52c0.3-0.21,0.56-0.45,0.78-0.73H62.76z"/>
	</g>
</g>
</svg>
