<?xml version="1.0" encoding="utf-8"?>
<!-- Generator: Adobe Illustrator 24.3.0, SVG Export Plug-In . SVG Version: 6.00 Build 0)  -->
<svg version="1.1" id="Layer_1" xmlns="http://www.w3.org/2000/svg" xmlns:xlink="http://www.w3.org/1999/xlink" x="0px" y="0px"
	 viewBox="0 0 136 136" style="enable-background:new 0 0 136 136;" xml:space="preserve">
<style type="text/css">
	.st0{fill:#06213E;}
	.st1{fill:#14A7E0;}
	.st2{fill:#FFFFFF;}
</style>
<g>
	<path class="st0" d="M39.98,47.38c4.38,0,8.59,0,12.89,0c0,0.27,0,0.52,0,0.77c0,5.18-0.01,10.37,0,15.55
		c0.01,2.77,1.65,4.91,4.23,5.51c0.58,0.14,1.19,0.17,1.79,0.17c7.76,0.01,15.53,0.01,23.29,0.01c0.28,0,0.56,0,0.89,0
		c0,10.07,0,20.1,0,30.21c-0.54-0.3-1.06-0.59-1.57-0.88c-0.92-0.52-1.84-1.03-2.74-1.57c-0.31-0.19-0.55-0.2-0.87-0.01
		c-1.26,0.75-2.55,1.44-3.79,2.2c-0.45,0.28-0.79,0.23-1.22-0.02c-1.23-0.74-2.5-1.42-3.74-2.16c-0.34-0.21-0.59-0.19-0.93,0.01
		c-1.29,0.77-2.61,1.49-3.91,2.26c-0.32,0.19-0.55,0.19-0.88,0c-1.28-0.76-2.58-1.46-3.85-2.22c-0.37-0.22-0.66-0.25-1.04-0.02
		c-1.25,0.75-2.54,1.44-3.79,2.2c-0.39,0.23-0.67,0.22-1.05-0.01c-1.25-0.75-2.54-1.44-3.79-2.2c-0.37-0.22-0.63-0.2-0.99,0.01
		c-1.39,0.81-2.79,1.6-4.32,2.47c0-0.36,0-0.62,0-0.88c0-15.16,0-30.32,0-45.48c0-2.67-1.27-4.67-3.52-5.55
		C40.78,47.61,40.45,47.53,39.98,47.38z M68,79.97c-0.13-1.34-0.91-2.46-2.25-3.25c-0.24-0.14-0.46-0.41-0.58-0.67
		c-0.26-0.57-0.68-0.91-1.29-0.91c-0.64,0-1.07,0.34-1.33,0.94c-0.1,0.24-0.31,0.5-0.54,0.62c-1.52,0.84-2.44,2.5-2.22,4.11
		c0.26,1.89,1.51,3.25,3.35,3.62c0.27,0.05,0.55,0.06,0.83,0.09c0.74,0.09,1.28,0.67,1.27,1.38c-0.01,0.67-0.52,1.25-1.17,1.33
		c-0.75,0.1-1.36-0.32-1.54-1.06c-0.05-0.19-0.05-0.38-0.09-0.57c-0.12-0.61-0.64-1.06-1.28-1.08c-0.63-0.03-1.12,0.23-1.29,0.84
		c-0.11,0.4-0.15,0.86-0.07,1.26c0.25,1.32,1.04,2.27,2.21,2.94c0.23,0.13,0.44,0.38,0.54,0.62c0.26,0.6,0.67,0.94,1.33,0.93
		c0.63,0,1.02-0.35,1.29-0.9c0.12-0.26,0.34-0.53,0.58-0.67c1.54-0.85,2.42-2.53,2.17-4.2c-0.32-2.05-1.79-3.42-3.88-3.57
		c-0.62-0.05-1.14-0.23-1.42-0.83c-0.24-0.51-0.17-1.02,0.2-1.45c0.36-0.43,0.83-0.6,1.39-0.45c0.67,0.18,0.96,0.67,1.05,1.32
		c0.13,0.92,0.69,1.43,1.47,1.38C67.52,81.71,67.99,81.12,68,79.97z"/>
	<path class="st1" d="M55.61,51.51c14.7,0,29.31,0,44,0c0.01,0.21,0.04,0.42,0.04,0.62c0,3.81,0,7.61,0,11.42
		c0,2-1.07,3.07-3.07,3.07c-12.62,0-25.25,0-37.87,0c-2.03,0-3.1-1.08-3.1-3.11c0-3.76,0-7.53,0-11.29
		C55.61,52,55.61,51.79,55.61,51.51z M70.08,61.13c2.84,0,5.67,0,8.51,0c0.3,0,0.61-0.01,0.89-0.11c0.59-0.2,0.9-0.65,0.91-1.27
		c0-0.62-0.31-1.08-0.9-1.28c-0.28-0.1-0.59-0.11-0.89-0.11c-5.69-0.01-11.39-0.01-17.08,0c-0.26,0-0.52,0.02-0.76,0.08
		c-0.59,0.15-0.99,0.67-1,1.27c-0.02,0.62,0.38,1.18,1,1.34c0.27,0.07,0.55,0.08,0.83,0.08C64.41,61.13,67.24,61.13,70.08,61.13z"/>
	<path class="st1" d="M55.62,41.79c0-1.03-0.05-2,0.01-2.96c0.08-1.34,1.2-2.39,2.54-2.48c0.19-0.01,0.39-0.01,0.58-0.01
		c12.6,0,25.2,0,37.8-0.01c0.85,0,1.67,0.11,2.24,0.77c0.36,0.42,0.73,0.97,0.79,1.5c0.12,1.03,0.04,2.09,0.04,3.18
		C84.95,41.79,70.32,41.79,55.62,41.79z"/>
	<path class="st0" d="M99.62,44.66c0,1.36,0,2.68,0,4.04c-14.67,0-29.3,0-43.96,0c0-1.35,0-2.67,0-4.04
		C70.28,44.66,84.91,44.66,99.62,44.66z"/>
	<path class="st0" d="M41.81,63.84c-1.8,0-3.58,0-5.4,0c-0.02-0.16-0.05-0.32-0.05-0.48c0-3.48-0.02-6.96,0-10.44
		c0.01-1.88,1.6-3.13,3.38-2.72c1.06,0.24,2.03,1.16,2.05,2.22C41.84,56.21,41.81,60,41.81,63.84z"/>
	<path class="st2" d="M68,79.97c-0.01,1.15-0.48,1.74-1.27,1.8c-0.78,0.05-1.34-0.46-1.47-1.38c-0.09-0.65-0.38-1.14-1.05-1.32
		c-0.56-0.15-1.02,0.02-1.39,0.45c-0.37,0.43-0.43,0.93-0.2,1.45c0.28,0.6,0.8,0.78,1.42,0.83c2.08,0.15,3.56,1.52,3.88,3.57
		c0.26,1.66-0.63,3.35-2.17,4.2c-0.25,0.14-0.46,0.41-0.58,0.67c-0.27,0.56-0.66,0.9-1.29,0.9c-0.66,0.01-1.07-0.33-1.33-0.93
		c-0.11-0.24-0.32-0.49-0.54-0.62c-1.16-0.67-1.95-1.62-2.21-2.94c-0.08-0.4-0.04-0.86,0.07-1.26c0.17-0.61,0.67-0.87,1.29-0.84
		c0.63,0.03,1.15,0.47,1.28,1.08c0.04,0.19,0.04,0.39,0.09,0.57c0.18,0.74,0.79,1.15,1.54,1.06c0.65-0.08,1.17-0.67,1.17-1.33
		c0.01-0.71-0.53-1.3-1.27-1.38c-0.28-0.03-0.56-0.03-0.83-0.09c-1.84-0.37-3.09-1.72-3.35-3.62c-0.22-1.61,0.69-3.28,2.22-4.11
		c0.23-0.13,0.44-0.38,0.54-0.62c0.26-0.61,0.69-0.95,1.33-0.94c0.61,0,1.02,0.34,1.29,0.91c0.12,0.26,0.33,0.53,0.58,0.67
		C67.08,77.51,67.87,78.63,68,79.97z"/>
	<circle class="st0" cx="63.64" cy="83.75" r="10.23"/>
	<path class="st2" d="M64.38,91.19c-0.08-0.06-0.16-0.12-0.23-0.2c-1.68-2-3.37-3.99-5.15-5.9c-0.11-0.11-0.16-0.23-0.15-0.39
		c0.01-0.39,0-0.77,0-1.16c0-0.31,0.13-0.42,0.44-0.43c0.59-0.01,1.18,0,1.77-0.04c0.68-0.04,1.33-0.21,1.89-0.63
		c0.35-0.26,0.59-0.59,0.72-1.01c0.01-0.03,0.01-0.06,0.02-0.1c-0.07,0-0.12,0-0.18,0c-1.4,0-2.8,0-4.2,0
		c-0.36,0-0.46-0.1-0.46-0.46c0-0.29,0-0.58,0-0.87c0-0.31,0.11-0.42,0.42-0.42c1.36,0,2.72,0,4.08,0c0.06,0,0.11,0,0.19,0
		c-0.17-0.34-0.42-0.58-0.72-0.75c-0.52-0.3-1.1-0.4-1.69-0.42c-0.6-0.02-1.21-0.01-1.82-0.01c-0.36,0-0.47-0.11-0.47-0.47
		c0-0.4,0-0.8,0-1.21c0-0.29,0.12-0.41,0.4-0.41c2.89,0,5.77,0,8.66,0c0.28,0,0.4,0.12,0.4,0.4c0,0.32,0,0.64,0,0.96
		c0,0.28-0.12,0.39-0.4,0.39c-0.74,0-1.47,0-2.21,0c-0.05,0-0.1,0-0.17,0c0.12,0.2,0.24,0.37,0.32,0.56
		c0.12,0.27,0.21,0.55,0.3,0.83c0.03,0.1,0.07,0.15,0.18,0.14c0.53-0.01,1.06,0,1.58,0c0.3,0,0.41,0.11,0.41,0.41
		c0,0.32,0,0.64,0,0.96c0,0.26-0.12,0.38-0.39,0.38c-0.53,0-1.06,0-1.58,0c-0.1,0-0.15,0.02-0.17,0.13
		c-0.17,0.93-0.6,1.71-1.32,2.32c-0.64,0.55-1.4,0.88-2.22,1.05c-0.23,0.05-0.45,0.09-0.7,0.13c0.04,0.05,0.08,0.09,0.12,0.13
		c1.63,1.77,3.16,3.63,4.69,5.49c0.18,0.22,0.14,0.4-0.12,0.59C65.89,91.19,65.13,91.19,64.38,91.19z"/>
</g>
</svg>
