<?xml version="1.0" encoding="utf-8"?>
<!-- Generator: Adobe Illustrator 24.3.0, SVG Export Plug-In . SVG Version: 6.00 Build 0)  -->
<svg version="1.1" id="Layer_1" xmlns="http://www.w3.org/2000/svg" xmlns:xlink="http://www.w3.org/1999/xlink" x="0px" y="0px"
	 viewBox="0 0 136 136" style="enable-background:new 0 0 136 136;" xml:space="preserve">
<style type="text/css">
	.st0{fill:#3AB1E2;}
	.st1{fill:#FCFCFC;}
	.st2{fill:#00203A;}
	.st3{fill:#2436CC;}
	.st4{fill:#CB234A;}
</style>
<g>
	<g>
		<path class="st0" d="M87.72,90.89c-6.55,0-13.1,0-19.65,0c-2.51,0-4.14-1.62-4.14-4.13c0-6.07,0-12.14,0-18.21
			c0-2.51,1.62-4.13,4.14-4.13c13.11,0,26.23,0,39.34,0c2.48,0,4.11,1.63,4.11,4.1c0,6.09,0,12.18,0,18.26c0,2.47-1.64,4.1-4.11,4.1
			C100.85,90.89,94.28,90.89,87.72,90.89z M87.71,87.92c5.35,0,10.7,0,16.05,0c0.75,0,0.98-0.21,1.03-0.94
			c0.13-1.57,1.28-2.72,2.84-2.82c0.67-0.04,0.92-0.29,0.92-0.96c0-3.7,0-7.41,0-11.11c0-0.66-0.25-0.91-0.92-0.95
			c-1.54-0.1-2.72-1.25-2.84-2.77c-0.06-0.8-0.27-0.99-1.09-0.99c-10.65,0-21.3,0-31.94,0c-0.85,0-1.05,0.18-1.11,1.01
			c-0.1,1.45-1.31,2.65-2.76,2.74c-0.78,0.05-0.99,0.27-0.99,1.03c0,3.65,0,7.31,0,10.96c0,0.76,0.22,0.98,0.99,1.03
			c1.45,0.09,2.66,1.29,2.76,2.74c0.06,0.83,0.26,1.01,1.11,1.01C77.08,87.92,82.4,87.92,87.71,87.92z"/>
		<path class="st1" d="M87.71,87.92c-5.32,0-10.63,0-15.95,0c-0.85,0-1.05-0.18-1.11-1.01c-0.1-1.45-1.31-2.65-2.76-2.74
			c-0.77-0.05-0.99-0.27-0.99-1.03c0-3.65,0-7.31,0-10.96c0-0.76,0.22-0.98,0.99-1.03c1.45-0.1,2.66-1.29,2.76-2.74
			c0.06-0.83,0.26-1.01,1.11-1.01c10.65,0,21.3,0,31.94,0c0.81,0,1.02,0.19,1.09,0.99c0.12,1.51,1.3,2.67,2.84,2.77
			c0.67,0.04,0.92,0.29,0.92,0.95c0,3.7,0,7.41,0,11.11c0,0.66-0.25,0.91-0.92,0.96c-1.56,0.1-2.71,1.25-2.84,2.82
			c-0.06,0.73-0.29,0.94-1.03,0.94C98.41,87.92,93.06,87.92,87.71,87.92z M87.78,68.87c-5.04,0-10.07,0-15.11-0.01
			c-0.39,0-0.58,0.05-0.7,0.5c-0.47,1.64-1.58,2.69-3.23,3.14c-0.29,0.08-0.36,0.18-0.36,0.46c0.01,3.13,0.01,6.25,0,9.38
			c0,0.27,0.06,0.39,0.35,0.47c1.71,0.46,2.81,1.56,3.28,3.27c0.07,0.27,0.16,0.37,0.45,0.37c10.17-0.01,20.34-0.01,30.51,0
			c0.29,0,0.38-0.09,0.46-0.36c0.46-1.7,1.55-2.79,3.23-3.26c0.32-0.09,0.41-0.2,0.41-0.52c-0.01-3.09-0.01-6.19,0-9.28
			c0-0.31-0.07-0.43-0.4-0.53c-1.65-0.45-2.74-1.52-3.21-3.16c-0.11-0.39-0.26-0.46-0.63-0.46C97.82,68.87,92.8,68.87,87.78,68.87z"
			/>
		<path class="st0" d="M87.78,68.87c5.02,0,10.04,0,15.06-0.01c0.36,0,0.51,0.07,0.63,0.46c0.47,1.64,1.56,2.71,3.21,3.16
			c0.33,0.09,0.4,0.22,0.4,0.53c-0.01,3.09-0.01,6.19,0,9.28c0,0.32-0.09,0.43-0.41,0.52c-1.68,0.48-2.77,1.57-3.23,3.26
			c-0.07,0.27-0.17,0.36-0.46,0.36c-10.17-0.01-20.34-0.01-30.51,0c-0.29,0-0.38-0.1-0.45-0.37c-0.47-1.71-1.57-2.81-3.28-3.27
			c-0.29-0.08-0.35-0.2-0.35-0.47c0.01-3.13,0.01-6.25,0-9.38c0-0.28,0.07-0.38,0.36-0.46c1.65-0.44,2.76-1.49,3.23-3.14
			c0.13-0.45,0.32-0.5,0.7-0.5C77.71,68.87,82.74,68.87,87.78,68.87z M89.45,72.64c0.75,0,1.4,0,2.06,0
			c0.55-0.01,0.86-0.27,0.87-0.72c0.01-0.46-0.31-0.76-0.84-0.76c-2.53-0.01-5.07-0.01-7.6,0c-0.54,0-0.85,0.29-0.85,0.75
			c0,0.46,0.3,0.72,0.86,0.73c0.79,0.01,1.58-0.01,2.37,0c0.94,0.01,1.67,0.41,2.17,1.22c0.21,0.33,0.2,0.46-0.25,0.46
			c-1.4-0.02-2.8-0.01-4.2-0.01c-0.29,0-0.56,0.03-0.77,0.26c-0.21,0.23-0.25,0.51-0.13,0.78c0.14,0.32,0.41,0.45,0.75,0.45
			c1.45,0,2.9,0.01,4.34-0.01c0.48-0.01,0.45,0.16,0.26,0.47c-0.47,0.75-1.12,1.19-2.02,1.21c-0.84,0.01-1.68,0-2.52,0.01
			c-0.35,0-0.65,0.1-0.81,0.45c-0.14,0.32-0.04,0.6,0.16,0.87c1.27,1.64,2.53,3.28,3.81,4.91c0.37,0.47,0.77,0.56,1.14,0.28
			c0.38-0.28,0.39-0.74,0.02-1.21c-0.88-1.15-1.77-2.29-2.65-3.44c-0.08-0.11-0.24-0.19-0.17-0.39c0.38,0,0.76,0.02,1.13,0
			c1.49-0.08,2.68-0.76,3.24-2.12c0.37-0.89,0.81-1.17,1.7-1.05c0.53,0.07,0.85-0.27,0.85-0.72c0-0.45-0.32-0.73-0.86-0.75
			c-0.35-0.01-0.69-0.01-1.04,0c-0.17,0-0.26-0.03-0.3-0.22C90.05,73.59,89.8,73.14,89.45,72.64z M97.39,77.62
			c-0.01,1.23,0.95,2.2,2.16,2.2c1.21,0,2.2-0.97,2.2-2.18c0-1.19-0.96-2.16-2.15-2.18C98.37,75.46,97.4,76.41,97.39,77.62z
			 M77.98,77.65c0-1.22-0.97-2.18-2.19-2.18c-1.19,0.01-2.16,0.97-2.17,2.15c-0.01,1.2,0.97,2.2,2.17,2.2
			C77.01,79.83,77.98,78.87,77.98,77.65z"/>
		<path class="st1" d="M89.45,72.64c0.36,0.51,0.6,0.95,0.72,1.45c0.05,0.19,0.14,0.23,0.3,0.22c0.35-0.01,0.69-0.01,1.04,0
			c0.54,0.02,0.86,0.29,0.86,0.75c0,0.46-0.31,0.79-0.85,0.72c-0.89-0.12-1.33,0.16-1.7,1.05c-0.56,1.35-1.76,2.04-3.24,2.12
			c-0.38,0.02-0.76,0-1.13,0c-0.07,0.2,0.09,0.28,0.17,0.39c0.88,1.15,1.77,2.29,2.65,3.44c0.37,0.48,0.36,0.93-0.02,1.21
			c-0.37,0.28-0.77,0.19-1.14-0.28c-1.27-1.64-2.54-3.28-3.81-4.91c-0.21-0.27-0.31-0.55-0.16-0.87c0.15-0.35,0.46-0.45,0.81-0.45
			c0.84,0,1.68,0.01,2.52-0.01c0.9-0.01,1.55-0.46,2.02-1.21c0.19-0.31,0.22-0.48-0.26-0.47c-1.45,0.03-2.9,0.01-4.34,0.01
			c-0.35,0-0.62-0.13-0.75-0.45c-0.12-0.28-0.08-0.55,0.13-0.78c0.2-0.23,0.48-0.26,0.77-0.26c1.4,0,2.8-0.01,4.2,0.01
			c0.45,0.01,0.46-0.12,0.25-0.46c-0.5-0.81-1.23-1.21-2.17-1.22c-0.79-0.01-1.58,0-2.37,0c-0.56,0-0.86-0.27-0.86-0.73
			c0-0.46,0.31-0.75,0.85-0.75c2.53-0.01,5.07-0.01,7.6,0c0.54,0,0.85,0.3,0.84,0.76c-0.01,0.45-0.32,0.71-0.87,0.72
			C90.85,72.64,90.2,72.64,89.45,72.64z"/>
		<path class="st1" d="M97.39,77.62c0.01-1.22,0.98-2.17,2.21-2.15c1.19,0.02,2.15,0.99,2.15,2.18c0,1.21-0.99,2.18-2.2,2.18
			C98.33,79.82,97.38,78.85,97.39,77.62z"/>
		<path class="st1" d="M77.98,77.65c0,1.22-0.97,2.18-2.19,2.18c-1.21-0.01-2.19-1-2.17-2.2c0.01-1.18,0.99-2.15,2.17-2.15
			C77.01,75.47,77.98,76.43,77.98,77.65z"/>
	</g>
	<path class="st2" d="M82.96,102.25c0,4.52,0-0.68,0,3.84c0,0.65-0.12,0.84-0.81,0.84c-12.14-0.03-24.27-0.02-36.41,0
		c-0.67,0-0.83-0.16-0.82-0.83c0.02-9.73,0.02-19.45,0.02-29.18c0-9.7,0.01-19.4-0.01-29.1c0-0.65,0.12-0.84,0.81-0.84
		c12.14,0.03,24.27,0.02,36.41,0c0.68,0,0.82,0.17,0.82,0.83c-0.01,4.99,0,0.25,0,5.23c1.22,0,2.43,0,3.65,0c0-6.18,0-2.63,0-8.81
		c0-1.35-0.35-2.59-1.23-3.67c-0.87-1.07-2.04-1.57-3.31-1.93c-12.14,0-24.28,0-36.42,0c-0.05,0.05-0.1,0.12-0.16,0.13
		c-2.29,0.42-4.24,2.47-4.24,5.47c0,22.27,0,44.54,0.01,66.81c0,3.39,2.26,5.62,5.65,5.62c11.35,0.01,22.7,0.01,34.05,0
		c3.39,0,5.65-2.23,5.65-5.62c0-6.17,0-2.62,0-8.79C85.39,102.25,84.17,102.25,82.96,102.25z M58.68,42.43c3.5,0.01,7,0.01,10.5,0
		c0.47,0,0.92,0.06,0.93,0.63c0.01,0.58-0.45,0.63-0.92,0.63c-1.75-0.01-3.5,0-5.25,0c-1.75,0-3.5,0-5.25,0
		c-0.46,0-0.93-0.04-0.93-0.63C57.76,42.5,58.2,42.43,58.68,42.43z M63.92,114.03c-1.43-0.01-2.6-1.19-2.6-2.63
		c0-1.48,1.21-2.68,2.66-2.64c1.44,0.03,2.58,1.22,2.56,2.67C66.54,112.86,65.35,114.04,63.92,114.03z"/>
	<polygon class="st0" points="94.77,54.26 99.09,58.58 94.77,62.91 94.71,62.85 94.71,60.1 73.43,60.1 73.43,57.07 94.71,57.07 
		94.71,54.32 	"/>
	<polygon class="st0" points="77.75,92.3 73.43,96.62 77.75,100.94 77.81,100.88 77.81,98.14 99.09,98.14 99.09,95.1 77.81,95.1 
		77.81,92.36 	"/>
</g>
<g>
	<path class="st3" d="M74.98,21.43c0-0.78,0.01-1.55,0-2.33c0-0.2,0.04-0.26,0.26-0.28c0.46-0.03,0.8,0.07,1.08,0.49
		c0.5,0.75,1.09,1.45,1.64,2.17c0.05,0.07,0.1,0.2,0.21,0.17c0.13-0.04,0.08-0.18,0.08-0.28c0-0.75,0.01-1.5,0-2.25
		c0-0.22,0.06-0.29,0.28-0.3c0.91-0.02,0.91-0.03,0.91,0.86c0,1.33-0.01,2.66,0.01,4c0,0.29-0.09,0.35-0.37,0.36
		c-0.39,0.02-0.64-0.1-0.87-0.42c-0.55-0.77-1.15-1.49-1.74-2.24c-0.06-0.08-0.11-0.23-0.23-0.18c-0.11,0.04-0.07,0.19-0.07,0.29
		c0,0.74-0.01,1.48,0.01,2.22c0.01,0.26-0.08,0.32-0.33,0.32c-0.88,0-0.88,0.01-0.87-0.87c0-0.29,0.01-0.58,0.01-0.87
		C74.98,22.01,74.98,21.72,74.98,21.43z"/>
	<path class="st3" d="M68.78,21.35c0.38,0.18,0.69,0.39,0.81,0.8c0.25,0.87-0.18,1.64-1.08,1.81c-0.98,0.18-1.98,0.05-2.98,0.08
		c-0.15,0-0.17-0.09-0.17-0.22c0-1.6,0-3.2,0-4.8c0-0.15,0.07-0.18,0.2-0.18c0.87,0,1.75-0.02,2.62,0.01
		c1.04,0.04,1.56,1.04,1.06,2.12C69.16,21.12,68.95,21.21,68.78,21.35z M67.3,23.02c0.19,0,0.39,0.01,0.58,0
		c0.34-0.03,0.54-0.24,0.53-0.56c0-0.33-0.19-0.54-0.54-0.56c-0.29-0.02-0.58,0.02-0.87-0.01c-0.34-0.04-0.46,0.06-0.44,0.42
		C66.6,23.02,66.58,23.02,67.3,23.02z M67.25,20.93c0.15,0,0.29,0,0.44,0c0.37-0.01,0.56-0.19,0.56-0.52c0-0.32-0.2-0.53-0.54-0.55
		c-0.23-0.01-0.46,0.01-0.69-0.01c-0.34-0.04-0.47,0.06-0.45,0.43C66.6,20.93,66.58,20.93,67.25,20.93z"/>
	<path class="st3" d="M81.53,20.95c0.46-0.54,0.95-1.06,1.39-1.62c0.29-0.38,0.62-0.57,1.11-0.5c0.19,0.03,0.38,0,0.66,0
		c-0.35,0.43-0.63,0.78-0.92,1.13c-0.22,0.27-0.42,0.57-0.68,0.81c-0.31,0.28-0.25,0.5-0.03,0.79c0.53,0.69,1.03,1.41,1.54,2.12
		c0.07,0.1,0.13,0.2,0.23,0.36c-0.46,0-0.87,0.01-1.28,0c-0.12,0-0.17-0.12-0.23-0.21c-0.39-0.54-0.77-1.08-1.15-1.63
		c-0.12-0.17-0.19-0.19-0.35-0.04c-0.24,0.23-0.41,0.47-0.35,0.83c0.01,0.08,0.01,0.17,0,0.25c-0.02,0.26,0.12,0.64-0.06,0.76
		c-0.26,0.17-0.63,0.04-0.96,0.05c-0.16,0-0.16-0.11-0.16-0.23c0-1.59,0-3.18,0-4.76c0-0.15,0.05-0.23,0.22-0.2
		c0.01,0,0.02,0,0.04,0c0.93-0.04,0.93-0.04,0.93,0.88c0,0.4,0,0.8,0,1.19C81.48,20.93,81.51,20.94,81.53,20.95z"/>
	<path class="st3" d="M55.1,21.41c0-0.76,0.01-1.53-0.01-2.29c0-0.23,0.07-0.29,0.29-0.28c1.1,0.01,2.21,0.01,3.31,0
		c0.2,0,0.28,0.04,0.18,0.24c-0.01,0.02-0.02,0.04-0.03,0.07c-0.26,0.74-0.26,0.74-1.04,0.74c-0.42,0-0.85,0.01-1.27,0
		c-0.17,0-0.23,0.05-0.25,0.22c-0.09,0.8-0.09,0.81,0.72,0.81c0.33,0,0.65,0.01,0.98,0c0.24-0.01,0.34,0.07,0.34,0.33
		c0,0.65,0.01,0.65-0.65,0.65c-0.36,0-0.73,0.01-1.09,0c-0.21-0.01-0.31,0.04-0.31,0.28c0.02,0.94-0.12,0.77,0.74,0.78
		c0.48,0,0.97,0.01,1.45-0.01c0.23-0.01,0.28,0.07,0.28,0.29c0.01,0.81,0.01,0.81-0.78,0.81c-0.86,0-1.72-0.01-2.58,0.01
		c-0.25,0-0.31-0.08-0.31-0.31C55.11,22.96,55.1,22.18,55.1,21.41z"/>
	<path class="st3" d="M73.92,24.04c-0.38,0.1-0.58-0.09-0.69-0.52c-0.18-0.65-0.21-0.64-0.91-0.64c-0.1,0-0.19,0-0.29,0
		c-0.7,0-0.73,0-0.89,0.66c-0.1,0.41-0.28,0.54-0.69,0.51c-0.8-0.05-0.75,0.1-0.49-0.68c0.47-1.4,0.96-2.79,1.43-4.19
		c0.08-0.24,0.17-0.35,0.45-0.35c0.98,0.01,0.99-0.01,1.31,0.91c0.45,1.28,0.88,2.56,1.33,3.84c0.16,0.46,0.16,0.46-0.35,0.46
		C74.08,24.04,74.04,24.04,73.92,24.04z M72.21,20.15c-0.02,0.01-0.05,0.01-0.07,0.02c-0.16,0.54-0.33,1.08-0.49,1.62
		c-0.05,0.17-0.04,0.28,0.19,0.27c0.24-0.02,0.48-0.02,0.72-0.01c0.18,0.01,0.21-0.06,0.17-0.21
		C72.55,21.27,72.38,20.71,72.21,20.15z"/>
	<path class="st4" d="M49.29,16.84c0.12,0.17,0,0.24-0.05,0.33c-0.73,1.1-1.46,2.2-2.2,3.29c-0.71,1.07-1.42,2.13-2.12,3.21
		c-0.81,1.24-1.92,1.36-2.94,0.3c-0.34-0.35-0.67-0.73-0.98-1.06c0.3,0.03,0.67,0.04,1.04,0.09c0.66,0.09,1.23-0.09,1.69-0.55
		c1.17-1.16,2.33-2.33,3.49-3.5c0.06-0.06,0.18-0.1,0.11-0.23c0-0.01-0.08-0.02-0.04,0.01c0.1,0.08,0.17-0.01,0.24-0.08
		C48.11,18.04,48.7,17.44,49.29,16.84z"/>
	<path class="st3" d="M60.45,24.04c-0.13,0-0.27,0-0.4,0c-0.78,0-0.87-0.12-0.75-0.92c0.03-0.18,0.14-0.17,0.26-0.17
		c0.55,0,1.09,0,1.64,0c0.26,0,0.51-0.04,0.57-0.34c0.06-0.29-0.14-0.44-0.38-0.54c-0.38-0.15-0.77-0.29-1.16-0.44
		c-0.74-0.29-1.1-0.81-1.02-1.49c0.09-0.73,0.55-1.2,1.36-1.27c0.65-0.06,1.31-0.03,1.96-0.04c0.16,0,0.22,0.07,0.21,0.22
		c0,0.01,0,0.02,0,0.04c0.05,0.82,0.05,0.82-0.77,0.82c-0.34,0-0.68,0-1.02,0c-0.21,0-0.44,0.01-0.48,0.28
		c-0.04,0.26,0.12,0.4,0.34,0.49c0.48,0.18,0.96,0.35,1.43,0.54c1.03,0.41,0.94,1.84,0.39,2.33c-0.39,0.35-0.88,0.45-1.38,0.48
		C60.98,24.05,60.72,24.03,60.45,24.04C60.45,24.03,60.45,24.04,60.45,24.04z"/>
	<path class="st3" d="M52.38,21.08c0.35-0.71,0.67-1.33,0.96-1.96c0.09-0.2,0.2-0.31,0.44-0.29c0.31,0.03,0.77-0.14,0.9,0.05
		c0.15,0.22-0.21,0.54-0.35,0.81c-0.27,0.54-0.53,1.09-0.86,1.59c-0.49,0.75-0.57,1.57-0.49,2.42c0.02,0.26-0.07,0.33-0.33,0.33
		c-0.9,0-0.94,0-0.88-0.88c0.04-0.7-0.16-1.29-0.5-1.88c-0.41-0.71-0.76-1.45-1.16-2.17c-0.14-0.25-0.05-0.25,0.17-0.28
		c0.69-0.1,1.16,0.08,1.39,0.81C51.82,20.11,52.11,20.54,52.38,21.08z"/>
	<path class="st4" d="M39.18,21.57c0.39-0.13,0.66-0.22,0.93-0.32c1.09-0.41,1.89,0.13,2.65,0.81c0.13,0.11,0.15,0.27,0.08,0.43
		c-0.07,0.17-0.2,0.25-0.37,0.24c-0.57-0.04-1.13-0.09-1.7-0.14c-0.04,0-0.1-0.03-0.13-0.06C40.25,22.12,39.8,21.81,39.18,21.57z"/>
</g>
</svg>
