<?xml version="1.0" encoding="utf-8"?>
<!-- Generator: Adobe Illustrator 24.3.0, SVG Export Plug-In . SVG Version: 6.00 Build 0)  -->
<svg version="1.1" id="Layer_1" xmlns="http://www.w3.org/2000/svg" xmlns:xlink="http://www.w3.org/1999/xlink" x="0px" y="0px"
	 viewBox="0 0 136 136" style="enable-background:new 0 0 136 136;" xml:space="preserve">
<style type="text/css">
	.st0{fill:#00203F;}
	.st1{fill:#00A9DF;}
	.st2{fill:#FFFFFF;}
</style>
<g>
	<g>
		<path d="M128.71,61.48l-3.38,2.77h-1.72l0.36-0.59H87.14H66.26h-50.3l2.23-4.37h50.3h20.88h34.6l-0.36-0.59h1.72L128.71,61.48z
			 M72.74,65.02l-5.06,9.94h6.86l5.06-9.94H72.74z M15.27,65.02l-5.06,9.94h6.68l2.89-5.71h8.68l2.17-4.23H15.27z M38.4,64.92
			c-2.08,0-3.99,1.17-4.94,3.02l-3.62,7.12h4.33l3.76-7.39h6.52l-0.49,0.95H38.6l-1.4,2.75h5.36l-1.88,3.68h4.33l5.16-10.16H38.4
			V64.92z M48.8,72.41l-1.44,2.81H60.7c2.43,0,4.39-1.96,4.39-4.39c0-1.19-0.97-2.17-2.17-2.17h-7.75l0.57-1.11h10.28l1.42-2.77
			H56.61c-2.14,0-4.57,1.13-5.89,3.89c-0.61,1.21,0.26,2.65,1.62,2.65h8.17l-0.57,1.11H48.8V72.41z M91.94,71.32l1.36-2.65h-6.41
			c-2.08,0-3.99,1.17-4.94,3.04l-0.4,0.79c-0.63,1.23,0.26,2.69,1.66,2.69h12.44l4.07-7.97c0.55-1.09-0.24-2.39-1.46-2.39H86.03
			l-1.46,2.87h10.44l-0.51,0.97l-1.84,3.64h-6.64l0.47-0.97h5.44V71.32z M116.65,64.7c1.17,0,1.94,1.23,1.4,2.29l-5.5,10.83
			c-0.87,1.72-2.65,2.81-4.59,2.81H49.71l0.71,0.85h-1.4l-2.75-2.27l2.75-2.27h1.4l-0.71,0.85h58.34l1.5-2.93h-8.2
			c-1.21,0-2-1.3-1.46-2.37l2.73-5.34c0.77-1.5,2.31-2.45,4.01-2.45L116.65,64.7 M113.37,67.35h-6.45l-2.39,4.69h6.45L113.37,67.35z
			"/>
		<polygon class="st0" points="68.14,58.95 65.92,63.32 86.8,63.32 89.02,58.95 		"/>
		<polygon class="st1" points="17.84,58.95 15.61,63.32 65.92,63.32 68.14,58.95 		"/>
		<polygon class="st1" points="124.98,58.37 123.26,58.37 123.63,58.95 89.02,58.95 86.8,63.32 123.63,63.32 123.26,63.93 
			124.98,63.93 128.38,61.14 		"/>
		<path class="st2" d="M75.69,62.62c1.7-0.87,2.51-0.06,2.69,0.18l-0.61,0.4c-0.65-0.59-1.74-0.26-2.04-0.14L75.69,62.62
			 M75.55,61.38l0.06,0.57c2.55-1.3,3.56,0.02,3.7,0.22l0.75-0.49C79.41,60.35,76.76,60.57,75.55,61.38 M75.41,60.13l0.06,0.55
			c3.2-1.42,4.82-0.73,5.52,0.38l0.77-0.51C80.38,58.35,77.07,59.07,75.41,60.13"/>
		<path class="st1" d="M75.2,58.37c3.74-2.17,7.57-1.66,8.76,0.69l-1.01,0.67c-1.09-2.02-4.59-2.41-7.67-0.53L75.2,58.37
			 M74.96,56.16l0.12,1.15c4.07-2.19,8.46-1.92,10.08,0.95l1.46-0.97C85.36,53.85,78.42,53.79,74.96,56.16"/>
		<path class="st1" d="M28.12,68.93h-8.68l-2.89,5.71H9.86l5.06-9.94h15.36L28.12,68.93z M38.07,64.58c-2.08,0-3.99,1.17-4.94,3.02
			l-3.62,7.12h4.33l3.76-7.39h6.52l-0.49,0.95h-5.38l-1.4,2.75h5.36l-1.86,3.68h4.33l5.16-10.16H38.07V64.58z M65.69,67.19
			l1.42-2.77H56.28c-2.14,0-4.57,1.13-5.91,3.89c-0.61,1.21,0.26,2.65,1.62,2.65h8.17l-0.57,1.11H48.45l-1.44,2.81h13.33
			c2.43,0,4.39-1.96,4.39-4.39c0-1.19-0.97-2.19-2.17-2.19h-7.75l0.57-1.11H65.69z"/>
		<path class="st0" d="M74.21,74.61h-6.86l5.06-9.94h6.86L74.21,74.61z M97.91,64.48H85.69l-1.46,2.87h10.46l-0.51,0.97l-1.84,3.64
			h-6.64l0.47-0.97h5.46l1.36-2.65h-6.41c-2.08,0-3.99,1.17-4.94,3.04l-0.4,0.79c-0.63,1.23,0.26,2.69,1.66,2.69h12.44l4.07-7.97
			C99.93,65.77,99.12,64.48,97.91,64.48 M116.32,64.38c1.17,0,1.94,1.23,1.4,2.29l-5.5,10.83c-0.87,1.72-2.65,2.81-4.57,2.81H49.36
			l0.73,0.85h-1.42l-2.75-2.27l2.75-2.25h1.42l-0.73,0.85h58.34l1.5-2.93H101c-1.21,0-2-1.3-1.46-2.37l2.73-5.34
			c0.77-1.5,2.31-2.45,4.01-2.45h10.04 M113.02,67.03h-6.45l-2.39,4.69h6.45L113.02,67.03z"/>
		<path class="st2" d="M93.98,61.48h-4.01c-0.14,0-0.24-0.14-0.16-0.28l0.1-0.2c0.06-0.12,0.18-0.18,0.3-0.18h4.01
			c0.14,0,0.24,0.14,0.16,0.28l-0.1,0.2C94.24,61.4,94.12,61.48,93.98,61.48 M103.03,61.48c0.14,0,0.26-0.08,0.3-0.2l0.1-0.2
			c0.06-0.12-0.02-0.28-0.16-0.28h-4.01c-0.14,0-0.26,0.08-0.32,0.18l-0.1,0.2c-0.06,0.12,0.02,0.28,0.16,0.28h4.03 M112.07,61.48
			c0.14,0,0.26-0.08,0.32-0.2l0.1-0.2c0.06-0.12-0.02-0.28-0.16-0.28h-4.01c-0.14,0-0.26,0.08-0.32,0.18l-0.1,0.2
			c-0.06,0.12,0.02,0.28,0.16,0.28h4.01 M121.12,61.48c0.14,0,0.26-0.08,0.32-0.2l0.1-0.2c0.06-0.12-0.02-0.28-0.16-0.28h-4.01
			c-0.14,0-0.26,0.08-0.3,0.18l-0.1,0.2c-0.06,0.12,0.02,0.28,0.16,0.28h3.99 M62.84,79.13c0.1,0,0.18-0.06,0.22-0.14l0.06-0.14
			c0.04-0.08-0.02-0.2-0.12-0.2h-2.83c-0.1,0-0.18,0.06-0.22,0.14l-0.08,0.14c-0.04,0.08,0.02,0.2,0.12,0.2H62.84 M76.56,79.13
			c0.1,0,0.18-0.06,0.22-0.14l0.06-0.14c0.04-0.08-0.02-0.2-0.12-0.2h-2.83c-0.1,0-0.18,0.06-0.22,0.14l-0.08,0.14
			c-0.04,0.08,0.02,0.2,0.12,0.2H76.56 M90.3,79.13c0.1,0,0.18-0.06,0.22-0.14l0.06-0.14c0.04-0.08-0.02-0.2-0.12-0.2h-2.83
			c-0.1,0-0.18,0.06-0.22,0.14l-0.08,0.14c-0.04,0.08,0.02,0.2,0.12,0.2H90.3 M104.02,79.13c0.1,0,0.18-0.06,0.22-0.14l0.06-0.14
			c0.04-0.08-0.02-0.2-0.12-0.2h-2.83c-0.1,0-0.18,0.06-0.22,0.14l-0.08,0.14c-0.04,0.08,0.02,0.2,0.12,0.2H104.02"/>
		<path d="M7.29,79.98l1.15-2.27h2.04l-0.1,0.18H8.63L8.21,78.7h1.58l-0.1,0.18H8.1l-0.47,0.89h1.8l-0.1,0.18H7.29V79.98z
			 M11.26,79.05c-0.55,0.06-0.89,0.22-1.03,0.49c-0.04,0.08-0.06,0.14-0.04,0.2c0,0.06,0.04,0.1,0.08,0.14
			c0.04,0.04,0.12,0.06,0.2,0.08c0.08,0.02,0.16,0.02,0.26,0.02c0.16,0,0.32-0.02,0.49-0.06c0.16-0.04,0.32-0.12,0.49-0.2
			c-0.02,0.02-0.02,0.06-0.04,0.08c0,0.02,0,0.04,0,0.08c0,0.02,0.02,0.04,0.04,0.06c0.02,0.02,0.04,0.02,0.08,0.02
			c0.04,0,0.08,0,0.1,0c0.04,0,0.08,0,0.12-0.02c0.04,0,0.08-0.02,0.1-0.02l0.08-0.14c-0.12,0.02-0.2,0.04-0.22,0.02
			s-0.02-0.06,0.02-0.14l0.45-0.89c0.04-0.1,0.06-0.18,0.06-0.24s-0.04-0.12-0.1-0.16c-0.06-0.04-0.12-0.06-0.22-0.08
			c-0.08-0.02-0.18-0.02-0.3-0.02s-0.24,0-0.36,0.02c-0.12,0.02-0.22,0.06-0.32,0.1c-0.1,0.04-0.2,0.1-0.28,0.16
			c-0.08,0.06-0.16,0.14-0.22,0.24h0.26c0.04-0.08,0.1-0.12,0.16-0.18c0.06-0.04,0.12-0.08,0.2-0.12c0.06-0.02,0.14-0.04,0.22-0.06
			s0.16-0.02,0.26-0.02c0.2,0,0.32,0.04,0.38,0.1s0.06,0.14,0,0.24c-0.02,0.02-0.04,0.06-0.06,0.1c-0.02,0.04-0.06,0.06-0.12,0.08
			c-0.04,0.02-0.12,0.02-0.18,0.04c-0.08,0-0.14,0.02-0.18,0.02L11.26,79.05z M11.89,79.37c-0.04,0.08-0.1,0.16-0.18,0.2
			c-0.08,0.06-0.16,0.1-0.26,0.14s-0.2,0.06-0.3,0.08s-0.2,0.02-0.32,0.02c-0.06,0-0.12,0-0.16-0.02c-0.06-0.02-0.1-0.02-0.12-0.06
			c-0.04-0.02-0.06-0.06-0.06-0.1s0-0.08,0.02-0.12c0.06-0.1,0.16-0.2,0.28-0.24c0.14-0.06,0.3-0.08,0.51-0.1
			c0.12,0,0.22-0.02,0.34-0.02s0.24-0.04,0.36-0.06L11.89,79.37z M13.26,79.45c-0.04,0.08-0.04,0.14-0.04,0.22
			c0,0.06,0.04,0.12,0.08,0.18c0.04,0.06,0.12,0.08,0.2,0.12c0.08,0.02,0.2,0.04,0.32,0.04c0.12,0,0.26,0,0.38-0.02
			c0.12-0.02,0.22-0.04,0.32-0.08c0.1-0.04,0.18-0.08,0.26-0.14c0.08-0.06,0.14-0.12,0.18-0.2c0.06-0.1,0.06-0.18,0.02-0.24
			c-0.04-0.06-0.1-0.1-0.2-0.14c-0.08-0.04-0.18-0.06-0.3-0.08c-0.12-0.02-0.22-0.04-0.3-0.06c-0.1-0.02-0.16-0.06-0.22-0.1
			c-0.04-0.04-0.06-0.1-0.02-0.16c0.04-0.08,0.12-0.14,0.24-0.2c0.12-0.06,0.24-0.08,0.4-0.08s0.28,0.02,0.36,0.08
			c0.08,0.06,0.1,0.14,0.06,0.26h0.26c0.06-0.18,0.04-0.32-0.06-0.4c-0.1-0.08-0.28-0.12-0.53-0.12s-0.47,0.04-0.65,0.12
			c-0.18,0.08-0.3,0.2-0.38,0.34c-0.06,0.1-0.06,0.18-0.02,0.24c0.04,0.06,0.1,0.1,0.2,0.14c0.08,0.04,0.18,0.06,0.3,0.08
			c0.12,0.02,0.22,0.04,0.32,0.06s0.16,0.06,0.22,0.08c0.04,0.04,0.06,0.1,0.02,0.18c-0.02,0.04-0.04,0.08-0.1,0.12
			c-0.04,0.04-0.08,0.06-0.14,0.1c-0.06,0.02-0.12,0.06-0.2,0.06c-0.08,0.02-0.16,0.02-0.26,0.02c-0.2,0-0.32-0.02-0.4-0.08
			c-0.08-0.06-0.1-0.16-0.06-0.3h-0.28V79.45z M15.51,80.58c0.04,0,0.06,0.02,0.1,0.02c0.04,0,0.08,0,0.12,0
			c0.08,0,0.16-0.02,0.24-0.04c0.08-0.04,0.16-0.08,0.24-0.14c0.08-0.06,0.16-0.12,0.26-0.2c0.08-0.08,0.18-0.18,0.28-0.28l1.64-1.6
			h-0.28l-1.42,1.4v-1.4h-0.28l0.02,1.64c-0.04,0.04-0.08,0.08-0.14,0.12c-0.04,0.06-0.1,0.1-0.14,0.14
			c-0.06,0.04-0.12,0.08-0.18,0.12c-0.06,0.04-0.12,0.06-0.2,0.06c-0.04,0-0.08,0-0.1,0c-0.04,0-0.06,0-0.1-0.02L15.51,80.58z
			 M21.24,79.81c-0.04,0-0.08,0.02-0.12,0.02s-0.08,0-0.1,0c-0.06,0-0.1,0-0.12-0.02c-0.02,0-0.04-0.02-0.04-0.04
			c0-0.02,0-0.04,0.02-0.08c0.02-0.02,0.02-0.06,0.04-0.1l0.57-1.11h0.42l0.08-0.16h-0.4l0.22-0.45h-0.26l-0.22,0.45h-0.3
			l-0.08,0.16h0.3l-0.61,1.19c-0.06,0.12-0.08,0.2-0.02,0.26c0.04,0.04,0.12,0.06,0.26,0.06c0.06,0,0.12,0,0.18-0.02
			c0.06-0.02,0.1-0.02,0.14-0.02L21.24,79.81z M23.36,80.02c0.16,0,0.3-0.02,0.45-0.06c0.14-0.04,0.28-0.1,0.4-0.18
			c0.12-0.08,0.24-0.16,0.34-0.26c0.1-0.1,0.18-0.22,0.24-0.34c0.06-0.12,0.1-0.22,0.1-0.34c0.02-0.1,0-0.2-0.06-0.26
			c-0.04-0.08-0.12-0.14-0.22-0.18c-0.1-0.04-0.24-0.06-0.42-0.06s-0.32,0.02-0.49,0.06c-0.14,0.04-0.28,0.1-0.42,0.18
			c-0.12,0.08-0.24,0.16-0.32,0.26c-0.1,0.1-0.18,0.22-0.24,0.34c-0.08,0.14-0.1,0.26-0.1,0.36s0.02,0.2,0.08,0.26
			c0.06,0.08,0.14,0.12,0.24,0.16C23.1,80,23.22,80.02,23.36,80.02 M24.56,79.15c-0.04,0.08-0.1,0.18-0.18,0.26
			c-0.08,0.08-0.16,0.16-0.24,0.22c-0.1,0.06-0.2,0.12-0.3,0.16c-0.12,0.04-0.24,0.06-0.38,0.06c-0.12,0-0.22-0.02-0.3-0.04
			c-0.08-0.04-0.12-0.08-0.16-0.14s-0.04-0.14-0.04-0.22c0.02-0.08,0.04-0.18,0.1-0.28c0.04-0.08,0.1-0.18,0.18-0.26
			c0.06-0.08,0.16-0.16,0.24-0.22c0.1-0.06,0.2-0.12,0.3-0.16c0.12-0.04,0.24-0.06,0.36-0.06c0.14,0,0.24,0.02,0.32,0.06
			s0.12,0.08,0.16,0.14c0.02,0.06,0.04,0.14,0.02,0.22C24.64,78.97,24.6,79.07,24.56,79.15 M30.61,78.36
			c0.04-0.12,0.04-0.22,0.02-0.3s-0.06-0.16-0.14-0.22c-0.08-0.06-0.16-0.1-0.28-0.14s-0.26-0.04-0.42-0.04
			c-0.2,0-0.4,0.02-0.61,0.06s-0.38,0.12-0.57,0.2c-0.18,0.1-0.34,0.22-0.49,0.36c-0.14,0.14-0.28,0.32-0.38,0.55
			c-0.08,0.16-0.14,0.3-0.16,0.45c-0.02,0.14-0.02,0.26,0.04,0.38c0.06,0.1,0.14,0.2,0.28,0.26c0.14,0.06,0.32,0.1,0.57,0.1
			c0.2,0,0.4-0.02,0.57-0.06c0.18-0.04,0.34-0.1,0.49-0.18c0.14-0.08,0.28-0.16,0.38-0.26c0.12-0.1,0.22-0.2,0.3-0.3h-0.3
			c-0.08,0.08-0.16,0.18-0.26,0.24c-0.1,0.08-0.2,0.14-0.3,0.2c-0.1,0.06-0.22,0.1-0.34,0.12c-0.12,0.04-0.26,0.04-0.38,0.04
			c-0.2,0-0.36-0.02-0.49-0.08c-0.1-0.06-0.18-0.14-0.22-0.22c-0.04-0.1-0.04-0.2-0.02-0.32c0.02-0.12,0.08-0.24,0.14-0.36
			c0.06-0.14,0.16-0.26,0.26-0.38c0.1-0.12,0.22-0.22,0.36-0.32c0.14-0.1,0.28-0.16,0.45-0.22c0.16-0.06,0.34-0.08,0.53-0.08
			c0.26,0,0.45,0.04,0.57,0.12s0.16,0.22,0.12,0.4h0.3V78.36z M31.46,79.17c0.04-0.08,0.1-0.18,0.16-0.26s0.14-0.16,0.22-0.22
			c0.08-0.06,0.18-0.1,0.3-0.14s0.24-0.06,0.38-0.04l0.1-0.2c-0.18,0-0.34,0.02-0.49,0.08c-0.14,0.06-0.28,0.14-0.4,0.26l0,0
			l0.16-0.3h-0.26l-0.67,1.62h0.08L31.46,79.17z M34.85,79.23c-0.04,0.08-0.1,0.18-0.18,0.24c-0.06,0.08-0.14,0.14-0.24,0.2
			c-0.08,0.06-0.18,0.1-0.28,0.12c-0.1,0.02-0.2,0.04-0.3,0.04c-0.2,0-0.32-0.04-0.38-0.12c-0.04-0.08-0.04-0.18,0.04-0.32
			l0.55-1.07h-0.26l-0.55,1.07c-0.04,0.08-0.08,0.16-0.08,0.24c0,0.08,0,0.14,0.04,0.18c0.04,0.06,0.1,0.1,0.18,0.12
			c0.08,0.04,0.2,0.04,0.34,0.04c0.1,0,0.18,0,0.26-0.02c0.08-0.02,0.16-0.04,0.22-0.06c0.06-0.02,0.14-0.06,0.2-0.08
			c0.06-0.04,0.12-0.06,0.16-0.08l-0.12,0.22h0.26l0.83-1.62H35.3L34.85,79.23z M37.45,77.99l0.14-0.28H37.3l-0.14,0.28H37.45z
			 M36.41,79.98l0.83-1.62h-0.26l-0.83,1.62H36.41z M37.65,79.45c-0.04,0.08-0.04,0.14-0.04,0.22c0,0.06,0.02,0.12,0.08,0.18
			c0.04,0.06,0.12,0.08,0.2,0.12c0.08,0.02,0.2,0.04,0.32,0.04c0.14,0,0.26,0,0.38-0.02c0.12-0.02,0.22-0.04,0.32-0.08
			c0.1-0.04,0.18-0.08,0.26-0.14c0.08-0.06,0.14-0.12,0.18-0.2c0.06-0.1,0.06-0.18,0.02-0.24s-0.1-0.1-0.18-0.14
			c-0.08-0.04-0.18-0.06-0.3-0.08c-0.12-0.02-0.22-0.04-0.3-0.06c-0.1-0.02-0.16-0.06-0.22-0.1c-0.04-0.04-0.06-0.1-0.02-0.16
			c0.04-0.08,0.12-0.14,0.24-0.2c0.12-0.06,0.24-0.08,0.4-0.08s0.28,0.02,0.36,0.08c0.08,0.06,0.1,0.14,0.06,0.26h0.26
			c0.06-0.18,0.04-0.32-0.06-0.4c-0.1-0.08-0.28-0.12-0.53-0.12s-0.47,0.04-0.65,0.12c-0.18,0.08-0.3,0.2-0.38,0.34
			c-0.06,0.1-0.06,0.18-0.02,0.24c0.04,0.06,0.1,0.1,0.2,0.14c0.08,0.04,0.18,0.06,0.3,0.08c0.12,0.02,0.22,0.04,0.32,0.06
			c0.1,0.02,0.16,0.06,0.22,0.08c0.04,0.04,0.06,0.1,0.02,0.18c-0.02,0.04-0.06,0.08-0.1,0.12c-0.04,0.04-0.08,0.06-0.14,0.1
			c-0.06,0.02-0.12,0.06-0.2,0.06c-0.08,0.02-0.16,0.02-0.26,0.02c-0.2,0-0.32-0.02-0.4-0.08c-0.08-0.06-0.1-0.16-0.06-0.3h-0.3
			V79.45z M42.5,79.21c0.16-0.28,0.18-0.51,0.08-0.67c-0.1-0.16-0.3-0.22-0.61-0.22c-0.16,0-0.32,0.02-0.47,0.06
			c-0.14,0.04-0.28,0.1-0.4,0.18c-0.12,0.08-0.24,0.16-0.34,0.28c-0.1,0.1-0.18,0.22-0.24,0.34c-0.06,0.12-0.1,0.22-0.12,0.34
			c-0.02,0.1,0,0.2,0.04,0.26c0.04,0.08,0.12,0.14,0.22,0.18c0.1,0.04,0.24,0.06,0.42,0.06c0.14,0,0.26-0.02,0.38-0.04
			c0.12-0.02,0.22-0.06,0.32-0.12c0.1-0.04,0.2-0.1,0.28-0.16c0.08-0.06,0.16-0.14,0.24-0.22h-0.28c-0.1,0.12-0.22,0.2-0.38,0.28
			c-0.16,0.06-0.32,0.1-0.49,0.1c-0.12,0-0.22-0.02-0.3-0.06c-0.08-0.04-0.12-0.08-0.16-0.14s-0.04-0.12-0.04-0.2
			s0.04-0.16,0.08-0.24h1.76V79.21z M40.86,79.05c0.06-0.08,0.12-0.14,0.18-0.22c0.08-0.06,0.16-0.12,0.24-0.18s0.18-0.1,0.28-0.12
			c0.1-0.04,0.2-0.04,0.32-0.04s0.2,0.02,0.28,0.04c0.08,0.02,0.12,0.08,0.16,0.12c0.04,0.06,0.04,0.12,0.04,0.18
			c0,0.06-0.04,0.14-0.08,0.22H40.86z"/>
	</g>
	<g>
		<path class="st1" d="M67.25,83.13c0.22,0.27,0.25,0.63,0.09,1.07c-0.04,0.11-0.09,0.22-0.14,0.33c-0.2,0.39-0.5,0.74-0.9,1.05
			c-0.4,0.32-0.85,0.54-1.38,0.66l0.15,2.44l-1.41,0l-0.06-2.34l-0.58,0l-1.26,2.34l-1.22,0l3.23-5.96l2.24,0
			C66.61,82.73,67.03,82.86,67.25,83.13z M66.04,84.36c0.08-0.21,0.07-0.38-0.03-0.5c-0.09-0.12-0.28-0.18-0.56-0.18l-1,0
			l-0.96,1.77l1,0c0.32,0,0.61-0.08,0.85-0.24c0.25-0.16,0.45-0.38,0.6-0.66C66,84.46,66.03,84.39,66.04,84.36z"/>
		<path class="st1" d="M69.96,83.64l-0.81,1.54l2.02,0L70.7,86.1l-2.03,0l-0.85,1.63l2.3,0l-0.5,0.96l-3.52,0l3.16-5.98l3.47-0.01
			l-0.48,0.93L69.96,83.64z"/>
		<path class="st1" d="M73.19,84.1c0.5-0.46,1.05-0.82,1.64-1.08c0.59-0.26,1.17-0.39,1.75-0.39c0.67,0,1.17,0.17,1.51,0.5
			c0.34,0.34,0.45,0.81,0.35,1.41l-1.39,0c0-0.27-0.09-0.48-0.27-0.62c-0.18-0.14-0.43-0.21-0.76-0.21c-0.35,0-0.7,0.08-1.06,0.24
			c-0.35,0.16-0.68,0.39-0.99,0.68c-0.3,0.3-0.55,0.64-0.75,1.02c-0.09,0.18-0.16,0.33-0.2,0.46c-0.16,0.46-0.15,0.83,0.03,1.1
			c0.18,0.27,0.5,0.41,0.96,0.41c0.33,0,0.66-0.07,0.98-0.22c0.33-0.14,0.63-0.36,0.91-0.63l1.4,0c-0.51,0.62-1.11,1.1-1.8,1.44
			c-0.69,0.34-1.37,0.52-2.05,0.52c-0.51,0-0.93-0.1-1.25-0.31c-0.32-0.21-0.53-0.49-0.61-0.87c-0.09-0.37-0.05-0.8,0.11-1.28
			c0.07-0.2,0.15-0.4,0.26-0.61C72.29,85.08,72.69,84.56,73.19,84.1z"/>
		<path class="st1" d="M85.4,82.69l-2.93,6l-1.23,0l1.28-2.59l-2.59,0l-1.29,2.59l-1.23,0l3.01-5.99l1.21,0l-1.23,2.46l2.59,0
			l1.21-2.46L85.4,82.69z"/>
		<path class="st1" d="M87.97,87.53l-2.44,0l-0.96,1.16l-1.29,0l5.1-6.01l1.41,0l-0.68,6.01l-1.3,0L87.97,87.53z M88.1,86.59
			l0.33-2.54l-2.11,2.54L88.1,86.59z"/>
		<path class="st1" d="M96.35,83.08c0.24,0.28,0.3,0.63,0.18,1.08c-0.03,0.11-0.07,0.22-0.12,0.33c-0.18,0.39-0.46,0.74-0.84,1.06
			c-0.38,0.32-0.83,0.54-1.35,0.67l0.33,2.46l-1.44,0l-0.23-2.36l-0.59,0l-1.11,2.36l-1.24,0l2.84-6.01l2.27,0
			C95.68,82.67,96.11,82.81,96.35,83.08z M95.22,84.32c0.06-0.22,0.04-0.38-0.07-0.5c-0.11-0.12-0.3-0.18-0.58-0.18l-1.02,0
			l-0.84,1.79l1.02,0c0.33,0,0.61-0.08,0.85-0.24c0.24-0.16,0.43-0.38,0.56-0.66C95.19,84.42,95.21,84.35,95.22,84.32z"/>
		<path class="st1" d="M97.83,84.06c0.48-0.47,1.02-0.83,1.61-1.09c0.59-0.26,1.17-0.39,1.75-0.39c0.69,0,1.21,0.16,1.57,0.49
			c0.36,0.33,0.51,0.79,0.44,1.38l-1.41,0c-0.03-0.25-0.13-0.44-0.32-0.57c-0.19-0.13-0.44-0.2-0.77-0.2
			c-0.36,0-0.72,0.08-1.07,0.24c-0.35,0.16-0.67,0.39-0.97,0.69c-0.29,0.3-0.53,0.64-0.71,1.03c-0.07,0.14-0.13,0.3-0.18,0.48
			c-0.13,0.47-0.09,0.84,0.12,1.11c0.21,0.27,0.57,0.4,1.06,0.4c0.46,0,0.91-0.12,1.32-0.37c0.42-0.25,0.77-0.59,1.06-1.03l-2.11,0
			l0.41-0.91l3.32,0l-0.47,1.05c-0.27,0.42-0.62,0.81-1.05,1.17c-0.43,0.36-0.91,0.65-1.43,0.87c-0.53,0.22-1.05,0.33-1.58,0.33
			c-0.52,0-0.96-0.1-1.3-0.31c-0.34-0.21-0.57-0.5-0.68-0.88c-0.12-0.37-0.1-0.81,0.03-1.3c0.05-0.2,0.13-0.4,0.22-0.6
			C96.97,85.06,97.35,84.53,97.83,84.06z"/>
		<path class="st1" d="M105.87,83.59l-0.68,1.56l2.07,0l-0.41,0.93l-2.07,0l-0.72,1.64l2.35,0l-0.43,0.97l-3.6,0l2.68-6.04
			l3.54-0.01l-0.4,0.94L105.87,83.59z"/>
	</g>
</g>
</svg>
