<?xml version="1.0" encoding="utf-8"?>
<!-- Generator: Adobe Illustrator 24.3.0, SVG Export Plug-In . SVG Version: 6.00 Build 0)  -->
<svg version="1.1" id="Layer_1" xmlns="http://www.w3.org/2000/svg" xmlns:xlink="http://www.w3.org/1999/xlink" x="0px" y="0px"
	 viewBox="0 0 136 136" style="enable-background:new 0 0 136 136;" xml:space="preserve">
<style type="text/css">
	.st0{fill:#3AB1E2;}
	.st1{fill:#00203A;}
</style>
<g>
	<path class="st0" d="M69.45,33.01c0.66,0.3,1.38,0.27,2.07,0.42c8.08,1.76,14.1,8.6,14.77,16.81c0.81,9.9-5.89,18.57-15.66,20.27
		c-9.75,1.7-19.56-5.08-21.45-14.81c-2.01-10.4,4.35-20.08,14.66-22.32c0.57-0.12,1.18-0.06,1.7-0.37
		C66.85,33.01,68.15,33.01,69.45,33.01z"/>
	<path class="st0" d="M85.07,85.44c0-2.22-1.37-4.24-3.46-5.01c-4.16-1.54-8.58-2.27-13.17-2.37c-7.9-0.17-15.34,1.59-21.98,6
		c-7.59,5.05-11.65,12.16-11.97,21.32c-0.1,2.81,1.59,4.49,4.41,4.49c9.48,0,18.96,0,28.44,0c0-0.03,0-0.07,0-0.1
		c3.78,0,7.55,0,11.33,0c0.35,0,0.7,0,1.06,0c2.95-0.01,5.33-2.4,5.33-5.35V85.44z"/>
	<g>
		<path class="st1" d="M102.31,95.63c1.76,0,3.53-0.01,5.29,0c1.4,0.01,2.5,1.14,2.48,2.51c-0.02,1.34-1.08,2.42-2.42,2.43
			c-1.8,0.02-3.59,0.01-5.39,0c-0.18,0-0.36,0-0.48,0.15c-0.13,0.16-0.17,0.35-0.08,0.55c0.08,0.19,0.23,0.28,0.44,0.28
			c1.91,0,3.82,0.07,5.73-0.03c2.56-0.12,4.02-3.01,2.69-5.22c-0.12-0.2-0.11-0.3,0.05-0.46c0.98-0.96,1.94-1.94,2.92-2.9
			c1.18-1.15,3.12-0.84,3.77,0.61c0.4,0.89,0.19,1.74-0.32,2.52c-0.41,0.62-0.84,1.22-1.27,1.83c-0.99,1.42-1.97,2.85-2.96,4.27
			c-0.79,1.14-1.81,1.97-3.2,2.25c-0.37,0.07-0.73,0.1-1.11,0.1c-2.83,0-5.65,0-8.48,0.01c-0.13,0-0.21-0.05-0.29-0.13
			c-2.19-2.19-4.38-4.38-6.56-6.57c-0.07-0.07-0.2-0.12-0.06-0.26c0.91-0.91,1.91-1.67,3.22-1.88c0.34-0.06,0.67-0.08,1.02-0.08
			C98.97,95.63,100.64,95.63,102.31,95.63C102.31,95.63,102.31,95.63,102.31,95.63z"/>
		<path class="st1" d="M96.2,109.49c-0.21-0.01-0.33-0.14-0.47-0.27c-1.95-1.96-3.91-3.91-5.87-5.86c-0.61-0.61-1.21-1.21-1.82-1.82
			c-0.35-0.35-0.35-0.57-0.01-0.92c0.93-0.93,1.85-1.85,2.78-2.78c0.32-0.32,0.56-0.32,0.87-0.01c2.58,2.58,5.17,5.16,7.75,7.75
			c0.33,0.33,0.32,0.56-0.01,0.9c-0.93,0.93-1.85,1.85-2.78,2.78C96.53,109.39,96.4,109.5,96.2,109.49z"/>
	</g>
	<path class="st1" d="M102.67,71.58c-5.42-0.01-9.85,4.4-9.87,9.81c-0.02,5.44,4.4,9.88,9.84,9.89c5.42,0.01,9.85-4.39,9.87-9.81
		C112.53,76.03,108.11,71.59,102.67,71.58z M104.27,78.74c0.07,0.15,0.12,0.29,0.15,0.44h1.91l-0.7,1.54h-1.22
		c-0.06,0.33-0.17,0.64-0.35,0.91c-0.17,0.27-0.39,0.51-0.65,0.71c-0.26,0.2-0.55,0.36-0.88,0.48c-0.33,0.12-0.68,0.2-1.04,0.23
		l3.78,3.99h-2.46l-3.49-3.88v-1.54h1.03c0.13,0,0.29-0.01,0.5-0.03c0.2-0.02,0.4-0.06,0.59-0.12c0.2-0.06,0.38-0.15,0.54-0.27
		c0.16-0.12,0.27-0.28,0.33-0.48h-3.34l0.7-1.54h2.64c-0.06-0.19-0.16-0.33-0.31-0.44c-0.15-0.11-0.33-0.19-0.53-0.24
		c-0.21-0.05-0.44-0.09-0.69-0.1c-0.25-0.01-0.52-0.02-0.79-0.02h-1.01l0.7-1.54h6.66l-0.7,1.54h-1.59
		C104.12,78.47,104.2,78.59,104.27,78.74z"/>
</g>
</svg>
