<?xml version="1.0" encoding="utf-8"?>
<!-- Generator: Adobe Illustrator 24.3.0, SVG Export Plug-In . SVG Version: 6.00 Build 0)  -->
<svg version="1.1" id="Layer_1" xmlns="http://www.w3.org/2000/svg" xmlns:xlink="http://www.w3.org/1999/xlink" x="0px" y="0px"
	 viewBox="0 0 136 136" style="enable-background:new 0 0 136 136;" xml:space="preserve">
<style type="text/css">
	.st0{fill:#00213F;}
	.st1{fill:#FFFFFF;}
	.st2{fill:#00A9DF;}
</style>
<g>
	<rect x="76.94" y="15.89" class="st0" width="27.5" height="34.49"/>
	<rect x="78.1" y="18.36" class="st1" width="25.17" height="1.47"/>
	<rect x="78.1" y="21.39" class="st1" width="25.17" height="1.47"/>
	<rect x="78.1" y="24.42" class="st1" width="25.17" height="1.47"/>
	<rect x="78.1" y="27.45" class="st1" width="25.17" height="1.47"/>
	<rect x="78.1" y="30.48" class="st1" width="25.17" height="1.47"/>
	<rect x="78.1" y="33.5" class="st1" width="9.55" height="1.47"/>
	<rect x="78.39" y="39.56" class="st1" width="24.87" height="1.47"/>
	<rect x="93.13" y="43.06" class="st1" width="9.99" height="1.47"/>
	<rect x="93.13" y="46.09" class="st1" width="9.99" height="1.47"/>
	<circle class="st1" cx="82.88" cy="45.71" r="2.76"/>
</g>
<path class="st2" d="M82.68,52.26c-0.01,15.83-0.02,31.67,0,47.5c0,0.67-0.13,0.86-0.84,0.86c-12.47-0.03-24.93-0.03-37.4,0
	c-0.69,0-0.85-0.16-0.85-0.85c0.02-9.99,0.02-19.98,0.02-29.97c0-9.96,0.01-19.93-0.02-29.89c0-0.66,0.12-0.87,0.84-0.86
	c10.12,0.02,20.23,0.01,30.35,0v-8.58c-10.14,0-20.29,0-30.43,0c-0.05,0.05-0.1,0.12-0.16,0.14c-2.35,0.43-4.35,2.54-4.35,5.62
	c0.01,22.87,0,45.75,0.01,68.62c0,3.48,2.32,5.77,5.8,5.77c11.66,0.01,23.32,0.01,34.97,0c3.48,0,5.8-2.29,5.8-5.77
	c0.01-17.53,0-35.06,0-52.59H82.68z M57.74,34.38c3.6,0.01,7.19,0.01,10.79,0c0.49,0,0.95,0.06,0.95,0.65
	c0.01,0.6-0.47,0.65-0.95,0.65c-1.8-0.01-3.6,0-5.39,0s-3.6,0-5.39,0c-0.48,0-0.95-0.04-0.95-0.64
	C56.79,34.45,57.25,34.38,57.74,34.38z M63.12,107.93c-1.47-0.01-2.67-1.22-2.67-2.71c0-1.52,1.24-2.75,2.74-2.71
	c1.48,0.03,2.65,1.25,2.63,2.74C65.81,106.72,64.59,107.94,63.12,107.93z"/>
</svg>
