<svg width="141" height="32" viewBox="0 0 141 32" fill="none" xmlns="http://www.w3.org/2000/svg">
<rect width="141" height="29.2444" rx="14.6222" fill="#FFCC00"/>
<mask id="mask0_41_1452" style="mask-type:alpha" maskUnits="userSpaceOnUse" x="0" y="0" width="141" height="30">
<path d="M0 14.6222C0 6.54659 6.54659 0 14.6222 0H126.378C134.453 0 141 6.54659 141 14.6222C141 22.6979 134.453 29.2444 126.378 29.2444H14.6222C6.5466 29.2444 0 22.6979 0 14.6222Z" fill="#FFCC00"/>
</mask>
<g mask="url(#mask0_41_1452)">
<mask id="mask1_41_1452" style="mask-type:alpha" maskUnits="userSpaceOnUse" x="-23" y="0" width="26" height="29">
<path d="M-22.5981 28.9833L-13.7204 0H2.99074L-5.88704 28.9833H-22.5981Z" fill="#FFE100"/>
</mask>
<g mask="url(#mask1_41_1452)">
<rect x="-78.7368" width="141" height="29.2444" rx="14.6222" fill="#FFE100"/>
</g>
</g>
<path d="M46.1422 10.1891V18.0053C46.1422 19.09 45.8285 19.9355 45.2011 20.5416C44.5737 21.1371 43.7336 21.4349 42.6808 21.4349C41.6173 21.4349 40.7559 21.1265 40.0966 20.5097C39.4479 19.8929 39.1236 19.0315 39.1236 17.9256H41.3568C41.3674 18.4041 41.4791 18.7763 41.6918 19.0422C41.9151 19.308 42.2341 19.441 42.6489 19.441C43.053 19.441 43.3614 19.3134 43.574 19.0581C43.7867 18.8029 43.8931 18.452 43.8931 18.0053V10.1891H46.1422ZM53.9156 21.4349C52.8734 21.4349 51.9164 21.1903 51.0443 20.7011C50.1723 20.212 49.4811 19.5367 48.9706 18.6753C48.4602 17.8033 48.205 16.8196 48.205 15.7243C48.205 14.6396 48.4602 13.6665 48.9706 12.8051C49.4811 11.9331 50.1723 11.2525 51.0443 10.7633C51.9164 10.2742 52.8734 10.0296 53.9156 10.0296C54.9684 10.0296 55.9255 10.2742 56.7869 10.7633C57.6589 11.2525 58.3448 11.9331 58.8446 12.8051C59.3551 13.6665 59.6103 14.6396 59.6103 15.7243C59.6103 16.8196 59.3551 17.8033 58.8446 18.6753C58.3448 19.5367 57.6589 20.212 56.7869 20.7011C55.9149 21.1903 54.9578 21.4349 53.9156 21.4349ZM53.9156 19.441C54.5856 19.441 55.1758 19.2921 55.6862 18.9943C56.1967 18.6859 56.5955 18.2499 56.8826 17.6863C57.1697 17.1227 57.3133 16.4687 57.3133 15.7243C57.3133 14.9799 57.1697 14.3312 56.8826 13.7782C56.5955 13.2146 56.1967 12.7839 55.6862 12.4861C55.1758 12.1883 54.5856 12.0395 53.9156 12.0395C53.2456 12.0395 52.6501 12.1883 52.129 12.4861C51.6186 12.7839 51.2198 13.2146 50.9327 13.7782C50.6455 14.3312 50.502 14.9799 50.502 15.7243C50.502 16.4687 50.6455 17.1227 50.9327 17.6863C51.2198 18.2499 51.6186 18.6859 52.129 18.9943C52.6501 19.2921 53.2456 19.441 53.9156 19.441ZM63.505 10.1891V21.3232H61.2717V10.1891H63.505ZM75.2344 21.3232H73.0012L67.9446 13.6825V21.3232H65.7114V10.1731H67.9446L73.0012 17.8299V10.1731H75.2344V21.3232ZM83.4436 10.1891V17.0801C83.4436 17.8352 83.6403 18.4147 84.0338 18.8189C84.4273 19.2123 84.9803 19.4091 85.6928 19.4091C86.4159 19.4091 86.9742 19.2123 87.3677 18.8189C87.7611 18.4147 87.9579 17.8352 87.9579 17.0801V10.1891H90.207V17.0642C90.207 18.0106 89.9997 18.8135 89.5849 19.4729C89.1808 20.1216 88.6332 20.6107 87.9419 20.9404C87.2613 21.2701 86.501 21.4349 85.6609 21.4349C84.8314 21.4349 84.0763 21.2701 83.3957 20.9404C82.7258 20.6107 82.1941 20.1216 81.8006 19.4729C81.4071 18.8135 81.2104 18.0106 81.2104 17.0642V10.1891H83.4436ZM96.2091 21.4349C95.4327 21.4349 94.7309 21.302 94.1035 21.0361C93.4867 20.7703 92.9975 20.3874 92.6359 19.8876C92.2743 19.3878 92.0882 18.7976 92.0776 18.117H94.4703C94.5022 18.5743 94.6618 18.9358 94.9489 19.2017C95.2466 19.4675 95.6508 19.6005 96.1612 19.6005C96.6823 19.6005 97.0917 19.4782 97.3895 19.2336C97.6872 18.9784 97.8361 18.6487 97.8361 18.2446C97.8361 17.9149 97.7351 17.6438 97.533 17.4311C97.331 17.2184 97.0758 17.0536 96.7674 16.9366C96.4696 16.809 96.0549 16.6707 95.5231 16.5218C94.8 16.3091 94.2098 16.1018 93.7525 15.8997C93.3059 15.687 92.9177 15.3733 92.5881 14.9586C92.269 14.5332 92.1095 13.9696 92.1095 13.2677C92.1095 12.6084 92.2743 12.0341 92.604 11.545C92.9337 11.0558 93.3963 10.6836 93.9918 10.4284C94.5873 10.1625 95.2679 10.0296 96.0336 10.0296C97.1821 10.0296 98.1126 10.3114 98.8251 10.875C99.5482 11.428 99.947 12.2043 100.021 13.2039H97.5649C97.5437 12.8211 97.3788 12.5074 97.0704 12.2628C96.7727 12.0076 96.3739 11.8799 95.8741 11.8799C95.4381 11.8799 95.0871 11.9916 94.8213 12.2149C94.566 12.4382 94.4384 12.7626 94.4384 13.188C94.4384 13.4857 94.5341 13.7356 94.7256 13.9377C94.9276 14.1291 95.1722 14.2886 95.4593 14.4162C95.7571 14.5332 96.1718 14.6715 96.7036 14.831C97.4267 15.0437 98.0169 15.2563 98.4742 15.469C98.9314 15.6817 99.3249 16.0008 99.6546 16.4261C99.9842 16.8515 100.149 17.4098 100.149 18.101C100.149 18.6966 99.9949 19.2495 99.6865 19.76C99.3781 20.2704 98.9261 20.6799 98.3306 20.9883C97.7351 21.286 97.0279 21.4349 96.2091 21.4349Z" fill="black"/>
</svg>
