<svg width="31" height="41" viewBox="0 0 31 41" fill="none" xmlns="http://www.w3.org/2000/svg">
<g clip-path="url(#clip0_78_717)">
<path d="M14.1178 0.182556C14.9153 0.182556 15.7127 0.182556 16.5101 0.182556C16.5231 0.245413 16.5701 0.254252 16.6261 0.259162C18.9005 0.489963 20.948 1.2904 22.7308 2.69289C25.5218 4.88991 27.0597 7.75283 27.2656 11.2689C27.3365 12.4798 27.2985 13.6977 27.2936 14.9116C27.2926 15.164 27.3535 15.2465 27.6213 15.2386C28.2988 15.219 28.9764 15.2298 29.6539 15.2327C30.3794 15.2357 30.7062 15.55 30.7072 16.2551C30.7092 23.1252 30.7131 29.9952 30.7052 36.8652C30.7022 38.8589 29.2382 40.3095 27.2146 40.3125C19.3342 40.3223 11.4537 40.3223 3.57323 40.3125C1.56564 40.3095 0.0896827 38.8727 0.0866848 36.9035C0.073694 30.007 0.080689 23.1114 0.0836869 16.2149C0.0836869 15.5578 0.42045 15.2386 1.09797 15.2337C1.78849 15.2288 2.48 15.219 3.17052 15.2396C3.44133 15.2475 3.50028 15.1601 3.49629 14.9106C3.4813 14.0748 3.49529 13.239 3.48929 12.4032C3.4813 11.2905 3.53226 10.1797 3.84104 9.10424C5.21008 4.33403 8.37186 1.42888 13.2974 0.37309C13.5702 0.314162 13.871 0.35934 14.1178 0.182556ZM15.4019 15.2327C17.5404 15.2327 19.6799 15.2249 21.8184 15.2406C22.1382 15.2426 22.2091 15.1532 22.2021 14.8546C22.1811 14.0326 22.1931 13.2096 22.1951 12.3875C22.1971 11.7609 22.1961 11.1333 22.0532 10.5185C21.2378 7.00346 18.055 4.82018 14.4146 5.27688C11.2708 5.67071 8.70762 8.42756 8.61369 11.5409C8.58071 12.6232 8.61169 13.7085 8.58671 14.7918C8.57871 15.1296 8.64467 15.2475 9.0254 15.2436C11.1499 15.2219 13.2764 15.2327 15.4019 15.2327ZM15.3599 33.634C15.8916 33.634 16.4232 33.6448 16.9538 33.631C17.6703 33.6124 18.0071 33.2107 17.9261 32.5084C17.7603 31.0696 17.6014 29.6298 17.4295 28.192C17.4105 28.0319 17.4345 27.9317 17.5634 27.8227C18.4837 27.0448 18.8735 26.0676 18.7566 24.8684C18.5697 22.9661 16.5201 21.5253 14.6385 22.0124C13.2904 22.362 12.399 23.2008 12.0892 24.5345C11.7905 25.8182 12.1772 26.9319 13.2015 27.805C13.3374 27.9209 13.3783 28.0231 13.3564 28.2038C13.1815 29.6416 13.0236 31.0814 12.8597 32.5202C12.7798 33.2185 13.1245 33.6153 13.845 33.632C14.3497 33.6438 14.8553 33.634 15.3599 33.634Z" fill="#012643"/>
</g>
<defs>
<clipPath id="clip0_78_717">
<rect width="30.6315" height="40.1378" fill="white" transform="translate(0.078125 0.182526)"/>
</clipPath>
</defs>
</svg>
