<svg width="24" height="27" viewBox="0 0 24 27" fill="none" xmlns="http://www.w3.org/2000/svg">
<g clip-path="url(#clip0_38_996)">
<path d="M10.5437 26.6667C10.298 26.5387 10.0224 26.5649 9.7611 26.5295C8.22429 26.3224 6.76774 25.8622 5.39995 25.1432C3.21192 23.993 1.472 22.3557 0.149665 20.2738C-0.0378198 19.979 -0.0498927 19.711 0.104924 19.3957C1.10342 17.3583 2.66367 15.931 4.78281 15.1124C5.33674 14.8982 5.91766 14.7709 6.50497 14.6769C6.86219 14.6196 7.17324 14.7087 7.46299 14.9151C8.23779 15.4658 9.08431 15.8638 10.0161 16.0674C12.0677 16.5149 13.9809 16.1855 15.7244 15.007C16.1548 14.7158 16.5809 14.6224 17.0908 14.7235C19.9158 15.2813 21.9441 16.8628 23.2373 19.4085C23.3736 19.6764 23.3616 19.9019 23.1975 20.1642C21.8766 22.2787 20.1345 23.9485 17.9252 25.1184C16.4438 25.9032 14.8622 26.386 13.1905 26.5712C13.0052 26.5917 12.8077 26.5684 12.6344 26.6674C11.9385 26.6667 11.2411 26.6667 10.5437 26.6667Z" fill="#012643"/>
<path d="M11.6409 14.1693C7.89906 14.1304 4.84817 11.0693 4.8851 7.39038C4.92274 3.66619 7.99209 0.634817 11.6942 0.66663C15.4318 0.699149 18.482 3.7588 18.4493 7.4434C18.4167 11.164 15.3352 14.2081 11.6409 14.1693Z" fill="#012643"/>
</g>
<defs>
<clipPath id="clip0_38_996">
<rect width="23.3333" height="26" fill="white" transform="translate(0 0.666687)"/>
</clipPath>
</defs>
</svg>
