<svg width="15" height="20" viewBox="0 0 15 20" fill="none" xmlns="http://www.w3.org/2000/svg">
<path d="M14.6649 8.40888C14.6649 8.06922 14.5156 7.91784 14.1835 7.91642C13.8739 7.915 13.5637 7.9098 13.2545 7.91926C13.1321 7.92304 13.1043 7.88283 13.1047 7.76173C13.1075 7.17654 13.1244 6.59041 13.092 6.00712C12.9979 4.31354 12.295 2.93454 11.0193 1.87629C10.205 1.20028 9.26916 0.814727 8.22966 0.703556C8.20408 0.700717 8.18261 0.696933 8.17668 0.666656C7.81221 0.666656 7.44774 0.666656 7.08327 0.666656C6.97046 0.751809 6.83345 0.730048 6.70739 0.758432C4.45619 1.26698 3.01111 2.66631 2.3854 4.964C2.24427 5.48201 2.22098 6.01705 2.22463 6.55304C2.22737 6.95562 2.22098 7.3582 2.22783 7.76078C2.22966 7.88094 2.20271 7.92304 2.07894 7.91926C1.76334 7.9098 1.44728 7.91405 1.13169 7.91642C0.822028 7.91879 0.668568 8.07253 0.668111 8.38901C0.666741 11.7109 0.663544 15.0323 0.669482 18.3542C0.671308 19.3027 1.34543 19.9953 2.263 19.9962C5.86473 20.0009 9.46647 20.0009 13.0682 19.9962C13.9931 19.9948 14.6622 19.2961 14.6635 18.3357C14.6681 15.0271 14.6658 11.718 14.6649 8.40888ZM7.5126 17.5902C7.36416 17.7439 7.18375 17.8206 6.97183 17.8206C6.75261 17.8206 6.569 17.7439 6.42057 17.5902C6.27213 17.4364 6.19814 17.2463 6.19814 17.0192C6.19814 16.7926 6.27259 16.6019 6.42057 16.4482C6.569 16.2944 6.75261 16.2178 6.97183 16.2178C7.18375 16.2178 7.36416 16.2949 7.5126 16.4482C7.66103 16.6019 7.73502 16.7926 7.73502 17.0192C7.73502 17.2458 7.66103 17.4364 7.5126 17.5902ZM9.35731 13.9665C8.90515 14.3397 8.3041 14.5266 7.55507 14.5266L7.5126 15.3942H6.46304L6.41006 13.6703H6.75991C7.44546 13.6703 7.97024 13.5753 8.33425 13.3846C8.69826 13.1944 8.88003 12.8321 8.88003 12.2975C8.88003 11.9096 8.77224 11.6059 8.55667 11.3859C8.3411 11.1664 8.0424 11.0566 7.66103 11.0566C7.27921 11.0566 6.97868 11.1626 6.75991 11.375C6.54069 11.5874 6.43107 11.884 6.43107 12.2644H5.29657C5.29657 11.8254 5.39202 11.4337 5.58293 11.0893C5.77384 10.7454 6.04742 10.4781 6.40458 10.2874C6.76128 10.0973 7.17645 10.0022 7.65007 10.0022C8.37078 10.0022 8.949 10.207 9.38334 10.6172C9.81815 11.0273 10.0355 11.5874 10.0355 12.2975C10.0355 13.0369 9.80947 13.5928 9.35731 13.9665ZM10.6023 7.9202C9.62495 7.91264 8.6471 7.91642 7.66971 7.91642C6.69826 7.91642 5.7268 7.91122 4.75535 7.92162C4.58133 7.92352 4.55119 7.86675 4.55484 7.70401C4.56672 7.18222 4.5521 6.65995 4.56718 6.13816C4.61011 4.63853 5.78206 3.31063 7.21847 3.12093C8.88232 2.90096 10.337 3.95259 10.7097 5.64569C10.775 5.94183 10.775 6.24413 10.7745 6.54594C10.7736 6.94237 10.7681 7.33833 10.7777 7.73429C10.7814 7.87763 10.7485 7.92115 10.6023 7.9202Z" fill="#012643"/>
</svg>
