<?xml version="1.0" encoding="UTF-8"?>
<svg xmlns="http://www.w3.org/2000/svg" xmlns:xlink="http://www.w3.org/1999/xlink" width="194px" height="194px" viewBox="0 0 194 194" version="1.1">
<defs>
<clipPath id="clip1">
  <path d="M 19.398438 19.398438 L 62.855469 19.398438 L 62.855469 62.855469 L 19.398438 62.855469 Z M 19.398438 19.398438 "/>
</clipPath>
<clipPath id="clip2">
  <path d="M 131.144531 19.398438 L 174.601562 19.398438 L 174.601562 62.855469 L 131.144531 62.855469 Z M 131.144531 19.398438 "/>
</clipPath>
<clipPath id="clip3">
  <path d="M 19.398438 131.144531 L 62.855469 131.144531 L 62.855469 174.601562 L 19.398438 174.601562 Z M 19.398438 131.144531 "/>
</clipPath>
</defs>
<g id="surface1">
<rect x="0" y="0" width="194" height="194" style="fill:rgb(100%,100%,100%);fill-opacity:1;stroke:none;"/>
<path style=" stroke:none;fill-rule:nonzero;fill:rgb(0%,0%,0%);fill-opacity:1;" d="M 81.480469 19.398438 L 87.6875 19.398438 L 87.6875 25.609375 L 81.480469 25.609375 Z M 81.480469 19.398438 "/>
<path style=" stroke:none;fill-rule:nonzero;fill:rgb(0%,0%,0%);fill-opacity:1;" d="M 112.519531 19.398438 L 118.726562 19.398438 L 118.726562 25.609375 L 112.519531 25.609375 Z M 112.519531 19.398438 "/>
<path style=" stroke:none;fill-rule:nonzero;fill:rgb(0%,0%,0%);fill-opacity:1;" d="M 75.273438 25.609375 L 81.480469 25.609375 L 81.480469 31.816406 L 75.273438 31.816406 Z M 75.273438 25.609375 "/>
<path style=" stroke:none;fill-rule:nonzero;fill:rgb(0%,0%,0%);fill-opacity:1;" d="M 106.3125 25.609375 L 112.519531 25.609375 L 112.519531 31.816406 L 106.3125 31.816406 Z M 106.3125 25.609375 "/>
<path style=" stroke:none;fill-rule:nonzero;fill:rgb(0%,0%,0%);fill-opacity:1;" d="M 69.0625 31.816406 L 75.273438 31.816406 L 75.273438 38.023438 L 69.0625 38.023438 Z M 69.0625 31.816406 "/>
<path style=" stroke:none;fill-rule:nonzero;fill:rgb(0%,0%,0%);fill-opacity:1;" d="M 87.6875 31.816406 L 93.894531 31.816406 L 93.894531 38.023438 L 87.6875 38.023438 Z M 87.6875 31.816406 "/>
<path style=" stroke:none;fill-rule:nonzero;fill:rgb(0%,0%,0%);fill-opacity:1;" d="M 106.3125 31.816406 L 112.519531 31.816406 L 112.519531 38.023438 L 106.3125 38.023438 Z M 106.3125 31.816406 "/>
<path style=" stroke:none;fill-rule:nonzero;fill:rgb(0%,0%,0%);fill-opacity:1;" d="M 112.519531 31.816406 L 118.726562 31.816406 L 118.726562 38.023438 L 112.519531 38.023438 Z M 112.519531 31.816406 "/>
<path style=" stroke:none;fill-rule:nonzero;fill:rgb(0%,0%,0%);fill-opacity:1;" d="M 118.726562 31.816406 L 124.9375 31.816406 L 124.9375 38.023438 L 118.726562 38.023438 Z M 118.726562 31.816406 "/>
<path style=" stroke:none;fill-rule:nonzero;fill:rgb(0%,0%,0%);fill-opacity:1;" d="M 75.273438 38.023438 L 81.480469 38.023438 L 81.480469 44.230469 L 75.273438 44.230469 Z M 75.273438 38.023438 "/>
<path style=" stroke:none;fill-rule:nonzero;fill:rgb(0%,0%,0%);fill-opacity:1;" d="M 93.894531 38.023438 L 100.105469 38.023438 L 100.105469 44.230469 L 93.894531 44.230469 Z M 93.894531 38.023438 "/>
<path style=" stroke:none;fill-rule:nonzero;fill:rgb(0%,0%,0%);fill-opacity:1;" d="M 112.519531 38.023438 L 118.726562 38.023438 L 118.726562 44.230469 L 112.519531 44.230469 Z M 112.519531 38.023438 "/>
<path style=" stroke:none;fill-rule:nonzero;fill:rgb(0%,0%,0%);fill-opacity:1;" d="M 118.726562 38.023438 L 124.9375 38.023438 L 124.9375 44.230469 L 118.726562 44.230469 Z M 118.726562 38.023438 "/>
<path style=" stroke:none;fill-rule:nonzero;fill:rgb(0%,0%,0%);fill-opacity:1;" d="M 75.273438 44.230469 L 81.480469 44.230469 L 81.480469 50.441406 L 75.273438 50.441406 Z M 75.273438 44.230469 "/>
<path style=" stroke:none;fill-rule:nonzero;fill:rgb(0%,0%,0%);fill-opacity:1;" d="M 93.894531 44.230469 L 100.105469 44.230469 L 100.105469 50.441406 L 93.894531 50.441406 Z M 93.894531 44.230469 "/>
<path style=" stroke:none;fill-rule:nonzero;fill:rgb(0%,0%,0%);fill-opacity:1;" d="M 106.3125 44.230469 L 112.519531 44.230469 L 112.519531 50.441406 L 106.3125 50.441406 Z M 106.3125 44.230469 "/>
<path style=" stroke:none;fill-rule:nonzero;fill:rgb(0%,0%,0%);fill-opacity:1;" d="M 81.480469 50.441406 L 87.6875 50.441406 L 87.6875 56.648438 L 81.480469 56.648438 Z M 81.480469 50.441406 "/>
<path style=" stroke:none;fill-rule:nonzero;fill:rgb(0%,0%,0%);fill-opacity:1;" d="M 87.6875 50.441406 L 93.894531 50.441406 L 93.894531 56.648438 L 87.6875 56.648438 Z M 87.6875 50.441406 "/>
<path style=" stroke:none;fill-rule:nonzero;fill:rgb(0%,0%,0%);fill-opacity:1;" d="M 93.894531 50.441406 L 100.105469 50.441406 L 100.105469 56.648438 L 93.894531 56.648438 Z M 93.894531 50.441406 "/>
<path style=" stroke:none;fill-rule:nonzero;fill:rgb(0%,0%,0%);fill-opacity:1;" d="M 106.3125 50.441406 L 112.519531 50.441406 L 112.519531 56.648438 L 106.3125 56.648438 Z M 106.3125 50.441406 "/>
<path style=" stroke:none;fill-rule:nonzero;fill:rgb(0%,0%,0%);fill-opacity:1;" d="M 112.519531 50.441406 L 118.726562 50.441406 L 118.726562 56.648438 L 112.519531 56.648438 Z M 112.519531 50.441406 "/>
<path style=" stroke:none;fill-rule:nonzero;fill:rgb(0%,0%,0%);fill-opacity:1;" d="M 69.0625 56.648438 L 75.273438 56.648438 L 75.273438 62.855469 L 69.0625 62.855469 Z M 69.0625 56.648438 "/>
<path style=" stroke:none;fill-rule:nonzero;fill:rgb(0%,0%,0%);fill-opacity:1;" d="M 81.480469 56.648438 L 87.6875 56.648438 L 87.6875 62.855469 L 81.480469 62.855469 Z M 81.480469 56.648438 "/>
<path style=" stroke:none;fill-rule:nonzero;fill:rgb(0%,0%,0%);fill-opacity:1;" d="M 93.894531 56.648438 L 100.105469 56.648438 L 100.105469 62.855469 L 93.894531 62.855469 Z M 93.894531 56.648438 "/>
<path style=" stroke:none;fill-rule:nonzero;fill:rgb(0%,0%,0%);fill-opacity:1;" d="M 106.3125 56.648438 L 112.519531 56.648438 L 112.519531 62.855469 L 106.3125 62.855469 Z M 106.3125 56.648438 "/>
<path style=" stroke:none;fill-rule:nonzero;fill:rgb(0%,0%,0%);fill-opacity:1;" d="M 118.726562 56.648438 L 124.9375 56.648438 L 124.9375 62.855469 L 118.726562 62.855469 Z M 118.726562 56.648438 "/>
<path style=" stroke:none;fill-rule:nonzero;fill:rgb(0%,0%,0%);fill-opacity:1;" d="M 69.0625 62.855469 L 75.273438 62.855469 L 75.273438 69.0625 L 69.0625 69.0625 Z M 69.0625 62.855469 "/>
<path style=" stroke:none;fill-rule:nonzero;fill:rgb(0%,0%,0%);fill-opacity:1;" d="M 87.6875 62.855469 L 93.894531 62.855469 L 93.894531 69.0625 L 87.6875 69.0625 Z M 87.6875 62.855469 "/>
<path style=" stroke:none;fill-rule:nonzero;fill:rgb(0%,0%,0%);fill-opacity:1;" d="M 100.105469 62.855469 L 106.3125 62.855469 L 106.3125 69.0625 L 100.105469 69.0625 Z M 100.105469 62.855469 "/>
<path style=" stroke:none;fill-rule:nonzero;fill:rgb(0%,0%,0%);fill-opacity:1;" d="M 118.726562 62.855469 L 124.9375 62.855469 L 124.9375 69.0625 L 118.726562 69.0625 Z M 118.726562 62.855469 "/>
<path style=" stroke:none;fill-rule:nonzero;fill:rgb(0%,0%,0%);fill-opacity:1;" d="M 19.398438 69.0625 L 25.609375 69.0625 L 25.609375 75.273438 L 19.398438 75.273438 Z M 19.398438 69.0625 "/>
<path style=" stroke:none;fill-rule:nonzero;fill:rgb(0%,0%,0%);fill-opacity:1;" d="M 25.609375 69.0625 L 31.816406 69.0625 L 31.816406 75.273438 L 25.609375 75.273438 Z M 25.609375 69.0625 "/>
<path style=" stroke:none;fill-rule:nonzero;fill:rgb(0%,0%,0%);fill-opacity:1;" d="M 31.816406 69.0625 L 38.023438 69.0625 L 38.023438 75.273438 L 31.816406 75.273438 Z M 31.816406 69.0625 "/>
<path style=" stroke:none;fill-rule:nonzero;fill:rgb(0%,0%,0%);fill-opacity:1;" d="M 44.230469 69.0625 L 50.441406 69.0625 L 50.441406 75.273438 L 44.230469 75.273438 Z M 44.230469 69.0625 "/>
<path style=" stroke:none;fill-rule:nonzero;fill:rgb(0%,0%,0%);fill-opacity:1;" d="M 50.441406 69.0625 L 56.648438 69.0625 L 56.648438 75.273438 L 50.441406 75.273438 Z M 50.441406 69.0625 "/>
<path style=" stroke:none;fill-rule:nonzero;fill:rgb(0%,0%,0%);fill-opacity:1;" d="M 56.648438 69.0625 L 62.855469 69.0625 L 62.855469 75.273438 L 56.648438 75.273438 Z M 56.648438 69.0625 "/>
<path style=" stroke:none;fill-rule:nonzero;fill:rgb(0%,0%,0%);fill-opacity:1;" d="M 62.855469 69.0625 L 69.0625 69.0625 L 69.0625 75.273438 L 62.855469 75.273438 Z M 62.855469 69.0625 "/>
<path style=" stroke:none;fill-rule:nonzero;fill:rgb(0%,0%,0%);fill-opacity:1;" d="M 69.0625 69.0625 L 75.273438 69.0625 L 75.273438 75.273438 L 69.0625 75.273438 Z M 69.0625 69.0625 "/>
<path style=" stroke:none;fill-rule:nonzero;fill:rgb(0%,0%,0%);fill-opacity:1;" d="M 93.894531 69.0625 L 100.105469 69.0625 L 100.105469 75.273438 L 93.894531 75.273438 Z M 93.894531 69.0625 "/>
<path style=" stroke:none;fill-rule:nonzero;fill:rgb(0%,0%,0%);fill-opacity:1;" d="M 100.105469 69.0625 L 106.3125 69.0625 L 106.3125 75.273438 L 100.105469 75.273438 Z M 100.105469 69.0625 "/>
<path style=" stroke:none;fill-rule:nonzero;fill:rgb(0%,0%,0%);fill-opacity:1;" d="M 118.726562 69.0625 L 124.9375 69.0625 L 124.9375 75.273438 L 118.726562 75.273438 Z M 118.726562 69.0625 "/>
<path style=" stroke:none;fill-rule:nonzero;fill:rgb(0%,0%,0%);fill-opacity:1;" d="M 124.9375 69.0625 L 131.144531 69.0625 L 131.144531 75.273438 L 124.9375 75.273438 Z M 124.9375 69.0625 "/>
<path style=" stroke:none;fill-rule:nonzero;fill:rgb(0%,0%,0%);fill-opacity:1;" d="M 131.144531 69.0625 L 137.351562 69.0625 L 137.351562 75.273438 L 131.144531 75.273438 Z M 131.144531 69.0625 "/>
<path style=" stroke:none;fill-rule:nonzero;fill:rgb(0%,0%,0%);fill-opacity:1;" d="M 155.976562 69.0625 L 162.183594 69.0625 L 162.183594 75.273438 L 155.976562 75.273438 Z M 155.976562 69.0625 "/>
<path style=" stroke:none;fill-rule:nonzero;fill:rgb(0%,0%,0%);fill-opacity:1;" d="M 19.398438 75.273438 L 25.609375 75.273438 L 25.609375 81.480469 L 19.398438 81.480469 Z M 19.398438 75.273438 "/>
<path style=" stroke:none;fill-rule:nonzero;fill:rgb(0%,0%,0%);fill-opacity:1;" d="M 44.230469 75.273438 L 50.441406 75.273438 L 50.441406 81.480469 L 44.230469 81.480469 Z M 44.230469 75.273438 "/>
<path style=" stroke:none;fill-rule:nonzero;fill:rgb(0%,0%,0%);fill-opacity:1;" d="M 69.0625 75.273438 L 75.273438 75.273438 L 75.273438 81.480469 L 69.0625 81.480469 Z M 69.0625 75.273438 "/>
<path style=" stroke:none;fill-rule:nonzero;fill:rgb(0%,0%,0%);fill-opacity:1;" d="M 75.273438 75.273438 L 81.480469 75.273438 L 81.480469 81.480469 L 75.273438 81.480469 Z M 75.273438 75.273438 "/>
<path style=" stroke:none;fill-rule:nonzero;fill:rgb(0%,0%,0%);fill-opacity:1;" d="M 87.6875 75.273438 L 93.894531 75.273438 L 93.894531 81.480469 L 87.6875 81.480469 Z M 87.6875 75.273438 "/>
<path style=" stroke:none;fill-rule:nonzero;fill:rgb(0%,0%,0%);fill-opacity:1;" d="M 93.894531 75.273438 L 100.105469 75.273438 L 100.105469 81.480469 L 93.894531 81.480469 Z M 93.894531 75.273438 "/>
<path style=" stroke:none;fill-rule:nonzero;fill:rgb(0%,0%,0%);fill-opacity:1;" d="M 100.105469 75.273438 L 106.3125 75.273438 L 106.3125 81.480469 L 100.105469 81.480469 Z M 100.105469 75.273438 "/>
<path style=" stroke:none;fill-rule:nonzero;fill:rgb(0%,0%,0%);fill-opacity:1;" d="M 112.519531 75.273438 L 118.726562 75.273438 L 118.726562 81.480469 L 112.519531 81.480469 Z M 112.519531 75.273438 "/>
<path style=" stroke:none;fill-rule:nonzero;fill:rgb(0%,0%,0%);fill-opacity:1;" d="M 118.726562 75.273438 L 124.9375 75.273438 L 124.9375 81.480469 L 118.726562 81.480469 Z M 118.726562 75.273438 "/>
<path style=" stroke:none;fill-rule:nonzero;fill:rgb(0%,0%,0%);fill-opacity:1;" d="M 131.144531 75.273438 L 137.351562 75.273438 L 137.351562 81.480469 L 131.144531 81.480469 Z M 131.144531 75.273438 "/>
<path style=" stroke:none;fill-rule:nonzero;fill:rgb(0%,0%,0%);fill-opacity:1;" d="M 143.558594 75.273438 L 149.769531 75.273438 L 149.769531 81.480469 L 143.558594 81.480469 Z M 143.558594 75.273438 "/>
<path style=" stroke:none;fill-rule:nonzero;fill:rgb(0%,0%,0%);fill-opacity:1;" d="M 162.183594 75.273438 L 168.390625 75.273438 L 168.390625 81.480469 L 162.183594 81.480469 Z M 162.183594 75.273438 "/>
<path style=" stroke:none;fill-rule:nonzero;fill:rgb(0%,0%,0%);fill-opacity:1;" d="M 19.398438 81.480469 L 25.609375 81.480469 L 25.609375 87.6875 L 19.398438 87.6875 Z M 19.398438 81.480469 "/>
<path style=" stroke:none;fill-rule:nonzero;fill:rgb(0%,0%,0%);fill-opacity:1;" d="M 31.816406 81.480469 L 38.023438 81.480469 L 38.023438 87.6875 L 31.816406 87.6875 Z M 31.816406 81.480469 "/>
<path style=" stroke:none;fill-rule:nonzero;fill:rgb(0%,0%,0%);fill-opacity:1;" d="M 38.023438 81.480469 L 44.230469 81.480469 L 44.230469 87.6875 L 38.023438 87.6875 Z M 38.023438 81.480469 "/>
<path style=" stroke:none;fill-rule:nonzero;fill:rgb(0%,0%,0%);fill-opacity:1;" d="M 50.441406 81.480469 L 56.648438 81.480469 L 56.648438 87.6875 L 50.441406 87.6875 Z M 50.441406 81.480469 "/>
<path style=" stroke:none;fill-rule:nonzero;fill:rgb(0%,0%,0%);fill-opacity:1;" d="M 56.648438 81.480469 L 62.855469 81.480469 L 62.855469 87.6875 L 56.648438 87.6875 Z M 56.648438 81.480469 "/>
<path style=" stroke:none;fill-rule:nonzero;fill:rgb(0%,0%,0%);fill-opacity:1;" d="M 69.0625 81.480469 L 75.273438 81.480469 L 75.273438 87.6875 L 69.0625 87.6875 Z M 69.0625 81.480469 "/>
<path style=" stroke:none;fill-rule:nonzero;fill:rgb(0%,0%,0%);fill-opacity:1;" d="M 81.480469 81.480469 L 87.6875 81.480469 L 87.6875 87.6875 L 81.480469 87.6875 Z M 81.480469 81.480469 "/>
<path style=" stroke:none;fill-rule:nonzero;fill:rgb(0%,0%,0%);fill-opacity:1;" d="M 87.6875 81.480469 L 93.894531 81.480469 L 93.894531 87.6875 L 87.6875 87.6875 Z M 87.6875 81.480469 "/>
<path style=" stroke:none;fill-rule:nonzero;fill:rgb(0%,0%,0%);fill-opacity:1;" d="M 93.894531 81.480469 L 100.105469 81.480469 L 100.105469 87.6875 L 93.894531 87.6875 Z M 93.894531 81.480469 "/>
<path style=" stroke:none;fill-rule:nonzero;fill:rgb(0%,0%,0%);fill-opacity:1;" d="M 118.726562 81.480469 L 124.9375 81.480469 L 124.9375 87.6875 L 118.726562 87.6875 Z M 118.726562 81.480469 "/>
<path style=" stroke:none;fill-rule:nonzero;fill:rgb(0%,0%,0%);fill-opacity:1;" d="M 124.9375 81.480469 L 131.144531 81.480469 L 131.144531 87.6875 L 124.9375 87.6875 Z M 124.9375 81.480469 "/>
<path style=" stroke:none;fill-rule:nonzero;fill:rgb(0%,0%,0%);fill-opacity:1;" d="M 131.144531 81.480469 L 137.351562 81.480469 L 137.351562 87.6875 L 131.144531 87.6875 Z M 131.144531 81.480469 "/>
<path style=" stroke:none;fill-rule:nonzero;fill:rgb(0%,0%,0%);fill-opacity:1;" d="M 149.769531 81.480469 L 155.976562 81.480469 L 155.976562 87.6875 L 149.769531 87.6875 Z M 149.769531 81.480469 "/>
<path style=" stroke:none;fill-rule:nonzero;fill:rgb(0%,0%,0%);fill-opacity:1;" d="M 31.816406 87.6875 L 38.023438 87.6875 L 38.023438 93.894531 L 31.816406 93.894531 Z M 31.816406 87.6875 "/>
<path style=" stroke:none;fill-rule:nonzero;fill:rgb(0%,0%,0%);fill-opacity:1;" d="M 50.441406 87.6875 L 56.648438 87.6875 L 56.648438 93.894531 L 50.441406 93.894531 Z M 50.441406 87.6875 "/>
<path style=" stroke:none;fill-rule:nonzero;fill:rgb(0%,0%,0%);fill-opacity:1;" d="M 75.273438 87.6875 L 81.480469 87.6875 L 81.480469 93.894531 L 75.273438 93.894531 Z M 75.273438 87.6875 "/>
<path style=" stroke:none;fill-rule:nonzero;fill:rgb(0%,0%,0%);fill-opacity:1;" d="M 81.480469 87.6875 L 87.6875 87.6875 L 87.6875 93.894531 L 81.480469 93.894531 Z M 81.480469 87.6875 "/>
<path style=" stroke:none;fill-rule:nonzero;fill:rgb(0%,0%,0%);fill-opacity:1;" d="M 93.894531 87.6875 L 100.105469 87.6875 L 100.105469 93.894531 L 93.894531 93.894531 Z M 93.894531 87.6875 "/>
<path style=" stroke:none;fill-rule:nonzero;fill:rgb(0%,0%,0%);fill-opacity:1;" d="M 118.726562 87.6875 L 124.9375 87.6875 L 124.9375 93.894531 L 118.726562 93.894531 Z M 118.726562 87.6875 "/>
<path style=" stroke:none;fill-rule:nonzero;fill:rgb(0%,0%,0%);fill-opacity:1;" d="M 131.144531 87.6875 L 137.351562 87.6875 L 137.351562 93.894531 L 131.144531 93.894531 Z M 131.144531 87.6875 "/>
<path style=" stroke:none;fill-rule:nonzero;fill:rgb(0%,0%,0%);fill-opacity:1;" d="M 137.351562 87.6875 L 143.558594 87.6875 L 143.558594 93.894531 L 137.351562 93.894531 Z M 137.351562 87.6875 "/>
<path style=" stroke:none;fill-rule:nonzero;fill:rgb(0%,0%,0%);fill-opacity:1;" d="M 162.183594 87.6875 L 168.390625 87.6875 L 168.390625 93.894531 L 162.183594 93.894531 Z M 162.183594 87.6875 "/>
<path style=" stroke:none;fill-rule:nonzero;fill:rgb(0%,0%,0%);fill-opacity:1;" d="M 168.390625 87.6875 L 174.601562 87.6875 L 174.601562 93.894531 L 168.390625 93.894531 Z M 168.390625 87.6875 "/>
<path style=" stroke:none;fill-rule:nonzero;fill:rgb(0%,0%,0%);fill-opacity:1;" d="M 25.609375 93.894531 L 31.816406 93.894531 L 31.816406 100.105469 L 25.609375 100.105469 Z M 25.609375 93.894531 "/>
<path style=" stroke:none;fill-rule:nonzero;fill:rgb(0%,0%,0%);fill-opacity:1;" d="M 50.441406 93.894531 L 56.648438 93.894531 L 56.648438 100.105469 L 50.441406 100.105469 Z M 50.441406 93.894531 "/>
<path style=" stroke:none;fill-rule:nonzero;fill:rgb(0%,0%,0%);fill-opacity:1;" d="M 56.648438 93.894531 L 62.855469 93.894531 L 62.855469 100.105469 L 56.648438 100.105469 Z M 56.648438 93.894531 "/>
<path style=" stroke:none;fill-rule:nonzero;fill:rgb(0%,0%,0%);fill-opacity:1;" d="M 81.480469 93.894531 L 87.6875 93.894531 L 87.6875 100.105469 L 81.480469 100.105469 Z M 81.480469 93.894531 "/>
<path style=" stroke:none;fill-rule:nonzero;fill:rgb(0%,0%,0%);fill-opacity:1;" d="M 87.6875 93.894531 L 93.894531 93.894531 L 93.894531 100.105469 L 87.6875 100.105469 Z M 87.6875 93.894531 "/>
<path style=" stroke:none;fill-rule:nonzero;fill:rgb(0%,0%,0%);fill-opacity:1;" d="M 100.105469 93.894531 L 106.3125 93.894531 L 106.3125 100.105469 L 100.105469 100.105469 Z M 100.105469 93.894531 "/>
<path style=" stroke:none;fill-rule:nonzero;fill:rgb(0%,0%,0%);fill-opacity:1;" d="M 118.726562 93.894531 L 124.9375 93.894531 L 124.9375 100.105469 L 118.726562 100.105469 Z M 118.726562 93.894531 "/>
<path style=" stroke:none;fill-rule:nonzero;fill:rgb(0%,0%,0%);fill-opacity:1;" d="M 131.144531 93.894531 L 137.351562 93.894531 L 137.351562 100.105469 L 131.144531 100.105469 Z M 131.144531 93.894531 "/>
<path style=" stroke:none;fill-rule:nonzero;fill:rgb(0%,0%,0%);fill-opacity:1;" d="M 137.351562 93.894531 L 143.558594 93.894531 L 143.558594 100.105469 L 137.351562 100.105469 Z M 137.351562 93.894531 "/>
<path style=" stroke:none;fill-rule:nonzero;fill:rgb(0%,0%,0%);fill-opacity:1;" d="M 155.976562 93.894531 L 162.183594 93.894531 L 162.183594 100.105469 L 155.976562 100.105469 Z M 155.976562 93.894531 "/>
<path style=" stroke:none;fill-rule:nonzero;fill:rgb(0%,0%,0%);fill-opacity:1;" d="M 162.183594 93.894531 L 168.390625 93.894531 L 168.390625 100.105469 L 162.183594 100.105469 Z M 162.183594 93.894531 "/>
<path style=" stroke:none;fill-rule:nonzero;fill:rgb(0%,0%,0%);fill-opacity:1;" d="M 168.390625 93.894531 L 174.601562 93.894531 L 174.601562 100.105469 L 168.390625 100.105469 Z M 168.390625 93.894531 "/>
<path style=" stroke:none;fill-rule:nonzero;fill:rgb(0%,0%,0%);fill-opacity:1;" d="M 38.023438 100.105469 L 44.230469 100.105469 L 44.230469 106.3125 L 38.023438 106.3125 Z M 38.023438 100.105469 "/>
<path style=" stroke:none;fill-rule:nonzero;fill:rgb(0%,0%,0%);fill-opacity:1;" d="M 44.230469 100.105469 L 50.441406 100.105469 L 50.441406 106.3125 L 44.230469 106.3125 Z M 44.230469 100.105469 "/>
<path style=" stroke:none;fill-rule:nonzero;fill:rgb(0%,0%,0%);fill-opacity:1;" d="M 50.441406 100.105469 L 56.648438 100.105469 L 56.648438 106.3125 L 50.441406 106.3125 Z M 50.441406 100.105469 "/>
<path style=" stroke:none;fill-rule:nonzero;fill:rgb(0%,0%,0%);fill-opacity:1;" d="M 69.0625 100.105469 L 75.273438 100.105469 L 75.273438 106.3125 L 69.0625 106.3125 Z M 69.0625 100.105469 "/>
<path style=" stroke:none;fill-rule:nonzero;fill:rgb(0%,0%,0%);fill-opacity:1;" d="M 75.273438 100.105469 L 81.480469 100.105469 L 81.480469 106.3125 L 75.273438 106.3125 Z M 75.273438 100.105469 "/>
<path style=" stroke:none;fill-rule:nonzero;fill:rgb(0%,0%,0%);fill-opacity:1;" d="M 81.480469 100.105469 L 87.6875 100.105469 L 87.6875 106.3125 L 81.480469 106.3125 Z M 81.480469 100.105469 "/>
<path style=" stroke:none;fill-rule:nonzero;fill:rgb(0%,0%,0%);fill-opacity:1;" d="M 87.6875 100.105469 L 93.894531 100.105469 L 93.894531 106.3125 L 87.6875 106.3125 Z M 87.6875 100.105469 "/>
<path style=" stroke:none;fill-rule:nonzero;fill:rgb(0%,0%,0%);fill-opacity:1;" d="M 100.105469 100.105469 L 106.3125 100.105469 L 106.3125 106.3125 L 100.105469 106.3125 Z M 100.105469 100.105469 "/>
<path style=" stroke:none;fill-rule:nonzero;fill:rgb(0%,0%,0%);fill-opacity:1;" d="M 118.726562 100.105469 L 124.9375 100.105469 L 124.9375 106.3125 L 118.726562 106.3125 Z M 118.726562 100.105469 "/>
<path style=" stroke:none;fill-rule:nonzero;fill:rgb(0%,0%,0%);fill-opacity:1;" d="M 143.558594 100.105469 L 149.769531 100.105469 L 149.769531 106.3125 L 143.558594 106.3125 Z M 143.558594 100.105469 "/>
<path style=" stroke:none;fill-rule:nonzero;fill:rgb(0%,0%,0%);fill-opacity:1;" d="M 162.183594 100.105469 L 168.390625 100.105469 L 168.390625 106.3125 L 162.183594 106.3125 Z M 162.183594 100.105469 "/>
<path style=" stroke:none;fill-rule:nonzero;fill:rgb(0%,0%,0%);fill-opacity:1;" d="M 168.390625 100.105469 L 174.601562 100.105469 L 174.601562 106.3125 L 168.390625 106.3125 Z M 168.390625 100.105469 "/>
<path style=" stroke:none;fill-rule:nonzero;fill:rgb(0%,0%,0%);fill-opacity:1;" d="M 19.398438 106.3125 L 25.609375 106.3125 L 25.609375 112.519531 L 19.398438 112.519531 Z M 19.398438 106.3125 "/>
<path style=" stroke:none;fill-rule:nonzero;fill:rgb(0%,0%,0%);fill-opacity:1;" d="M 44.230469 106.3125 L 50.441406 106.3125 L 50.441406 112.519531 L 44.230469 112.519531 Z M 44.230469 106.3125 "/>
<path style=" stroke:none;fill-rule:nonzero;fill:rgb(0%,0%,0%);fill-opacity:1;" d="M 56.648438 106.3125 L 62.855469 106.3125 L 62.855469 112.519531 L 56.648438 112.519531 Z M 56.648438 106.3125 "/>
<path style=" stroke:none;fill-rule:nonzero;fill:rgb(0%,0%,0%);fill-opacity:1;" d="M 62.855469 106.3125 L 69.0625 106.3125 L 69.0625 112.519531 L 62.855469 112.519531 Z M 62.855469 106.3125 "/>
<path style=" stroke:none;fill-rule:nonzero;fill:rgb(0%,0%,0%);fill-opacity:1;" d="M 100.105469 106.3125 L 106.3125 106.3125 L 106.3125 112.519531 L 100.105469 112.519531 Z M 100.105469 106.3125 "/>
<path style=" stroke:none;fill-rule:nonzero;fill:rgb(0%,0%,0%);fill-opacity:1;" d="M 106.3125 106.3125 L 112.519531 106.3125 L 112.519531 112.519531 L 106.3125 112.519531 Z M 106.3125 106.3125 "/>
<path style=" stroke:none;fill-rule:nonzero;fill:rgb(0%,0%,0%);fill-opacity:1;" d="M 112.519531 106.3125 L 118.726562 106.3125 L 118.726562 112.519531 L 112.519531 112.519531 Z M 112.519531 106.3125 "/>
<path style=" stroke:none;fill-rule:nonzero;fill:rgb(0%,0%,0%);fill-opacity:1;" d="M 118.726562 106.3125 L 124.9375 106.3125 L 124.9375 112.519531 L 118.726562 112.519531 Z M 118.726562 106.3125 "/>
<path style=" stroke:none;fill-rule:nonzero;fill:rgb(0%,0%,0%);fill-opacity:1;" d="M 124.9375 106.3125 L 131.144531 106.3125 L 131.144531 112.519531 L 124.9375 112.519531 Z M 124.9375 106.3125 "/>
<path style=" stroke:none;fill-rule:nonzero;fill:rgb(0%,0%,0%);fill-opacity:1;" d="M 131.144531 106.3125 L 137.351562 106.3125 L 137.351562 112.519531 L 131.144531 112.519531 Z M 131.144531 106.3125 "/>
<path style=" stroke:none;fill-rule:nonzero;fill:rgb(0%,0%,0%);fill-opacity:1;" d="M 149.769531 106.3125 L 155.976562 106.3125 L 155.976562 112.519531 L 149.769531 112.519531 Z M 149.769531 106.3125 "/>
<path style=" stroke:none;fill-rule:nonzero;fill:rgb(0%,0%,0%);fill-opacity:1;" d="M 162.183594 106.3125 L 168.390625 106.3125 L 168.390625 112.519531 L 162.183594 112.519531 Z M 162.183594 106.3125 "/>
<path style=" stroke:none;fill-rule:nonzero;fill:rgb(0%,0%,0%);fill-opacity:1;" d="M 168.390625 106.3125 L 174.601562 106.3125 L 174.601562 112.519531 L 168.390625 112.519531 Z M 168.390625 106.3125 "/>
<path style=" stroke:none;fill-rule:nonzero;fill:rgb(0%,0%,0%);fill-opacity:1;" d="M 25.609375 112.519531 L 31.816406 112.519531 L 31.816406 118.726562 L 25.609375 118.726562 Z M 25.609375 112.519531 "/>
<path style=" stroke:none;fill-rule:nonzero;fill:rgb(0%,0%,0%);fill-opacity:1;" d="M 31.816406 112.519531 L 38.023438 112.519531 L 38.023438 118.726562 L 31.816406 118.726562 Z M 31.816406 112.519531 "/>
<path style=" stroke:none;fill-rule:nonzero;fill:rgb(0%,0%,0%);fill-opacity:1;" d="M 38.023438 112.519531 L 44.230469 112.519531 L 44.230469 118.726562 L 38.023438 118.726562 Z M 38.023438 112.519531 "/>
<path style=" stroke:none;fill-rule:nonzero;fill:rgb(0%,0%,0%);fill-opacity:1;" d="M 50.441406 112.519531 L 56.648438 112.519531 L 56.648438 118.726562 L 50.441406 118.726562 Z M 50.441406 112.519531 "/>
<path style=" stroke:none;fill-rule:nonzero;fill:rgb(0%,0%,0%);fill-opacity:1;" d="M 69.0625 112.519531 L 75.273438 112.519531 L 75.273438 118.726562 L 69.0625 118.726562 Z M 69.0625 112.519531 "/>
<path style=" stroke:none;fill-rule:nonzero;fill:rgb(0%,0%,0%);fill-opacity:1;" d="M 75.273438 112.519531 L 81.480469 112.519531 L 81.480469 118.726562 L 75.273438 118.726562 Z M 75.273438 112.519531 "/>
<path style=" stroke:none;fill-rule:nonzero;fill:rgb(0%,0%,0%);fill-opacity:1;" d="M 87.6875 112.519531 L 93.894531 112.519531 L 93.894531 118.726562 L 87.6875 118.726562 Z M 87.6875 112.519531 "/>
<path style=" stroke:none;fill-rule:nonzero;fill:rgb(0%,0%,0%);fill-opacity:1;" d="M 100.105469 112.519531 L 106.3125 112.519531 L 106.3125 118.726562 L 100.105469 118.726562 Z M 100.105469 112.519531 "/>
<path style=" stroke:none;fill-rule:nonzero;fill:rgb(0%,0%,0%);fill-opacity:1;" d="M 106.3125 112.519531 L 112.519531 112.519531 L 112.519531 118.726562 L 106.3125 118.726562 Z M 106.3125 112.519531 "/>
<path style=" stroke:none;fill-rule:nonzero;fill:rgb(0%,0%,0%);fill-opacity:1;" d="M 131.144531 112.519531 L 137.351562 112.519531 L 137.351562 118.726562 L 131.144531 118.726562 Z M 131.144531 112.519531 "/>
<path style=" stroke:none;fill-rule:nonzero;fill:rgb(0%,0%,0%);fill-opacity:1;" d="M 137.351562 112.519531 L 143.558594 112.519531 L 143.558594 118.726562 L 137.351562 118.726562 Z M 137.351562 112.519531 "/>
<path style=" stroke:none;fill-rule:nonzero;fill:rgb(0%,0%,0%);fill-opacity:1;" d="M 19.398438 118.726562 L 25.609375 118.726562 L 25.609375 124.9375 L 19.398438 124.9375 Z M 19.398438 118.726562 "/>
<path style=" stroke:none;fill-rule:nonzero;fill:rgb(0%,0%,0%);fill-opacity:1;" d="M 31.816406 118.726562 L 38.023438 118.726562 L 38.023438 124.9375 L 31.816406 124.9375 Z M 31.816406 118.726562 "/>
<path style=" stroke:none;fill-rule:nonzero;fill:rgb(0%,0%,0%);fill-opacity:1;" d="M 44.230469 118.726562 L 50.441406 118.726562 L 50.441406 124.9375 L 44.230469 124.9375 Z M 44.230469 118.726562 "/>
<path style=" stroke:none;fill-rule:nonzero;fill:rgb(0%,0%,0%);fill-opacity:1;" d="M 50.441406 118.726562 L 56.648438 118.726562 L 56.648438 124.9375 L 50.441406 124.9375 Z M 50.441406 118.726562 "/>
<path style=" stroke:none;fill-rule:nonzero;fill:rgb(0%,0%,0%);fill-opacity:1;" d="M 56.648438 118.726562 L 62.855469 118.726562 L 62.855469 124.9375 L 56.648438 124.9375 Z M 56.648438 118.726562 "/>
<path style=" stroke:none;fill-rule:nonzero;fill:rgb(0%,0%,0%);fill-opacity:1;" d="M 75.273438 118.726562 L 81.480469 118.726562 L 81.480469 124.9375 L 75.273438 124.9375 Z M 75.273438 118.726562 "/>
<path style=" stroke:none;fill-rule:nonzero;fill:rgb(0%,0%,0%);fill-opacity:1;" d="M 81.480469 118.726562 L 87.6875 118.726562 L 87.6875 124.9375 L 81.480469 124.9375 Z M 81.480469 118.726562 "/>
<path style=" stroke:none;fill-rule:nonzero;fill:rgb(0%,0%,0%);fill-opacity:1;" d="M 93.894531 118.726562 L 100.105469 118.726562 L 100.105469 124.9375 L 93.894531 124.9375 Z M 93.894531 118.726562 "/>
<path style=" stroke:none;fill-rule:nonzero;fill:rgb(0%,0%,0%);fill-opacity:1;" d="M 100.105469 118.726562 L 106.3125 118.726562 L 106.3125 124.9375 L 100.105469 124.9375 Z M 100.105469 118.726562 "/>
<path style=" stroke:none;fill-rule:nonzero;fill:rgb(0%,0%,0%);fill-opacity:1;" d="M 118.726562 118.726562 L 124.9375 118.726562 L 124.9375 124.9375 L 118.726562 124.9375 Z M 118.726562 118.726562 "/>
<path style=" stroke:none;fill-rule:nonzero;fill:rgb(0%,0%,0%);fill-opacity:1;" d="M 124.9375 118.726562 L 131.144531 118.726562 L 131.144531 124.9375 L 124.9375 124.9375 Z M 124.9375 118.726562 "/>
<path style=" stroke:none;fill-rule:nonzero;fill:rgb(0%,0%,0%);fill-opacity:1;" d="M 131.144531 118.726562 L 137.351562 118.726562 L 137.351562 124.9375 L 131.144531 124.9375 Z M 131.144531 118.726562 "/>
<path style=" stroke:none;fill-rule:nonzero;fill:rgb(0%,0%,0%);fill-opacity:1;" d="M 137.351562 118.726562 L 143.558594 118.726562 L 143.558594 124.9375 L 137.351562 124.9375 Z M 137.351562 118.726562 "/>
<path style=" stroke:none;fill-rule:nonzero;fill:rgb(0%,0%,0%);fill-opacity:1;" d="M 143.558594 118.726562 L 149.769531 118.726562 L 149.769531 124.9375 L 143.558594 124.9375 Z M 143.558594 118.726562 "/>
<path style=" stroke:none;fill-rule:nonzero;fill:rgb(0%,0%,0%);fill-opacity:1;" d="M 155.976562 118.726562 L 162.183594 118.726562 L 162.183594 124.9375 L 155.976562 124.9375 Z M 155.976562 118.726562 "/>
<path style=" stroke:none;fill-rule:nonzero;fill:rgb(0%,0%,0%);fill-opacity:1;" d="M 168.390625 118.726562 L 174.601562 118.726562 L 174.601562 124.9375 L 168.390625 124.9375 Z M 168.390625 118.726562 "/>
<path style=" stroke:none;fill-rule:nonzero;fill:rgb(0%,0%,0%);fill-opacity:1;" d="M 69.0625 124.9375 L 75.273438 124.9375 L 75.273438 131.144531 L 69.0625 131.144531 Z M 69.0625 124.9375 "/>
<path style=" stroke:none;fill-rule:nonzero;fill:rgb(0%,0%,0%);fill-opacity:1;" d="M 81.480469 124.9375 L 87.6875 124.9375 L 87.6875 131.144531 L 81.480469 131.144531 Z M 81.480469 124.9375 "/>
<path style=" stroke:none;fill-rule:nonzero;fill:rgb(0%,0%,0%);fill-opacity:1;" d="M 87.6875 124.9375 L 93.894531 124.9375 L 93.894531 131.144531 L 87.6875 131.144531 Z M 87.6875 124.9375 "/>
<path style=" stroke:none;fill-rule:nonzero;fill:rgb(0%,0%,0%);fill-opacity:1;" d="M 93.894531 124.9375 L 100.105469 124.9375 L 100.105469 131.144531 L 93.894531 131.144531 Z M 93.894531 124.9375 "/>
<path style=" stroke:none;fill-rule:nonzero;fill:rgb(0%,0%,0%);fill-opacity:1;" d="M 100.105469 124.9375 L 106.3125 124.9375 L 106.3125 131.144531 L 100.105469 131.144531 Z M 100.105469 124.9375 "/>
<path style=" stroke:none;fill-rule:nonzero;fill:rgb(0%,0%,0%);fill-opacity:1;" d="M 118.726562 124.9375 L 124.9375 124.9375 L 124.9375 131.144531 L 118.726562 131.144531 Z M 118.726562 124.9375 "/>
<path style=" stroke:none;fill-rule:nonzero;fill:rgb(0%,0%,0%);fill-opacity:1;" d="M 143.558594 124.9375 L 149.769531 124.9375 L 149.769531 131.144531 L 143.558594 131.144531 Z M 143.558594 124.9375 "/>
<path style=" stroke:none;fill-rule:nonzero;fill:rgb(0%,0%,0%);fill-opacity:1;" d="M 162.183594 124.9375 L 168.390625 124.9375 L 168.390625 131.144531 L 162.183594 131.144531 Z M 162.183594 124.9375 "/>
<path style=" stroke:none;fill-rule:nonzero;fill:rgb(0%,0%,0%);fill-opacity:1;" d="M 69.0625 131.144531 L 75.273438 131.144531 L 75.273438 137.351562 L 69.0625 137.351562 Z M 69.0625 131.144531 "/>
<path style=" stroke:none;fill-rule:nonzero;fill:rgb(0%,0%,0%);fill-opacity:1;" d="M 75.273438 131.144531 L 81.480469 131.144531 L 81.480469 137.351562 L 75.273438 137.351562 Z M 75.273438 131.144531 "/>
<path style=" stroke:none;fill-rule:nonzero;fill:rgb(0%,0%,0%);fill-opacity:1;" d="M 81.480469 131.144531 L 87.6875 131.144531 L 87.6875 137.351562 L 81.480469 137.351562 Z M 81.480469 131.144531 "/>
<path style=" stroke:none;fill-rule:nonzero;fill:rgb(0%,0%,0%);fill-opacity:1;" d="M 87.6875 131.144531 L 93.894531 131.144531 L 93.894531 137.351562 L 87.6875 137.351562 Z M 87.6875 131.144531 "/>
<path style=" stroke:none;fill-rule:nonzero;fill:rgb(0%,0%,0%);fill-opacity:1;" d="M 93.894531 131.144531 L 100.105469 131.144531 L 100.105469 137.351562 L 93.894531 137.351562 Z M 93.894531 131.144531 "/>
<path style=" stroke:none;fill-rule:nonzero;fill:rgb(0%,0%,0%);fill-opacity:1;" d="M 100.105469 131.144531 L 106.3125 131.144531 L 106.3125 137.351562 L 100.105469 137.351562 Z M 100.105469 131.144531 "/>
<path style=" stroke:none;fill-rule:nonzero;fill:rgb(0%,0%,0%);fill-opacity:1;" d="M 106.3125 131.144531 L 112.519531 131.144531 L 112.519531 137.351562 L 106.3125 137.351562 Z M 106.3125 131.144531 "/>
<path style=" stroke:none;fill-rule:nonzero;fill:rgb(0%,0%,0%);fill-opacity:1;" d="M 112.519531 131.144531 L 118.726562 131.144531 L 118.726562 137.351562 L 112.519531 137.351562 Z M 112.519531 131.144531 "/>
<path style=" stroke:none;fill-rule:nonzero;fill:rgb(0%,0%,0%);fill-opacity:1;" d="M 118.726562 131.144531 L 124.9375 131.144531 L 124.9375 137.351562 L 118.726562 137.351562 Z M 118.726562 131.144531 "/>
<path style=" stroke:none;fill-rule:nonzero;fill:rgb(0%,0%,0%);fill-opacity:1;" d="M 131.144531 131.144531 L 137.351562 131.144531 L 137.351562 137.351562 L 131.144531 137.351562 Z M 131.144531 131.144531 "/>
<path style=" stroke:none;fill-rule:nonzero;fill:rgb(0%,0%,0%);fill-opacity:1;" d="M 143.558594 131.144531 L 149.769531 131.144531 L 149.769531 137.351562 L 143.558594 137.351562 Z M 143.558594 131.144531 "/>
<path style=" stroke:none;fill-rule:nonzero;fill:rgb(0%,0%,0%);fill-opacity:1;" d="M 149.769531 131.144531 L 155.976562 131.144531 L 155.976562 137.351562 L 149.769531 137.351562 Z M 149.769531 131.144531 "/>
<path style=" stroke:none;fill-rule:nonzero;fill:rgb(0%,0%,0%);fill-opacity:1;" d="M 162.183594 131.144531 L 168.390625 131.144531 L 168.390625 137.351562 L 162.183594 137.351562 Z M 162.183594 131.144531 "/>
<path style=" stroke:none;fill-rule:nonzero;fill:rgb(0%,0%,0%);fill-opacity:1;" d="M 168.390625 131.144531 L 174.601562 131.144531 L 174.601562 137.351562 L 168.390625 137.351562 Z M 168.390625 131.144531 "/>
<path style=" stroke:none;fill-rule:nonzero;fill:rgb(0%,0%,0%);fill-opacity:1;" d="M 69.0625 137.351562 L 75.273438 137.351562 L 75.273438 143.558594 L 69.0625 143.558594 Z M 69.0625 137.351562 "/>
<path style=" stroke:none;fill-rule:nonzero;fill:rgb(0%,0%,0%);fill-opacity:1;" d="M 81.480469 137.351562 L 87.6875 137.351562 L 87.6875 143.558594 L 81.480469 143.558594 Z M 81.480469 137.351562 "/>
<path style=" stroke:none;fill-rule:nonzero;fill:rgb(0%,0%,0%);fill-opacity:1;" d="M 93.894531 137.351562 L 100.105469 137.351562 L 100.105469 143.558594 L 93.894531 143.558594 Z M 93.894531 137.351562 "/>
<path style=" stroke:none;fill-rule:nonzero;fill:rgb(0%,0%,0%);fill-opacity:1;" d="M 100.105469 137.351562 L 106.3125 137.351562 L 106.3125 143.558594 L 100.105469 143.558594 Z M 100.105469 137.351562 "/>
<path style=" stroke:none;fill-rule:nonzero;fill:rgb(0%,0%,0%);fill-opacity:1;" d="M 106.3125 137.351562 L 112.519531 137.351562 L 112.519531 143.558594 L 106.3125 143.558594 Z M 106.3125 137.351562 "/>
<path style=" stroke:none;fill-rule:nonzero;fill:rgb(0%,0%,0%);fill-opacity:1;" d="M 118.726562 137.351562 L 124.9375 137.351562 L 124.9375 143.558594 L 118.726562 143.558594 Z M 118.726562 137.351562 "/>
<path style=" stroke:none;fill-rule:nonzero;fill:rgb(0%,0%,0%);fill-opacity:1;" d="M 143.558594 137.351562 L 149.769531 137.351562 L 149.769531 143.558594 L 143.558594 143.558594 Z M 143.558594 137.351562 "/>
<path style=" stroke:none;fill-rule:nonzero;fill:rgb(0%,0%,0%);fill-opacity:1;" d="M 149.769531 137.351562 L 155.976562 137.351562 L 155.976562 143.558594 L 149.769531 143.558594 Z M 149.769531 137.351562 "/>
<path style=" stroke:none;fill-rule:nonzero;fill:rgb(0%,0%,0%);fill-opacity:1;" d="M 162.183594 137.351562 L 168.390625 137.351562 L 168.390625 143.558594 L 162.183594 143.558594 Z M 162.183594 137.351562 "/>
<path style=" stroke:none;fill-rule:nonzero;fill:rgb(0%,0%,0%);fill-opacity:1;" d="M 168.390625 137.351562 L 174.601562 137.351562 L 174.601562 143.558594 L 168.390625 143.558594 Z M 168.390625 137.351562 "/>
<path style=" stroke:none;fill-rule:nonzero;fill:rgb(0%,0%,0%);fill-opacity:1;" d="M 69.0625 143.558594 L 75.273438 143.558594 L 75.273438 149.769531 L 69.0625 149.769531 Z M 69.0625 143.558594 "/>
<path style=" stroke:none;fill-rule:nonzero;fill:rgb(0%,0%,0%);fill-opacity:1;" d="M 75.273438 143.558594 L 81.480469 143.558594 L 81.480469 149.769531 L 75.273438 149.769531 Z M 75.273438 143.558594 "/>
<path style=" stroke:none;fill-rule:nonzero;fill:rgb(0%,0%,0%);fill-opacity:1;" d="M 87.6875 143.558594 L 93.894531 143.558594 L 93.894531 149.769531 L 87.6875 149.769531 Z M 87.6875 143.558594 "/>
<path style=" stroke:none;fill-rule:nonzero;fill:rgb(0%,0%,0%);fill-opacity:1;" d="M 93.894531 143.558594 L 100.105469 143.558594 L 100.105469 149.769531 L 93.894531 149.769531 Z M 93.894531 143.558594 "/>
<path style=" stroke:none;fill-rule:nonzero;fill:rgb(0%,0%,0%);fill-opacity:1;" d="M 112.519531 143.558594 L 118.726562 143.558594 L 118.726562 149.769531 L 112.519531 149.769531 Z M 112.519531 143.558594 "/>
<path style=" stroke:none;fill-rule:nonzero;fill:rgb(0%,0%,0%);fill-opacity:1;" d="M 118.726562 143.558594 L 124.9375 143.558594 L 124.9375 149.769531 L 118.726562 149.769531 Z M 118.726562 143.558594 "/>
<path style=" stroke:none;fill-rule:nonzero;fill:rgb(0%,0%,0%);fill-opacity:1;" d="M 124.9375 143.558594 L 131.144531 143.558594 L 131.144531 149.769531 L 124.9375 149.769531 Z M 124.9375 143.558594 "/>
<path style=" stroke:none;fill-rule:nonzero;fill:rgb(0%,0%,0%);fill-opacity:1;" d="M 131.144531 143.558594 L 137.351562 143.558594 L 137.351562 149.769531 L 131.144531 149.769531 Z M 131.144531 143.558594 "/>
<path style=" stroke:none;fill-rule:nonzero;fill:rgb(0%,0%,0%);fill-opacity:1;" d="M 137.351562 143.558594 L 143.558594 143.558594 L 143.558594 149.769531 L 137.351562 149.769531 Z M 137.351562 143.558594 "/>
<path style=" stroke:none;fill-rule:nonzero;fill:rgb(0%,0%,0%);fill-opacity:1;" d="M 143.558594 143.558594 L 149.769531 143.558594 L 149.769531 149.769531 L 143.558594 149.769531 Z M 143.558594 143.558594 "/>
<path style=" stroke:none;fill-rule:nonzero;fill:rgb(0%,0%,0%);fill-opacity:1;" d="M 155.976562 143.558594 L 162.183594 143.558594 L 162.183594 149.769531 L 155.976562 149.769531 Z M 155.976562 143.558594 "/>
<path style=" stroke:none;fill-rule:nonzero;fill:rgb(0%,0%,0%);fill-opacity:1;" d="M 75.273438 149.769531 L 81.480469 149.769531 L 81.480469 155.976562 L 75.273438 155.976562 Z M 75.273438 149.769531 "/>
<path style=" stroke:none;fill-rule:nonzero;fill:rgb(0%,0%,0%);fill-opacity:1;" d="M 87.6875 149.769531 L 93.894531 149.769531 L 93.894531 155.976562 L 87.6875 155.976562 Z M 87.6875 149.769531 "/>
<path style=" stroke:none;fill-rule:nonzero;fill:rgb(0%,0%,0%);fill-opacity:1;" d="M 100.105469 149.769531 L 106.3125 149.769531 L 106.3125 155.976562 L 100.105469 155.976562 Z M 100.105469 149.769531 "/>
<path style=" stroke:none;fill-rule:nonzero;fill:rgb(0%,0%,0%);fill-opacity:1;" d="M 112.519531 149.769531 L 118.726562 149.769531 L 118.726562 155.976562 L 112.519531 155.976562 Z M 112.519531 149.769531 "/>
<path style=" stroke:none;fill-rule:nonzero;fill:rgb(0%,0%,0%);fill-opacity:1;" d="M 118.726562 149.769531 L 124.9375 149.769531 L 124.9375 155.976562 L 118.726562 155.976562 Z M 118.726562 149.769531 "/>
<path style=" stroke:none;fill-rule:nonzero;fill:rgb(0%,0%,0%);fill-opacity:1;" d="M 124.9375 149.769531 L 131.144531 149.769531 L 131.144531 155.976562 L 124.9375 155.976562 Z M 124.9375 149.769531 "/>
<path style=" stroke:none;fill-rule:nonzero;fill:rgb(0%,0%,0%);fill-opacity:1;" d="M 137.351562 149.769531 L 143.558594 149.769531 L 143.558594 155.976562 L 137.351562 155.976562 Z M 137.351562 149.769531 "/>
<path style=" stroke:none;fill-rule:nonzero;fill:rgb(0%,0%,0%);fill-opacity:1;" d="M 143.558594 149.769531 L 149.769531 149.769531 L 149.769531 155.976562 L 143.558594 155.976562 Z M 143.558594 149.769531 "/>
<path style=" stroke:none;fill-rule:nonzero;fill:rgb(0%,0%,0%);fill-opacity:1;" d="M 69.0625 155.976562 L 75.273438 155.976562 L 75.273438 162.183594 L 69.0625 162.183594 Z M 69.0625 155.976562 "/>
<path style=" stroke:none;fill-rule:nonzero;fill:rgb(0%,0%,0%);fill-opacity:1;" d="M 75.273438 155.976562 L 81.480469 155.976562 L 81.480469 162.183594 L 75.273438 162.183594 Z M 75.273438 155.976562 "/>
<path style=" stroke:none;fill-rule:nonzero;fill:rgb(0%,0%,0%);fill-opacity:1;" d="M 81.480469 155.976562 L 87.6875 155.976562 L 87.6875 162.183594 L 81.480469 162.183594 Z M 81.480469 155.976562 "/>
<path style=" stroke:none;fill-rule:nonzero;fill:rgb(0%,0%,0%);fill-opacity:1;" d="M 93.894531 155.976562 L 100.105469 155.976562 L 100.105469 162.183594 L 93.894531 162.183594 Z M 93.894531 155.976562 "/>
<path style=" stroke:none;fill-rule:nonzero;fill:rgb(0%,0%,0%);fill-opacity:1;" d="M 100.105469 155.976562 L 106.3125 155.976562 L 106.3125 162.183594 L 100.105469 162.183594 Z M 100.105469 155.976562 "/>
<path style=" stroke:none;fill-rule:nonzero;fill:rgb(0%,0%,0%);fill-opacity:1;" d="M 112.519531 155.976562 L 118.726562 155.976562 L 118.726562 162.183594 L 112.519531 162.183594 Z M 112.519531 155.976562 "/>
<path style=" stroke:none;fill-rule:nonzero;fill:rgb(0%,0%,0%);fill-opacity:1;" d="M 118.726562 155.976562 L 124.9375 155.976562 L 124.9375 162.183594 L 118.726562 162.183594 Z M 118.726562 155.976562 "/>
<path style=" stroke:none;fill-rule:nonzero;fill:rgb(0%,0%,0%);fill-opacity:1;" d="M 149.769531 155.976562 L 155.976562 155.976562 L 155.976562 162.183594 L 149.769531 162.183594 Z M 149.769531 155.976562 "/>
<path style=" stroke:none;fill-rule:nonzero;fill:rgb(0%,0%,0%);fill-opacity:1;" d="M 168.390625 155.976562 L 174.601562 155.976562 L 174.601562 162.183594 L 168.390625 162.183594 Z M 168.390625 155.976562 "/>
<path style=" stroke:none;fill-rule:nonzero;fill:rgb(0%,0%,0%);fill-opacity:1;" d="M 69.0625 162.183594 L 75.273438 162.183594 L 75.273438 168.390625 L 69.0625 168.390625 Z M 69.0625 162.183594 "/>
<path style=" stroke:none;fill-rule:nonzero;fill:rgb(0%,0%,0%);fill-opacity:1;" d="M 81.480469 162.183594 L 87.6875 162.183594 L 87.6875 168.390625 L 81.480469 168.390625 Z M 81.480469 162.183594 "/>
<path style=" stroke:none;fill-rule:nonzero;fill:rgb(0%,0%,0%);fill-opacity:1;" d="M 87.6875 162.183594 L 93.894531 162.183594 L 93.894531 168.390625 L 87.6875 168.390625 Z M 87.6875 162.183594 "/>
<path style=" stroke:none;fill-rule:nonzero;fill:rgb(0%,0%,0%);fill-opacity:1;" d="M 100.105469 162.183594 L 106.3125 162.183594 L 106.3125 168.390625 L 100.105469 168.390625 Z M 100.105469 162.183594 "/>
<path style=" stroke:none;fill-rule:nonzero;fill:rgb(0%,0%,0%);fill-opacity:1;" d="M 118.726562 162.183594 L 124.9375 162.183594 L 124.9375 168.390625 L 118.726562 168.390625 Z M 118.726562 162.183594 "/>
<path style=" stroke:none;fill-rule:nonzero;fill:rgb(0%,0%,0%);fill-opacity:1;" d="M 143.558594 162.183594 L 149.769531 162.183594 L 149.769531 168.390625 L 143.558594 168.390625 Z M 143.558594 162.183594 "/>
<path style=" stroke:none;fill-rule:nonzero;fill:rgb(0%,0%,0%);fill-opacity:1;" d="M 149.769531 162.183594 L 155.976562 162.183594 L 155.976562 168.390625 L 149.769531 168.390625 Z M 149.769531 162.183594 "/>
<path style=" stroke:none;fill-rule:nonzero;fill:rgb(0%,0%,0%);fill-opacity:1;" d="M 168.390625 162.183594 L 174.601562 162.183594 L 174.601562 168.390625 L 168.390625 168.390625 Z M 168.390625 162.183594 "/>
<path style=" stroke:none;fill-rule:nonzero;fill:rgb(0%,0%,0%);fill-opacity:1;" d="M 69.0625 168.390625 L 75.273438 168.390625 L 75.273438 174.601562 L 69.0625 174.601562 Z M 69.0625 168.390625 "/>
<path style=" stroke:none;fill-rule:nonzero;fill:rgb(0%,0%,0%);fill-opacity:1;" d="M 75.273438 168.390625 L 81.480469 168.390625 L 81.480469 174.601562 L 75.273438 174.601562 Z M 75.273438 168.390625 "/>
<path style=" stroke:none;fill-rule:nonzero;fill:rgb(0%,0%,0%);fill-opacity:1;" d="M 81.480469 168.390625 L 87.6875 168.390625 L 87.6875 174.601562 L 81.480469 174.601562 Z M 81.480469 168.390625 "/>
<path style=" stroke:none;fill-rule:nonzero;fill:rgb(0%,0%,0%);fill-opacity:1;" d="M 100.105469 168.390625 L 106.3125 168.390625 L 106.3125 174.601562 L 100.105469 174.601562 Z M 100.105469 168.390625 "/>
<path style=" stroke:none;fill-rule:nonzero;fill:rgb(0%,0%,0%);fill-opacity:1;" d="M 106.3125 168.390625 L 112.519531 168.390625 L 112.519531 174.601562 L 106.3125 174.601562 Z M 106.3125 168.390625 "/>
<path style=" stroke:none;fill-rule:nonzero;fill:rgb(0%,0%,0%);fill-opacity:1;" d="M 118.726562 168.390625 L 124.9375 168.390625 L 124.9375 174.601562 L 118.726562 174.601562 Z M 118.726562 168.390625 "/>
<path style=" stroke:none;fill-rule:nonzero;fill:rgb(0%,0%,0%);fill-opacity:1;" d="M 143.558594 168.390625 L 149.769531 168.390625 L 149.769531 174.601562 L 143.558594 174.601562 Z M 143.558594 168.390625 "/>
<path style=" stroke:none;fill-rule:nonzero;fill:rgb(0%,0%,0%);fill-opacity:1;" d="M 149.769531 168.390625 L 155.976562 168.390625 L 155.976562 174.601562 L 149.769531 174.601562 Z M 149.769531 168.390625 "/>
<path style=" stroke:none;fill-rule:nonzero;fill:rgb(0%,0%,0%);fill-opacity:1;" d="M 162.183594 168.390625 L 168.390625 168.390625 L 168.390625 174.601562 L 162.183594 174.601562 Z M 162.183594 168.390625 "/>
<path style=" stroke:none;fill-rule:nonzero;fill:rgb(0%,0%,0%);fill-opacity:1;" d="M 168.390625 168.390625 L 174.601562 168.390625 L 174.601562 174.601562 L 168.390625 174.601562 Z M 168.390625 168.390625 "/>
<g clip-path="url(#clip1)" clip-rule="nonzero">
<path style=" stroke:none;fill-rule:nonzero;fill:rgb(0%,0%,0%);fill-opacity:1;" d="M 20.714844 19.394531 C 19.988281 19.394531 19.394531 19.988281 19.394531 20.714844 L 19.394531 61.539062 C 19.394531 62.265625 19.984375 62.863281 20.714844 62.863281 L 61.539062 62.863281 C 62.265625 62.863281 62.863281 62.273438 62.863281 61.539062 L 62.863281 20.714844 C 62.863281 19.988281 62.273438 19.394531 61.539062 19.394531 Z M 56.648438 31.816406 L 56.648438 55.890625 C 56.648438 56.3125 56.304688 56.648438 55.890625 56.648438 L 26.367188 56.648438 C 25.941406 56.648438 25.609375 56.304688 25.609375 55.890625 L 25.609375 26.367188 C 25.609375 25.941406 25.949219 25.609375 26.367188 25.609375 L 55.890625 25.609375 C 56.3125 25.609375 56.648438 25.949219 56.648438 26.367188 Z M 56.648438 31.816406 "/>
</g>
<path style=" stroke:none;fill-rule:nonzero;fill:rgb(0%,0%,0%);fill-opacity:1;" d="M 50.441406 44.230469 L 50.441406 33.132812 C 50.441406 32.40625 49.851562 31.808594 49.117188 31.808594 L 33.132812 31.808594 C 32.40625 31.808594 31.808594 32.398438 31.808594 33.132812 L 31.808594 49.125 C 31.808594 49.851562 32.398438 50.445312 33.132812 50.445312 L 49.117188 50.445312 C 49.84375 50.445312 50.441406 49.855469 50.441406 49.125 Z M 50.441406 44.230469 "/>
<g clip-path="url(#clip2)" clip-rule="nonzero">
<path style=" stroke:none;fill-rule:nonzero;fill:rgb(0%,0%,0%);fill-opacity:1;" d="M 132.460938 19.394531 C 131.734375 19.394531 131.136719 19.988281 131.136719 20.714844 L 131.136719 61.539062 C 131.136719 62.265625 131.726562 62.863281 132.460938 62.863281 L 173.285156 62.863281 C 174.011719 62.863281 174.605469 62.273438 174.605469 61.539062 L 174.605469 20.714844 C 174.605469 19.988281 174.015625 19.394531 173.285156 19.394531 Z M 168.390625 31.816406 L 168.390625 55.890625 C 168.390625 56.3125 168.050781 56.648438 167.632812 56.648438 L 138.109375 56.648438 C 137.6875 56.648438 137.351562 56.304688 137.351562 55.890625 L 137.351562 26.367188 C 137.351562 25.941406 137.695312 25.609375 138.109375 25.609375 L 167.632812 25.609375 C 168.058594 25.609375 168.390625 25.949219 168.390625 26.367188 Z M 168.390625 31.816406 "/>
</g>
<path style=" stroke:none;fill-rule:nonzero;fill:rgb(0%,0%,0%);fill-opacity:1;" d="M 162.183594 44.230469 L 162.183594 33.132812 C 162.183594 32.40625 161.59375 31.808594 160.863281 31.808594 L 144.875 31.808594 C 144.148438 31.808594 143.554688 32.398438 143.554688 33.132812 L 143.554688 49.125 C 143.554688 49.851562 144.144531 50.445312 144.875 50.445312 L 160.863281 50.445312 C 161.589844 50.445312 162.183594 49.855469 162.183594 49.125 Z M 162.183594 44.230469 "/>
<g clip-path="url(#clip3)" clip-rule="nonzero">
<path style=" stroke:none;fill-rule:nonzero;fill:rgb(0%,0%,0%);fill-opacity:1;" d="M 20.714844 131.136719 C 19.988281 131.136719 19.394531 131.734375 19.394531 132.460938 L 19.394531 173.285156 C 19.394531 174.011719 19.984375 174.605469 20.714844 174.605469 L 61.539062 174.605469 C 62.265625 174.605469 62.863281 174.015625 62.863281 173.285156 L 62.863281 132.460938 C 62.863281 131.734375 62.273438 131.136719 61.539062 131.136719 Z M 56.648438 143.558594 L 56.648438 167.632812 C 56.648438 168.058594 56.304688 168.390625 55.890625 168.390625 L 26.367188 168.390625 C 25.941406 168.390625 25.609375 168.050781 25.609375 167.632812 L 25.609375 138.109375 C 25.609375 137.6875 25.949219 137.351562 26.367188 137.351562 L 55.890625 137.351562 C 56.3125 137.351562 56.648438 137.695312 56.648438 138.109375 Z M 56.648438 143.558594 "/>
</g>
<path style=" stroke:none;fill-rule:nonzero;fill:rgb(0%,0%,0%);fill-opacity:1;" d="M 50.441406 155.976562 L 50.441406 144.875 C 50.441406 144.148438 49.851562 143.554688 49.117188 143.554688 L 33.132812 143.554688 C 32.40625 143.554688 31.808594 144.144531 31.808594 144.875 L 31.808594 160.867188 C 31.808594 161.59375 32.398438 162.191406 33.132812 162.191406 L 49.117188 162.191406 C 49.84375 162.191406 50.441406 161.601562 50.441406 160.867188 Z M 50.441406 155.976562 "/>
</g>
</svg>
