<svg width="20" height="20" viewBox="0 0 20 20" fill="none" xmlns="http://www.w3.org/2000/svg">
<path d="M10.2697 0.000473049C10.5138 0.0813645 10.7712 0.0667 11.0219 0.104544C12.2335 0.287614 13.3694 0.684029 14.4281 1.29899C14.5402 1.36427 14.6036 1.36522 14.6973 1.26777C15.0199 0.931907 15.3554 0.609288 15.6818 0.277207C15.8691 0.086568 16.0839 -0.00804184 16.3451 0.0884602C16.5982 0.182124 16.6909 0.39405 16.7268 0.647131C16.9473 2.20867 17.172 3.76973 17.3948 5.33079C17.4331 5.59807 17.4743 5.86534 17.5084 6.13356C17.558 6.52335 17.2392 6.83509 16.8494 6.77974C15.0143 6.51956 13.1792 6.25797 11.3436 5.99685C11.0967 5.96184 10.8961 5.85588 10.8109 5.60847C10.7239 5.35492 10.8119 5.14394 10.9978 4.96134C11.3517 4.61412 11.7013 4.26265 12.0617 3.90408C11.2774 3.56253 10.4741 3.39981 9.64382 3.40217C8.27187 3.40596 7.02199 3.80568 5.91875 4.63115C4.68874 5.55171 3.90342 6.76555 3.55239 8.26039C3.44689 8.70884 3.40479 9.16533 3.39769 9.62561C3.39012 10.1067 3.14317 10.33 2.66252 10.2675C1.93964 10.1739 1.21866 10.0641 0.497211 9.96242C0.24695 9.92694 0.121109 9.74292 0 9.55276C0 9.32617 0 9.09958 0 8.87298C0.0421045 8.44346 0.0700164 8.01393 0.161795 7.58913C0.515662 5.94954 1.23806 4.49775 2.3394 3.23235C3.49562 1.90402 4.92291 0.984416 6.58675 0.430475C7.31009 0.189693 8.05284 0.0245986 8.82207 0.019395C8.84194 0.019395 8.8585 0.0127723 8.87316 0C9.33868 0.000473049 9.80419 0.000473049 10.2697 0.000473049Z" fill="#012643"/>
<path d="M7.26888 15.43C8.17342 15.8056 9.0789 15.9711 10.0218 15.9191C11.5844 15.833 12.9345 15.2431 14.0534 14.1541C15.0469 13.1877 15.65 12.0093 15.861 10.6337C15.9069 10.3343 15.923 10.0339 15.9353 9.73207C15.9528 9.29923 16.2461 9.04615 16.6714 9.10434C17.381 9.20131 18.0902 9.30302 18.7984 9.40803C19.1613 9.46149 19.3443 9.70889 19.3283 10.1053C19.1636 14.1598 16.5451 17.6126 12.663 18.8723C11.3611 19.2948 10.0241 19.4192 8.66022 19.2687C7.32518 19.1216 6.07623 18.7181 4.91387 18.0469C4.8008 17.9816 4.73031 17.9759 4.63096 18.0804C4.30122 18.4262 3.95635 18.7583 3.62046 19.098C3.444 19.2763 3.24388 19.3728 2.9922 19.2919C2.74383 19.2115 2.62793 19.0251 2.59244 18.7735C2.43538 17.6665 2.27453 16.5596 2.11558 15.4531C2.01907 14.7814 1.92303 14.1101 1.82747 13.4384C1.81517 13.3514 1.80381 13.2634 1.80192 13.1759C1.79388 12.8078 2.08388 12.541 2.44768 12.5917C3.49935 12.7378 4.55054 12.8892 5.60173 13.0392C6.36671 13.1484 7.13168 13.2582 7.89666 13.3679C7.94019 13.3741 7.98324 13.3826 8.02676 13.3902C8.2633 13.4304 8.42935 13.5543 8.50363 13.7894C8.57838 14.0274 8.49701 14.2213 8.33095 14.3883C8.03386 14.6873 7.73534 14.9848 7.43635 15.2819C7.39188 15.3264 7.34221 15.3656 7.26888 15.43Z" fill="#012643"/>
</svg>
