<svg width="32" height="32" viewBox="0 0 32 32" fill="none" xmlns="http://www.w3.org/2000/svg">
<path d="M0 17.5586C0 16.7052 0 15.8586 0 15.0052C0.1 14.9719 0.0533333 14.8919 0.0666667 14.8252C0.153333 14.2586 0.2 13.6786 0.326667 13.1186C1.14667 9.36524 3.02667 6.2519 6.1 3.9519C10.7067 0.511904 15.8 -0.254762 21.16 1.78524C28.8667 4.71857 32.84 13.0452 30.44 20.8919C28.6467 26.7319 23.5133 30.9986 17.38 31.7386C17.16 31.7652 16.92 31.7119 16.72 31.8452C15.9267 31.8452 15.14 31.8452 14.3467 31.8452C14.32 31.7652 14.2533 31.7919 14.1933 31.7852C13.52 31.7252 12.8467 31.6252 12.1867 31.4786C5.86667 30.0586 1.1 24.9252 0.16 18.5186C0.113333 18.1986 0.133333 17.8652 0 17.5586ZM16.5867 20.3119C14.5 19.0986 12.86 17.4719 11.6267 15.4252C11.5267 15.2652 11.5933 15.2319 11.72 15.1719C12.0933 14.9986 12.4667 14.8186 12.84 14.6319C13.5133 14.3052 13.6933 13.8186 13.38 13.1386C12.7067 11.6986 12.3733 10.1786 12.3467 8.5919C12.3333 7.90524 11.9533 7.5319 11.26 7.5319C10.1467 7.5319 9.03333 7.5319 7.92 7.5319C7.18667 7.5319 6.80667 7.92524 6.81333 8.66524C6.85333 11.5852 7.55333 14.3452 9.08667 16.8386C12.3267 22.1119 17.0667 24.8519 23.2667 25.0386C23.9067 25.0586 24.32 24.6452 24.32 24.0119C24.3267 22.8586 24.3267 21.7052 24.32 20.5452C24.32 19.9186 23.9267 19.5186 23.3 19.5119C21.68 19.4919 20.1333 19.1452 18.6667 18.4586C18.04 18.1652 17.5467 18.3586 17.24 18.9786C17.02 19.4052 16.8067 19.8452 16.5867 20.3119Z" fill="#00B771"/>
<path d="M16.5858 20.3119C16.8124 19.8452 17.0191 19.4119 17.2324 18.9719C17.5391 18.3519 18.0391 18.1585 18.6591 18.4519C20.1324 19.1385 21.6724 19.4852 23.2924 19.5052C23.9191 19.5119 24.3124 19.9119 24.3124 20.5385C24.3191 21.6919 24.3191 22.8452 24.3124 24.0052C24.3124 24.6385 23.8991 25.0519 23.2591 25.0319C17.0591 24.8452 12.3191 22.1052 9.07908 16.8319C7.54575 14.3452 6.84575 11.5852 6.80575 8.65854C6.79908 7.91854 7.17908 7.52521 7.91242 7.52521C9.02575 7.52521 10.1391 7.52521 11.2524 7.52521C11.9457 7.52521 12.3258 7.89854 12.3391 8.58521C12.3658 10.1719 12.6991 11.6919 13.3724 13.1319C13.6858 13.8119 13.5058 14.2985 12.8324 14.6252C12.4591 14.8052 12.0858 14.9919 11.7124 15.1652C11.5858 15.2252 11.5191 15.2585 11.6191 15.4185C12.8591 17.4652 14.4991 19.0985 16.5858 20.3119Z" fill="#FDFDFD"/>
</svg>
