<svg width="12" height="13" viewBox="0 0 12 13" fill="none" xmlns="http://www.w3.org/2000/svg">
<path d="M10.2662 8.15543C8.49811 8.35168 6.73002 8.54807 4.96177 8.74431C4.9039 8.70665 4.87979 8.64387 4.84603 8.58887C4.43535 7.91973 4.02226 7.25194 3.61701 6.57951C3.51212 6.40554 3.37528 6.24756 3.32178 6.04519C3.89341 5.19804 4.46489 4.35074 5.03667 3.50359C5.48879 2.83371 5.94122 2.16412 6.39349 1.49438C6.42951 1.50993 6.4387 1.5455 6.45588 1.57539C6.76046 2.10374 7.06413 2.63253 7.37022 3.15998C7.77472 3.85692 8.18117 4.55296 8.58673 5.2493C8.99891 5.957 9.41245 6.66381 9.82252 7.3727C9.97263 7.63232 10.1393 7.88296 10.2662 8.15543Z" fill="#FFE100"/>
<path d="M10.2664 8.1554C10.1394 7.88278 9.97282 7.63228 9.82256 7.37267C9.41249 6.66377 8.99895 5.95697 8.58677 5.24927C8.18121 4.55293 7.77476 3.85704 7.37026 3.15995C7.06417 2.6325 6.7605 2.1037 6.45592 1.57536C6.43874 1.54547 6.42955 1.50974 6.39353 1.49435C6.38388 1.32187 6.33762 1.15223 6.38117 0.976018C6.47687 0.589511 6.77482 0.298958 7.15023 0.24007C7.54704 0.177744 7.92019 0.345739 8.12485 0.694432C8.70839 1.6882 9.28725 2.68451 9.86747 3.67992C10.5048 4.77338 11.1406 5.86789 11.7799 6.9603C11.9186 7.19735 12.0392 7.43425 11.9882 7.72196C11.9225 8.09397 11.7138 8.35044 11.3574 8.47554C10.9981 8.60169 10.6748 8.51769 10.3915 8.27063C10.3487 8.23357 10.3081 8.19396 10.2664 8.1554Z" fill="#FFCC00"/>
<path d="M3.32163 6.04502C3.37513 6.24739 3.51212 6.40537 3.61686 6.57934C4.02211 7.25177 4.4352 7.91956 4.84603 8.5887C4.87979 8.6437 4.9039 8.70663 4.96177 8.74414C5.02899 8.98791 5.00231 9.05024 4.77761 9.1861C4.648 9.26442 4.52005 9.34528 4.3915 9.42509C4.24832 9.50684 4.10214 9.58412 3.96228 9.6714C3.66388 9.85778 3.35026 10.0199 3.06407 10.2256C2.90929 10.3144 2.75482 10.4041 2.59944 10.4918C2.42432 10.5907 2.31068 10.5591 2.20248 10.3923C2.1107 10.2509 2.04062 10.0956 1.92729 9.96793C1.91869 9.94357 1.91402 9.91697 1.90091 9.89544C1.66581 9.50879 1.43523 9.11929 1.19138 8.73816C1.0678 8.54491 0.975118 8.33133 0.815972 8.16079C0.771363 8.01268 0.670087 7.89565 0.593227 7.76562C0.449 7.52185 0.470853 7.42485 0.714546 7.27897C1.40463 6.86541 2.09472 6.45185 2.78481 6.03799C3.07145 5.86581 3.0713 5.86566 3.32163 6.04502Z" fill="#FFCC00"/>
<path d="M3.06396 10.2258C3.35016 10.0201 3.66378 9.85798 3.96218 9.67161C4.10188 9.58432 4.24807 9.50705 4.39139 9.42529C4.87004 10.211 5.34853 10.9969 5.82763 11.7824C5.96477 12.0074 5.94352 12.098 5.714 12.2383C5.45629 12.396 5.19828 12.5532 4.93921 12.7087C4.75746 12.8178 4.6488 12.7894 4.53607 12.607C4.04522 11.8134 3.55467 11.0196 3.06396 10.2258Z" fill="#FFE100"/>
<path d="M0.815963 8.16089C0.975109 8.33142 1.06779 8.545 1.19137 8.73826C1.43522 9.11938 1.6658 9.50888 1.9009 9.89554C1.91401 9.91721 1.91869 9.94381 1.92728 9.96803C1.70091 10.1009 1.47485 10.2344 1.24819 10.3665C1.09191 10.4575 0.96471 10.4272 0.869011 10.272C0.596835 9.83037 0.325562 9.38782 0.0562486 8.94422C-0.0427659 8.78115 -0.0112681 8.65845 0.1524 8.55861C0.372583 8.42439 0.594725 8.29331 0.815963 8.16089Z" fill="#FFE100"/>
</svg>
