<?xml version="1.0" encoding="utf-8"?>
<!-- Generator: Adobe Illustrator 24.3.0, SVG Export Plug-In . SVG Version: 6.00 Build 0)  -->
<svg version="1.1" id="Layer_1" xmlns="http://www.w3.org/2000/svg" xmlns:xlink="http://www.w3.org/1999/xlink" x="0px" y="0px"
	 viewBox="0 0 136 136" style="enable-background:new 0 0 136 136;" xml:space="preserve">
<style type="text/css">
	.st0{fill:#00203F;}
	.st1{fill:#00A9DF;}
</style>
<g>
	<g>
		<path class="st0" d="M46.11,37.82c0.74,1.43,0.68,2.91,0.68,4.39c0,17.18,0,34.36-0.01,51.53c0,0.72,0.2,1.2,0.83,1.59
			c1.3,0.8,2.56,1.66,3.81,2.54c0.48,0.34,0.88,0.33,1.38,0.07c1.99-1.02,4.01-1.99,6-3.02c1.64-0.86,3.19-0.78,4.71,0.28
			c1.29,0.9,2.62,1.74,3.92,2.63c0.42,0.29,0.75,0.28,1.17,0c1.34-0.92,2.7-1.8,4.04-2.71c1.41-0.96,2.87-1.06,4.39-0.29
			c2.06,1.04,4.14,2.06,6.19,3.11c0.5,0.26,0.89,0.27,1.38-0.08c1.29-0.91,2.6-1.77,3.93-2.62c0.52-0.33,0.74-0.75,0.71-1.36
			c-0.04-0.76-0.02-1.53-0.01-2.29c0.02-1.07,0.73-1.8,1.72-1.79c0.99,0,1.69,0.73,1.71,1.81c0.02,0.96,0.02,1.91,0,2.87
			c-0.03,1.35-0.57,2.47-1.68,3.24c-1.63,1.13-3.27,2.24-4.94,3.3c-1.29,0.82-2.66,0.83-4.02,0.16c-2.09-1.04-4.18-2.07-6.26-3.14
			c-0.53-0.27-0.94-0.26-1.44,0.1c-1.27,0.9-2.57,1.73-3.86,2.6c-1.65,1.11-3.29,1.09-4.94-0.02c-1.3-0.88-2.63-1.73-3.92-2.63
			c-0.43-0.3-0.79-0.31-1.25-0.08c-2.04,1.04-4.09,2.04-6.13,3.08c-1.62,0.83-3.14,0.75-4.65-0.3c-1.39-0.97-2.81-1.89-4.23-2.82
			c-1.37-0.9-2.01-2.15-2.01-3.8c0.02-7.84,0-15.67,0.02-23.51c0-0.62-0.13-0.79-0.77-0.78c-1.28,0.02-2.57,0.14-3.84-0.23
			c-2.7-0.8-4.57-3.17-4.57-5.99c-0.02-7.69-0.02-15.39,0-23.08c0.01-3.54,2.84-6.23,6.48-6.24c14.43-0.01,28.86,0,43.29,0
			c0.5,0,1,0.05,1.5,0.13c3.92,0.58,7.04,4.05,7.2,8.03c0.04,0.88,0.03,1.77,0.01,2.65c-0.02,1.05-0.78,1.81-1.74,1.8
			c-0.96-0.02-1.66-0.78-1.69-1.85c-0.03-1.05,0.1-2.1-0.11-3.14c-0.47-2.37-2.49-4.15-4.9-4.15c-12.61-0.02-25.23-0.01-37.84-0.01
			C46.33,37.78,46.28,37.8,46.11,37.82z"/>
		<path class="st0" d="M58.82,43.5c1.67,0,3.34-0.01,5.01,0c1.1,0.01,1.84,0.67,1.87,1.65c0.03,1-0.73,1.78-1.83,1.78
			c-3.36,0.02-6.73,0.02-10.09,0c-1.1-0.01-1.86-0.78-1.83-1.77c0.03-0.98,0.77-1.65,1.86-1.66C55.48,43.5,57.15,43.5,58.82,43.5z"
			/>
		<path class="st0" d="M56.51,52.83c-0.91,0-1.81,0.01-2.72,0c-1.07-0.01-1.82-0.71-1.84-1.69c-0.02-1,0.75-1.74,1.85-1.75
			c1.81-0.01,3.63-0.01,5.44,0c1.11,0.01,1.88,0.73,1.88,1.72c0,1-0.77,1.7-1.89,1.71C58.32,52.84,57.42,52.83,56.51,52.83z"/>
		<path class="st0" d="M60.57,86.56c-0.96,0.01-1.73-0.75-1.73-1.7c0-0.95,0.79-1.73,1.74-1.72c0.92,0.01,1.68,0.77,1.7,1.68
			C62.29,85.78,61.53,86.56,60.57,86.56z"/>
		<path class="st0" d="M54.74,86.49c-0.91-0.02-1.62-0.75-1.6-1.66c0.02-0.92,0.81-1.66,1.73-1.63c0.89,0.04,1.62,0.8,1.6,1.68
			C56.46,85.82,55.71,86.51,54.74,86.49z"/>
	</g>
	<path class="st1" d="M81.74,48.1C70.7,48.11,61.7,57.12,61.7,68.18c0,11.05,9.01,20.06,20.05,20.07c11.05,0,20.07-8.99,20.09-20.04
		C101.86,57.13,92.83,48.1,81.74,48.1z M77.82,72.64l-1.57-1.75v-2.64h1.77c0.22,0,0.51-0.02,0.85-0.05
		c0.34-0.03,0.68-0.1,1.02-0.21c0.34-0.11,0.65-0.26,0.93-0.47c0.28-0.2,0.47-0.48,0.57-0.83h-5.73l1.19-2.64h4.53
		c-0.1-0.32-0.27-0.57-0.53-0.75c-0.26-0.18-0.56-0.32-0.91-0.41c-0.35-0.09-0.75-0.15-1.19-0.17c-0.44-0.02-0.89-0.04-1.36-0.04
		h-1.73l1.19-2.64h11.43l-1.19,2.64h-2.73c0.14,0.16,0.27,0.36,0.39,0.62c0.13,0.25,0.21,0.5,0.25,0.76h3.28l-1.19,2.64h-2.09
		c-0.1,0.57-0.29,1.09-0.59,1.56c-0.3,0.47-0.67,0.87-1.12,1.21c-0.45,0.34-0.95,0.62-1.52,0.83c-0.57,0.21-1.16,0.34-1.79,0.4
		l6.5,6.85h-4.23L77.82,72.64"/>
</g>
</svg>
