<svg width="27" height="26" viewBox="0 0 27 26" fill="none" xmlns="http://www.w3.org/2000/svg">
<g clip-path="url(#clip0_111_1089)">
<path d="M11.9154 6.34949C14.9293 6.34949 17.9422 6.34609 20.9561 6.35063C22.3364 6.3529 23.3925 7.18379 23.7286 8.50731C23.8548 9.00675 23.8004 9.51528 23.8167 10.0215C23.8232 10.2327 23.6786 10.1691 23.5796 10.1702C22.5876 10.1736 21.5957 10.1873 20.6048 10.168C19.6955 10.1509 18.8156 10.2542 18.0096 10.7287C16.4651 11.6368 15.6385 13.0205 15.5841 14.8695C15.5591 15.7231 15.5058 16.5847 15.6189 17.4337C15.9496 19.9253 17.8215 21.6222 20.2306 21.637C21.327 21.6438 22.4245 21.6495 23.5209 21.6302C23.7873 21.6256 23.8298 21.713 23.8221 21.9605C23.8047 22.4667 23.8385 22.9753 23.684 23.4679C23.2979 24.7006 22.2428 25.46 20.8974 25.4611C16.625 25.4623 12.3527 25.4611 8.08028 25.4611C6.34436 25.4611 4.60952 25.4657 2.8736 25.46C1.50314 25.4543 0.433957 24.6132 0.100042 23.2965C0.028256 23.015 0.00976562 22.7289 0.00976562 22.4395C0.0108533 18.0796 0.00976562 13.7208 0.0108533 9.3609C0.0108533 7.56632 1.17466 6.3529 2.90297 6.35176C5.90712 6.34722 8.91126 6.34949 11.9154 6.34949Z" fill="white"/>
<path d="M21.9788 12.0827C22.5694 12.0827 23.1611 12.077 23.7517 12.0838C25.22 12.1008 26.3382 13.0725 26.5263 14.5844C26.634 15.4494 26.6318 16.3404 26.5274 17.2054C26.3479 18.7003 25.2396 19.6946 23.7897 19.7219C22.589 19.7434 21.3871 19.7457 20.1863 19.7219C18.5526 19.6901 17.4029 18.4494 17.4095 16.7411C17.4127 15.976 17.3388 15.2076 17.4573 14.4471C17.6618 13.1349 18.7288 12.1462 20.0046 12.0963C20.6616 12.0702 21.3196 12.0917 21.9777 12.0917C21.9788 12.0895 21.9788 12.0861 21.9788 12.0827ZM21.064 14.9522C20.5659 14.9545 20.1547 15.3824 20.1526 15.8989C20.1515 16.4131 20.5648 16.8512 21.0575 16.858C21.56 16.8648 21.9886 16.4165 21.9831 15.8898C21.9777 15.371 21.5655 14.9499 21.064 14.9522Z" fill="white"/>
<path d="M7.5127 4.37671C8.76787 3.7649 10.022 3.15308 11.2771 2.54126C12.5073 1.94079 13.7363 1.33806 14.9687 0.743268C16.6513 -0.0694618 18.3785 0.748943 18.9039 2.60483C19.0572 3.1474 19.1975 3.69338 19.3585 4.23256C19.4118 4.41304 19.3705 4.44482 19.2019 4.44368C18.3154 4.43574 17.429 4.44028 16.5425 4.44028C13.6265 4.44028 10.7094 4.44028 7.79331 4.44028C7.70195 4.44028 7.61059 4.44028 7.52031 4.44028C7.51813 4.41871 7.51487 4.39714 7.5127 4.37671Z" fill="white"/>
</g>
<defs>
<clipPath id="clip0_111_1089">
<rect width="26.5968" height="25.0323" fill="white" transform="translate(0.00976562 0.430054)"/>
</clipPath>
</defs>
</svg>
