<?xml version="1.0" encoding="utf-8"?>
<!-- Generator: Adobe Illustrator 24.3.0, SVG Export Plug-In . SVG Version: 6.00 Build 0)  -->
<svg version="1.1" id="Layer_1" xmlns="http://www.w3.org/2000/svg" xmlns:xlink="http://www.w3.org/1999/xlink" x="0px" y="0px"
	 viewBox="0 0 136 136" style="enable-background:new 0 0 136 136;" xml:space="preserve">
<style type="text/css">
	.st0{fill:#00203A;}
	.st1{fill:#3AB1E2;}
</style>
<g>
	<path class="st0" d="M102.94,85.68c-0.25,0.12-0.21,0.38-0.27,0.58c-0.77,2.49-3.08,4.25-5.69,4.33c-0.18,0.01-0.36,0.01-0.55,0.01
		c-18.97,0-37.93,0-56.9,0c-3.1,0-5.49-1.75-6.26-4.56c-0.16-0.57-0.22-1.16-0.22-1.75c0-10.85,0-21.7,0-32.54
		c0-3.66,2.67-6.32,6.33-6.32c19.06-0.01,38.11,0,57.17,0c3.09,0,5.39,1.76,6.21,4.72c0.03,0.12-0.03,0.29,0.16,0.33
		C102.94,62.2,102.94,73.94,102.94,85.68z M68.07,67.22c-10.08,0-20.15,0.01-30.23-0.01c-0.57,0-0.7,0.14-0.7,0.7
		c0.02,5.39,0.01,10.78,0.01,16.17c0,1.63,0.78,2.42,2.42,2.42c18.95,0,37.9,0,56.85,0c1.64,0,2.42-0.78,2.42-2.42
		c0-5.39-0.01-10.78,0.01-16.17c0-0.56-0.13-0.7-0.7-0.7C88.13,67.22,78.1,67.22,68.07,67.22z M67.93,63.12c0.91,0,1.82,0,2.73,0
		c9.16,0,18.33-0.01,27.49,0.01c0.56,0,0.73-0.13,0.71-0.7c-0.05-1.25-0.05-2.5,0-3.75c0.03-0.63-0.16-0.77-0.77-0.76
		c-15.85,0.02-31.7,0.01-47.55,0.01c-4.28,0-8.55,0.01-12.83-0.01c-0.42,0-0.58,0.08-0.57,0.55c0.04,1.3,0.05,2.59,0,3.89
		c-0.02,0.62,0.14,0.78,0.77,0.78C47.92,63.12,57.92,63.12,67.93,63.12z M67.93,53.84c9.71,0,19.42,0,29.14,0
		c0.56,0,1.31,0.19,1.65-0.1c0.39-0.33,0.12-1.11,0.13-1.69c0.02-1.82-0.72-2.55-2.56-2.55c-18.86,0-37.71,0-56.57,0
		c-0.16,0-0.32,0-0.48,0c-1.2,0.03-2.05,0.88-2.08,2.07c-0.01,0.5,0.04,1.01-0.01,1.5c-0.06,0.61,0.13,0.78,0.76,0.78
		C47.92,53.83,57.92,53.84,67.93,53.84z"/>
	<path class="st1" d="M88.21,72.27c1.45,0,2.91-0.01,4.36,0c1.33,0.01,2.17,0.85,2.17,2.17c0.01,1.95,0.01,3.91,0,5.86
		c-0.01,1.31-0.86,2.19-2.17,2.2c-2.93,0.02-5.86,0.02-8.79,0c-1.28-0.01-2.13-0.89-2.13-2.16c-0.01-1.98-0.01-3.95,0-5.93
		c0.01-1.29,0.84-2.13,2.13-2.14C85.26,72.26,86.73,72.28,88.21,72.27z M88.2,76.37c-0.32,0-0.63,0-0.95,0c-1.55,0-1.54,0-1.51,1.56
		c0.01,0.37,0.09,0.51,0.49,0.5c0.97-0.03,1.95-0.01,2.92-0.01c1.6,0,1.59,0,1.52-1.64c-0.01-0.33-0.1-0.43-0.42-0.42
		C89.56,76.38,88.88,76.37,88.2,76.37z"/>
	<path class="st1" d="M46.43,82.58c-0.82,0-1.64,0.01-2.45,0c-1.23-0.03-2.12-0.89-2.12-2.03c0-1.11,0.85-2.02,2.04-2.05
		c1.68-0.04,3.36-0.04,5.04,0c1.23,0.03,2.07,0.94,2.04,2.1c-0.03,1.13-0.88,1.95-2.09,1.98C48.07,82.6,47.25,82.58,46.43,82.58z"/>
	<path class="st1" d="M58.47,82.58c-0.8,0-1.59,0.01-2.39,0c-1.23-0.03-2.12-0.89-2.13-2.02c-0.01-1.1,0.86-2.02,2.04-2.05
		c1.68-0.04,3.37-0.04,5.05,0c1.22,0.03,2.08,0.96,2.05,2.1c-0.03,1.12-0.89,1.94-2.09,1.98c-0.05,0-0.09,0-0.14,0
		C60.06,82.58,59.27,82.58,58.47,82.58z"/>
</g>
</svg>
