<?xml version="1.0" encoding="utf-8"?>
<!-- Generator: Adobe Illustrator 24.3.0, SVG Export Plug-In . SVG Version: 6.00 Build 0)  -->
<svg version="1.1" id="Layer_1" xmlns="http://www.w3.org/2000/svg" xmlns:xlink="http://www.w3.org/1999/xlink" x="0px" y="0px"
	 viewBox="0 0 136 136" style="enable-background:new 0 0 136 136;" xml:space="preserve">
<style type="text/css">
	.st0{fill:#3AB1E2;}
	.st1{fill:#00203A;}
</style>
<g>
	<g>
		<path class="st0" d="M29.63,54.41c0.37-0.71,0.97-1.16,1.64-1.57c10.74-6.6,21.48-13.2,32.2-19.82c0.95-0.59,1.8-0.59,2.75-0.01
			c10.86,6.7,21.74,13.39,32.61,20.08c1.26,0.78,1.61,2.02,0.88,3.08c-0.36,0.52-0.85,0.83-1.48,0.87c-0.3,0.02-0.6,0.02-0.89,0.02
			c-21.6,0-43.19-0.01-64.79,0.02c-1.27,0-2.28-0.25-2.91-1.43C29.63,55.24,29.63,54.83,29.63,54.41z M64.86,48.79
			c0.46,0,0.92,0.01,1.38,0c1.16-0.03,2.03-0.85,2.07-1.95c0.04-1.14-0.77-2.09-1.95-2.15c-1.01-0.06-2.02-0.06-3.02,0
			c-1.17,0.07-1.98,1.02-1.93,2.17c0.05,1.1,0.92,1.92,2.08,1.94C63.94,48.8,64.4,48.79,64.86,48.79z"/>
		<path class="st0" d="M29.63,95c0.44-1.26,1.34-1.67,2.63-1.67c21.75,0.02,21.5,0.01,43.25,0.01c1.8,0,2.55,0.74,2.55,2.53
			c0,1.51-0.04,3.03,0.01,4.54c0.05,1.28-0.45,2.13-1.66,2.57c-22.43,0-22.85,0-45.28,0c-0.68-0.33-1.18-0.84-1.51-1.51
			C29.63,99.31,29.63,97.16,29.63,95z"/>
		<path class="st0" d="M64.92,61.19c9.84,0,19.67,0.01,29.51-0.01c0.6,0,0.83,0.12,0.76,0.75c-0.06,0.5,0.01,1.01-0.03,1.51
			c-0.08,1.06-0.87,1.81-1.93,1.88c-0.16,0.01-0.32,0.01-0.48,0.01c-18.59,0-37.19,0-55.78,0c-1.3,0-2.15-0.54-2.36-1.55
			c-0.09-0.47-0.07-0.96-0.07-1.44c-0.01-1.14,0-1.14,1.16-1.14C45.43,61.19,55.18,61.19,64.92,61.19z"/>
		<path class="st0" d="M52.89,79.25c0-3.07,0.01-6.14-0.01-9.21c0-0.49,0.14-0.61,0.61-0.6c2.36,0.02,4.72,0.03,7.08,0
			c0.51-0.01,0.59,0.18,0.59,0.63c-0.01,6.21-0.01,12.41,0,18.62c0,0.47-0.14,0.56-0.57,0.55c-2.38-0.02-4.76-0.02-7.15,0
			c-0.46,0-0.56-0.14-0.56-0.57C52.9,85.52,52.89,82.38,52.89,79.25z"/>
		<path class="st0" d="M68.55,79.32c0-3.09,0.01-6.18-0.01-9.28c0-0.47,0.1-0.62,0.6-0.62c2.36,0.03,4.72,0.03,7.08,0
			c0.49-0.01,0.6,0.14,0.6,0.62c-0.02,6.21-0.02,12.41,0,18.62c0,0.46-0.13,0.57-0.57,0.56c-2.38-0.02-4.76-0.02-7.15,0
			c-0.45,0-0.56-0.12-0.56-0.56C68.56,85.55,68.55,82.44,68.55,79.32z"/>
		<path class="st0" d="M37.28,79.37c0-3.09,0.01-6.19-0.01-9.28c0-0.51,0.12-0.66,0.64-0.65c2.34,0.03,4.68,0.03,7.01,0
			c0.47,0,0.62,0.11,0.62,0.6c-0.02,6.21-0.02,12.42,0,18.64c0,0.47-0.15,0.56-0.58,0.56c-2.38-0.02-4.77-0.03-7.15,0
			c-0.49,0.01-0.54-0.17-0.54-0.59C37.29,85.56,37.28,82.46,37.28,79.37z"/>
	</g>
	<g>
		<path class="st1" d="M93.49,91.68c1.49,0,2.99-0.01,4.48,0c1.19,0.01,2.12,0.96,2.1,2.13c-0.02,1.13-0.91,2.05-2.05,2.06
			c-1.52,0.01-3.04,0-4.56,0c-0.15,0-0.3,0-0.41,0.13c-0.11,0.14-0.14,0.29-0.07,0.47c0.07,0.16,0.2,0.24,0.37,0.24
			c1.62,0,3.24,0.06,4.85-0.02c2.17-0.11,3.4-2.55,2.28-4.42c-0.1-0.17-0.09-0.25,0.04-0.39c0.83-0.81,1.64-1.65,2.47-2.46
			c1-0.98,2.64-0.71,3.2,0.52c0.34,0.76,0.16,1.47-0.27,2.13c-0.34,0.53-0.72,1.03-1.07,1.55c-0.84,1.21-1.67,2.41-2.51,3.62
			c-0.67,0.97-1.53,1.67-2.71,1.91c-0.31,0.06-0.62,0.08-0.94,0.08c-2.4,0-4.79,0-7.19,0.01c-0.11,0-0.18-0.04-0.25-0.11
			c-1.85-1.86-3.71-3.71-5.56-5.56c-0.06-0.06-0.17-0.1-0.05-0.22c0.77-0.77,1.62-1.41,2.73-1.6c0.28-0.05,0.57-0.07,0.86-0.07
			C90.66,91.68,92.07,91.68,93.49,91.68C93.49,91.68,93.49,91.68,93.49,91.68z"/>
		<path class="st1" d="M88.31,103.42c-0.17,0-0.28-0.12-0.4-0.23c-1.66-1.66-3.31-3.31-4.97-4.97c-0.51-0.51-1.03-1.03-1.54-1.54
			c-0.3-0.3-0.3-0.48-0.01-0.78c0.78-0.79,1.57-1.57,2.35-2.36c0.27-0.27,0.47-0.27,0.74,0c2.19,2.19,4.38,4.37,6.56,6.56
			c0.28,0.28,0.28,0.47-0.01,0.76c-0.78,0.79-1.57,1.57-2.35,2.36C88.59,103.34,88.48,103.43,88.31,103.42z"/>
	</g>
	<path class="st1" d="M93.79,71.3c-4.59-0.01-8.35,3.73-8.36,8.31c-0.01,4.61,3.73,8.37,8.34,8.38c4.6,0.01,8.34-3.72,8.36-8.32
		C102.14,75.07,98.4,71.31,93.79,71.3z M95.15,77.37c0.06,0.12,0.1,0.25,0.12,0.37h1.62l-0.59,1.3h-1.03
		c-0.05,0.28-0.15,0.54-0.29,0.77c-0.15,0.23-0.33,0.43-0.55,0.6c-0.22,0.17-0.47,0.3-0.75,0.41c-0.28,0.1-0.57,0.17-0.88,0.2
		L96,84.4h-2.09l-2.96-3.29v-1.3h0.87c0.11,0,0.25-0.01,0.42-0.02c0.17-0.02,0.34-0.05,0.5-0.1c0.17-0.05,0.32-0.13,0.46-0.23
		c0.14-0.1,0.23-0.24,0.28-0.41h-2.83l0.59-1.3h2.23c-0.05-0.16-0.13-0.28-0.26-0.37c-0.13-0.09-0.28-0.16-0.45-0.2
		c-0.18-0.05-0.37-0.07-0.59-0.09c-0.22-0.01-0.44-0.02-0.67-0.02h-0.85l0.59-1.3h5.64l-0.59,1.3h-1.35
		C95.02,77.14,95.09,77.24,95.15,77.37z"/>
</g>
</svg>
