<?xml version="1.0" encoding="utf-8"?>
<!-- Generator: Adobe Illustrator 24.3.0, SVG Export Plug-In . SVG Version: 6.00 Build 0)  -->
<svg version="1.1" id="Layer_1" xmlns="http://www.w3.org/2000/svg" xmlns:xlink="http://www.w3.org/1999/xlink" x="0px" y="0px"
	 viewBox="0 0 136 136" style="enable-background:new 0 0 136 136;" xml:space="preserve">
<style type="text/css">
	.st0{fill:#3BB1E2;}
	.st1{fill:#00203A;}
	.st2{fill:#FFFFFF;}
	.st3{fill:#3AB1E2;}
</style>
<g>
	<g>
		<g>
			<path class="st0" d="M46,93.59c0.07,0.09,0.1,0.19-0.04,0.32c-0.9,0.8-1.59,1.85-2.7,2.42c-0.37,0.19-0.78,0.28-1.21,0.24
				c-1.11-0.08-1.99-0.58-2.46-1.61c-0.5-1.09-0.37-2.16,0.4-3.08c0.55-0.66,1.21-1.22,1.8-1.84c0.2-0.21,0.35-0.29,0.58-0.1
				c-1.67-1.92-2.91-3.72-3.73-5.02c0,0.2-0.11,0.38-0.34,0.59c-0.76,0.7-1.47,1.46-2.2,2.2c-3.3,3.33-3.36,8.55-0.13,11.93
				c3.2,3.35,8.48,3.52,11.93,0.36c0.83-0.76,1.64-1.55,2.39-2.39c0.32-0.36,0.59-0.44,0.91-0.34C49.26,96.18,47.53,94.91,46,93.59z
				"/>
		</g>
		<path class="st0" d="M80.19,71.74c-0.27-0.34-0.26-0.62-0.01-1.07c3.66-6.76,7.31-13.53,10.95-20.3c0.22-0.41,0.35-0.72,0.98-0.5
			c1.22,0.43,2.49,0.44,3.77,0.23c4.76-0.8,7.87-5.38,6.9-10.2c-0.93-4.61-5.66-7.6-10.32-6.52c-4.55,1.06-7.49,5.95-6.25,10.48
			c0.18,0.65,0.01,0.91-0.53,1.2c-6.72,3.6-13.44,7.21-20.14,10.85c-0.51,0.28-0.81,0.27-1.17-0.02l4.61,4.61
			c4.79-2.58,9.47-5.1,14.14-7.61c0.19,0.17,0.05,0.29-0.02,0.4c-2.38,4.42-4.76,8.85-7.15,13.26c-0.11,0.2-0.12,0.78-0.61,0.3
			 M94.46,38.86c1.55,0.02,2.79,1.27,2.79,2.83c0,1.59-1.3,2.87-2.88,2.85c-1.55-0.02-2.8-1.3-2.8-2.84
			C91.57,40.12,92.87,38.85,94.46,38.86z"/>
		<path class="st1" d="M80.14,71.57c-0.07-0.07-0.12-0.13-0.17-0.19L64.1,55.51c-0.06-0.05-0.13-0.11-0.19-0.18
			c-5.24-5.28-10.51-10.54-15.78-15.79c-1.42-1.42-3.06-1.42-4.44,0.01c-6.83,7.06-10.4,15.52-10.62,25.32
			c-0.16,6.93,1.59,13.42,5.12,19.4c0.05,0.08,0.08,0.15,0.11,0.21c0.88,1.47,2.46,3.83,4.73,6.31c0.73,0.74,1.47,1.47,2.2,2.21
			c1.62,1.5,3.5,2.95,5.64,4.19c0.15,0.03,0.31,0.11,0.49,0.21c0.6,0.35,1.2,0.68,1.81,1c0.11,0.06,0.23,0.12,0.33,0.17
			c5.16,2.61,10.72,3.87,16.72,3.93c1.31-0.05,2.79-0.1,4.27-0.29c8.37-1.04,15.55-4.55,21.58-10.42c0.64-0.63,1.01-1.37,0.97-2.3
			c-0.04-0.93-0.54-1.59-1.17-2.22C90.63,82.04,85.4,76.79,80.14,71.57z M89.34,90.13c-5.65,4.21-12.36,6.49-19.52,6.56
			c-14.51,0.13-27.2-10.08-30.22-24.44c-2.01-9.55,0.02-18.26,5.84-26.1c0.48-0.64,0.7-0.58,1.23-0.06
			c14.32,14.19,28.58,28.44,42.77,42.76C89.99,89.43,89.99,89.65,89.34,90.13z"/>
	</g>
	<g>
		<circle class="st2" cx="88.81" cy="88.7" r="9.36"/>
		<path class="st3" d="M88.81,74.57c-7.81,0-14.13,6.33-14.13,14.13s6.33,14.13,14.13,14.13c7.81,0,14.13-6.33,14.13-14.13
			S96.61,74.57,88.81,74.57z M90.93,84.95c0.09,0.18,0.15,0.36,0.18,0.55h2.37l-0.86,1.91h-1.51c-0.07,0.41-0.21,0.79-0.43,1.13
			c-0.22,0.34-0.48,0.63-0.81,0.88c-0.32,0.25-0.69,0.45-1.1,0.6c-0.41,0.15-0.84,0.25-1.29,0.29l4.69,4.95h-3.05l-4.33-4.81v-1.91
			h1.28c0.16,0,0.36-0.01,0.61-0.03c0.25-0.02,0.49-0.07,0.74-0.15c0.24-0.08,0.47-0.19,0.67-0.34c0.2-0.15,0.34-0.35,0.41-0.6
			h-4.14l0.86-1.91h3.27c-0.07-0.23-0.2-0.41-0.38-0.54c-0.18-0.13-0.4-0.23-0.66-0.3c-0.26-0.07-0.54-0.11-0.86-0.12
			c-0.32-0.02-0.64-0.03-0.98-0.03h-1.25l0.86-1.91h8.25l-0.86,1.91h-1.97C90.75,84.62,90.84,84.77,90.93,84.95z"/>
	</g>
</g>
</svg>
