<?xml version="1.0" encoding="utf-8"?>
<!-- Generator: Adobe Illustrator 24.3.0, SVG Export Plug-In . SVG Version: 6.00 Build 0)  -->
<svg version="1.1" id="Layer_1" xmlns="http://www.w3.org/2000/svg" xmlns:xlink="http://www.w3.org/1999/xlink" x="0px" y="0px"
	 viewBox="0 0 136 136" style="enable-background:new 0 0 136 136;" xml:space="preserve">
<style type="text/css">
	.st0{fill:#151F38;}
	.st1{fill:#00A9DF;}
</style>
<g>
	<path class="st0" d="M54.03,28.09c7.67,7.7,15.35,15.4,23.01,23.11c0.35,0.35,0.52,0.32,0.85-0.01c2.31-2.34,4.64-4.67,6.98-6.98
		c0.28-0.28,0.33-0.49,0.19-0.89c-1.5-4.14,0.7-8.43,4.99-9.45c2.92-0.7,5.44,0.23,7.26,2.64c1.72,2.27,1.97,4.81,0.69,7.35
		c-1.72,3.44-5.34,4.8-8.93,3.49c-0.35-0.13-0.55-0.11-0.82,0.16c-2.35,2.37-4.71,4.74-7.1,7.08c-0.44,0.43-0.12,0.6,0.13,0.85
		c6.03,6.03,12.06,12.06,18.09,18.09c1.62,1.62,3.24,3.23,4.86,4.85c-5.29,5.78-11.63,9.67-19.29,11.31
		c-5.12,1.1-10.23,1.09-15.34-0.09c-0.61-0.14-0.85-0.12-0.67,0.62c0.33,1.32,0.61,2.66,0.84,4.01c0.08,0.45,0.25,0.54,0.66,0.53
		c1.08-0.02,2.16,0,3.24-0.01c0.31,0,0.53,0.04,0.69,0.36c2.27,4.58,4.56,9.15,6.88,13.8c-15.18,0-30.29,0-45.4,0
		c-0.08-0.2,0.07-0.34,0.15-0.5c2.18-4.37,4.37-8.73,6.53-13.11c0.22-0.45,0.49-0.58,0.97-0.56c1.03,0.04,2.05-0.01,3.08,0.02
		c0.4,0.01,0.55-0.13,0.63-0.5c1.06-5.2,2.12-10.4,3.2-15.59c0.1-0.48-0.07-0.78-0.36-1.12c-4.31-5.21-6.98-11.19-7.78-17.89
		c-1.4-11.63,2.03-21.69,10.25-30.08c0.47-0.48,1.03-0.88,1.36-1.49C53.92,28.09,53.98,28.09,54.03,28.09z M54,34.88
		c-0.05,0.08-0.11,0.2-0.19,0.3c-3.89,4.73-6.22,10.11-6.94,16.2c-0.53,4.49-0.1,8.88,1.32,13.15c2.09,6.33,5.85,11.48,11.27,15.38
		c6.81,4.9,14.43,6.68,22.69,5.47c5.46-0.8,10.35-3.01,14.67-6.48c0.6-0.48,0.53-0.7,0.04-1.19C85.3,66.15,73.76,54.58,62.2,43.02
		C59.5,40.32,56.79,37.64,54,34.88z M43.4,104.19c10.09,0,20.1,0,30.19,0c-0.65-1.3-1.3-2.55-1.88-3.83
		c-0.29-0.64-0.65-0.9-1.4-0.89c-5.37,0.04-10.73,0.02-16.1,0.02c-2.63,0-5.26,0-7.89,0c-0.27,0-0.54-0.08-0.72,0.3
		C44.9,101.25,44.16,102.69,43.4,104.19z M54.53,82.09c-0.86,4.16-1.69,8.22-2.53,12.28c-0.09,0.45,0.18,0.39,0.45,0.39
		c4.05,0,8.1-0.01,12.15,0.01c0.42,0,0.45-0.11,0.37-0.49c-0.45-2.05-0.87-4.11-1.28-6.17c-0.06-0.3-0.18-0.47-0.44-0.58
		C60.11,86.16,57.25,84.37,54.53,82.09z M94.01,40.78c0.02-1.3-1-2.37-2.29-2.41c-1.29-0.04-2.43,1.08-2.43,2.37
		c0,1.27,1.08,2.35,2.36,2.35C92.95,43.11,94,42.08,94.01,40.78z"/>
	<path class="st1" d="M54,34.88c2.78,2.76,5.5,5.45,8.2,8.14c11.55,11.56,23.1,23.13,34.66,34.68c0.49,0.49,0.56,0.7-0.04,1.19
		c-4.32,3.47-9.21,5.69-14.67,6.48c-8.26,1.21-15.88-0.57-22.69-5.47c-5.42-3.9-9.17-9.05-11.27-15.38
		c-1.41-4.27-1.84-8.66-1.32-13.15c0.72-6.09,3.05-11.47,6.94-16.2C53.9,35.08,53.96,34.95,54,34.88z"/>
	<path class="st1" d="M43.4,104.19c0.76-1.51,1.5-2.95,2.19-4.41c0.18-0.37,0.45-0.3,0.72-0.3c2.63,0,5.26,0,7.89,0
		c5.37,0,10.73,0.02,16.1-0.02c0.75-0.01,1.11,0.25,1.4,0.89c0.58,1.28,1.24,2.53,1.88,3.83C63.5,104.19,53.49,104.19,43.4,104.19z"
		/>
	<path class="st1" d="M94.01,40.78c-0.02,1.3-1.06,2.33-2.36,2.32c-1.28-0.01-2.35-1.08-2.36-2.35c0-1.3,1.14-2.41,2.43-2.37
		C93.01,38.41,94.03,39.47,94.01,40.78z"/>
</g>
</svg>
