<?xml version="1.0" encoding="utf-8"?>
<!-- Generator: Adobe Illustrator 24.3.0, SVG Export Plug-In . SVG Version: 6.00 Build 0)  -->
<svg version="1.1" id="Layer_1" xmlns="http://www.w3.org/2000/svg" xmlns:xlink="http://www.w3.org/1999/xlink" x="0px" y="0px"
	 viewBox="0 0 136 136" style="enable-background:new 0 0 136 136;" xml:space="preserve">
<style type="text/css">
	.st0{fill:#06213E;}
	.st1{fill:#12A9E0;}
</style>
<g>
	<rect x="32.84" y="53.07" class="st0" width="70.34" height="18.18"/>
	<g>
		<path class="st1" d="M103.17,60.72c0,8.33,0,16.67,0,25c-0.24,0.11-0.16,0.36-0.21,0.54c-0.96,3.61-3.88,5.91-7.61,5.91
			c-18.24,0.01-36.48,0.01-54.72,0c-4.41,0-7.78-3.37-7.79-7.78c-0.02-7.69-0.01-15.38,0-23.07c0-0.82,0.19-1.02,1-1.02
			c22.77,0,45.54,0,68.32-0.01C102.58,60.3,102.91,60.4,103.17,60.72z M50.42,77.93c0-0.39,0.01-0.78,0-1.16
			c-0.04-1.23-0.96-2.13-2.19-2.17c-0.39-0.01-0.78,0.02-1.16-0.01c-2.39-0.19-3.28,0.78-3.28,3.26c0,2.52,0.79,3.39,3.4,3.38
			C49.58,81.22,50.63,80.39,50.42,77.93z"/>
		<path class="st1" d="M103.17,55.5c-0.27,0.31-0.59,0.42-1.02,0.42c-22.77-0.01-45.54-0.01-68.31-0.01c-0.8,0-1.02-0.2-1-1.01
			c0.06-1.78-0.2-3.57,0.25-5.33c0.84-3.25,3.78-5.62,7.12-5.73c0.27-0.01,0.55-0.01,0.82-0.01c17.96,0,35.93,0,53.89,0
			c4.36,0,7.15,2.24,8.13,6.52c0.01,0.03,0.07,0.05,0.1,0.07C103.17,52.11,103.17,53.8,103.17,55.5z"/>
		<path class="st0" d="M50.42,77.93c0.21,2.46-0.84,3.29-3.23,3.3c-2.62,0.01-3.4-0.87-3.4-3.38c0-2.48,0.89-3.45,3.28-3.26
			c0.39,0.03,0.78,0,1.16,0.01c1.23,0.04,2.15,0.94,2.19,2.17C50.43,77.15,50.42,77.54,50.42,77.93z"/>
	</g>
	<g>
		<path class="st0" d="M69.4,72.98v2.53h4.07v2.35H69.4v2.74H74v2.44h-7.65V70.55H74v2.44H69.4z"/>
		<path class="st0" d="M90.12,70.55v12.49h-3.04v-7.49l-2.79,7.49h-2.45l-2.81-7.51v7.51h-3.04V70.55h3.59l3.5,8.65l3.47-8.65H90.12
			z"/>
		<path class="st0" d="M95.35,70.55v12.49h-3.04V70.55H95.35z"/>
	</g>
</g>
</svg>
