<svg width="11" height="10" viewBox="0 0 11 10" fill="none" xmlns="http://www.w3.org/2000/svg">
<path d="M10.6247 4.31531C10.5523 4.24531 10.4842 4.17025 10.4142 4.09758C10.0952 3.76666 9.77788 3.43365 9.45657 3.10541C9.17087 2.81351 8.74878 2.8141 8.47484 3.10064C8.20091 3.38718 8.20666 3.82057 8.48805 4.11932C8.53629 4.17055 8.58453 4.22119 8.64885 4.2888C8.3353 4.2888 8.04931 4.2888 7.7636 4.2888C6.86113 4.2888 5.95893 4.28642 5.05646 4.28999C4.58928 4.29178 4.26252 4.76269 4.40465 5.21872C4.49912 5.52223 4.75984 5.71465 5.08345 5.71495C6.22569 5.71584 7.36793 5.71525 8.51016 5.71525C8.54807 5.71525 8.58597 5.71525 8.62358 5.71525C8.62933 5.72448 8.63478 5.73371 8.64052 5.74265C8.58625 5.79388 8.5294 5.84273 8.478 5.89694C8.34965 6.03217 8.28016 6.19599 8.27471 6.38572C8.26638 6.67286 8.43436 6.94004 8.69163 7.05591C8.95322 7.17356 9.24151 7.11756 9.4537 6.89983C9.81521 6.52899 10.1738 6.15488 10.5331 5.78197C10.7137 5.59431 10.9132 5.42185 10.9994 5.15825C10.9994 5.06174 10.9994 4.96524 10.9994 4.86843C10.9382 4.6373 10.7872 4.47258 10.6247 4.31531Z" fill="#EF5350"/>
<path d="M7.29073 7.49789C7.18276 7.60095 7.07681 7.70669 6.96195 7.80111C6.4675 8.20739 5.90959 8.46117 5.28162 8.54576C4.93705 8.59223 4.59105 8.58835 4.24964 8.53831C3.89502 8.48619 3.56051 8.35364 3.24437 8.1785C2.81337 7.93962 2.42602 7.64325 2.13142 7.23101C2.0358 7.09728 1.94392 6.96056 1.85031 6.82533C1.6407 6.41309 1.46784 5.98924 1.41012 5.51952C1.34064 4.95269 1.37653 4.39987 1.55628 3.85806C1.75871 3.24775 2.09409 2.73156 2.56184 2.30622C3.70293 1.26848 5.39418 1.13772 6.67453 1.98871C6.89878 2.13763 7.09748 2.31754 7.2913 2.50549C7.55978 2.76612 7.95832 2.76612 8.22622 2.51204C8.48924 2.26274 8.5171 1.8648 8.29858 1.55979C8.21129 1.43767 8.10161 1.3364 7.99422 1.24108C6.84365 0.214959 5.51075 -0.179405 4.01476 0.0746678C2.64741 0.306997 1.58298 1.05135 0.806271 2.23325C0.336512 2.94811 0.0798096 3.74518 0.0152034 4.61046C-0.0160947 5.03103 0.000559312 5.44863 0.0686112 5.86176C0.124316 6.20072 0.208161 6.53522 0.3457 6.85124C0.350294 6.86882 0.352879 6.88728 0.359483 6.90396C0.646047 7.62716 1.07245 8.24969 1.64184 8.75903C2.75221 9.75209 4.04261 10.1473 5.49467 9.95046C6.57001 9.80451 7.48426 9.31126 8.24862 8.51657C8.51681 8.23777 8.51423 7.79337 8.24948 7.51398C7.98934 7.23965 7.56839 7.2331 7.29073 7.49789Z" fill="#EF5350"/>
</svg>
