<svg width="25" height="25" viewBox="0 0 25 25" fill="none" xmlns="http://www.w3.org/2000/svg">
<g clip-path="url(#clip0_116_1117)">
<path d="M25.0009 7.47321C24.8937 7.7448 24.8888 8.03791 24.8218 8.3188C24.1773 11.0112 21.9927 13.0365 19.2557 13.4686C15.6475 14.0382 12.1936 11.5558 11.5672 7.94347C10.9099 4.15352 13.5212 0.577892 17.3217 0.0621253C21.034 -0.441408 24.4391 2.1707 24.948 5.91074C24.9549 5.96163 24.927 6.02916 25.0009 6.05755C25.0009 6.52927 25.0009 7.00149 25.0009 7.47321ZM19.2772 7.03525C19.2772 6.35996 19.2816 5.68467 19.2757 5.00986C19.2718 4.53618 18.9782 4.19364 18.5309 4.1726C18.0684 4.15107 17.6031 4.15205 17.1401 4.17309C16.755 4.1907 16.4623 4.48333 16.4124 4.84593C16.363 5.20903 16.5808 5.55842 16.936 5.68809C17.0936 5.74583 17.2595 5.73947 17.4191 5.72332C17.6491 5.70033 17.7234 5.76883 17.72 6.01204C17.7053 7.02057 17.7151 8.02959 17.7127 9.03813C17.7122 9.22995 17.7381 9.41003 17.8551 9.56907C18.0547 9.84163 18.3973 9.95907 18.7198 9.86316C19.0452 9.76627 19.2703 9.46484 19.2747 9.0851C19.2826 8.40198 19.2772 7.71837 19.2772 7.03525Z" fill="#F34336"/>
<path d="M14.5894 20.8479C14.512 22.9981 13.1252 24.5919 11.0155 24.9535C10.9822 24.9594 10.9528 24.9642 10.9396 25C10.5653 25 10.1909 25 9.81653 25C9.75976 24.9094 9.65748 24.931 9.57723 24.9138C7.63442 24.4994 6.27985 22.8464 6.25293 20.8499C9.03158 20.8494 11.8102 20.8489 14.5894 20.8479Z" fill="#FFCC00"/>
<path d="M14.5893 20.8479C11.8106 20.8488 9.0315 20.8493 6.25285 20.8503C4.82927 20.8464 3.4052 20.8425 1.98162 20.8395C1.72813 20.839 1.47855 20.8165 1.23729 20.7329C-0.076185 20.2783 -0.433915 18.5891 0.607466 17.6671C1.78147 16.6278 2.59333 15.379 2.94813 13.8439C3.07145 13.311 3.12968 12.7713 3.1287 12.2242C3.12675 11.3047 3.12724 10.3852 3.12822 9.46576C3.13213 5.89454 5.51684 2.95604 9.00899 2.22496C9.55806 2.10997 10.1145 2.06642 10.7081 2.1085C10.6313 2.24699 10.5662 2.36492 10.5006 2.48285C7.67105 7.55879 10.4409 13.9555 16.0784 15.3599C16.8311 15.5473 17.5965 15.6422 18.3731 15.6207C18.495 15.6173 18.5825 15.628 18.6516 15.7528C19.0489 16.4727 19.5818 17.0814 20.1936 17.628C20.7426 18.1183 20.9516 18.7349 20.773 19.4557C20.5635 20.3008 19.8476 20.8342 18.9344 20.8371C17.5837 20.8415 16.2331 20.8381 14.8819 20.8386C14.7841 20.8395 14.6867 20.8449 14.5893 20.8479Z" fill="#FFE100"/>
<path d="M19.2766 7.03524C19.2766 7.71836 19.282 8.40197 19.2747 9.08509C19.2708 9.46482 19.0457 9.76625 18.7197 9.86314C18.3972 9.95906 18.0547 9.84161 17.855 9.56905C17.7385 9.41001 17.7121 9.22994 17.7126 9.03811C17.7151 8.02958 17.7053 7.02056 17.72 6.01202C17.7234 5.76833 17.649 5.69982 17.419 5.72331C17.2595 5.73946 17.094 5.74533 16.936 5.68808C16.5807 5.5584 16.3624 5.20852 16.4124 4.84592C16.4618 4.48332 16.7544 4.19069 17.14 4.17307C17.603 4.15203 18.0679 4.15105 18.5308 4.17259C18.9776 4.19363 19.2713 4.53617 19.2757 5.00985C19.281 5.68465 19.2766 6.35994 19.2766 7.03524Z" fill="#FEFCFB"/>
</g>
<defs>
<clipPath id="clip0_116_1117">
<rect width="25" height="25" fill="white"/>
</clipPath>
</defs>
</svg>
