<?xml version="1.0" encoding="utf-8"?>
<!-- Generator: Adobe Illustrator 24.3.0, SVG Export Plug-In . SVG Version: 6.00 Build 0)  -->
<svg version="1.1" id="Layer_1" xmlns="http://www.w3.org/2000/svg" xmlns:xlink="http://www.w3.org/1999/xlink" x="0px" y="0px"
	 viewBox="0 0 136 136" style="enable-background:new 0 0 136 136;" xml:space="preserve">
<style type="text/css">
	.st0{fill:#06213E;}
	.st1{fill:#14A7E0;}
	.st2{fill:#FFFFFF;}
</style>
<g>
	<path class="st0" d="M94.29,52.05c-3.75-3.12-7.23-6-10.68-8.92c-0.27-0.23-0.44-0.74-0.45-1.12c-0.04-3.01-0.04-6.01-0.01-9.02
		c0.01-1.58,0.85-2.45,2.41-2.49c2.13-0.05,4.26-0.05,6.39,0c1.38,0.03,2.31,0.83,2.32,2.16C94.31,39.02,94.29,45.37,94.29,52.05z"
		/>
	<g>
		<path class="st1" d="M67.89,105.52c-8.84,0-17.68,0-26.51,0c-1.49,0-1.87-0.39-1.87-1.9c0-12.17,0-24.34-0.01-36.51
			c0-0.57,0.18-0.92,0.61-1.27c9.1-7.55,18.2-15.11,27.28-22.68c0.46-0.39,0.73-0.38,1.19,0c9.04,7.54,18.1,15.07,27.16,22.58
			c0.51,0.42,0.72,0.86,0.72,1.53c-0.02,12.09-0.02,24.19-0.02,36.28c0,1.61-0.36,1.97-1.95,1.97
			C85.62,105.52,76.76,105.52,67.89,105.52z M64.01,59.63c-0.13,0.2-0.27,0.41-0.42,0.61c-2.08,2.96-4.18,5.9-6.22,8.88
			c-0.45,0.66-0.87,0.85-1.66,0.68c-2.1-0.44-4.21-0.8-6.33-1.15c-2.46-0.4-4.31,0.95-4.74,3.43c-0.08,0.47-0.16,0.95-0.24,1.42
			c-0.94,5.38-1.91,10.75-2.82,16.13c-0.38,2.27,0.97,4.11,3.23,4.52c3.37,0.61,6.75,1.2,10.13,1.8c10.48,1.85,20.96,3.7,31.44,5.56
			c2.52,0.45,4.46-0.88,4.9-3.4c0.23-1.34,0.47-2.69,0.7-4.03c0.79-4.51,1.61-9,2.35-13.52c0.38-2.31-0.94-4.09-3.22-4.52
			c-2.73-0.51-5.46-0.97-8.19-1.49c-0.32-0.06-0.69-0.3-0.88-0.56c-1.64-2.28-3.25-4.58-4.86-6.87c-1.76-2.5-3.52-5-5.27-7.49
			c2.2-2.95,1.04-5.9-0.57-7.28c-1.91-1.65-4.82-1.66-6.74,0C62.51,54.16,62.28,56.9,64.01,59.63z"/>
		<path class="st0" d="M35.41,66.19c-1.17,0.02-3.24-2.32-3.03-3.21c0.09-0.38,0.4-0.76,0.71-1.02c8.6-7.17,17.22-14.32,25.83-21.47
			c2.61-2.16,5.21-4.33,7.81-6.5c1.06-0.88,1.46-0.88,2.5-0.01c11.15,9.28,22.3,18.55,33.46,27.83c1.2,1,1.24,1.54,0.22,2.69
			c-0.3,0.34-0.6,0.68-0.9,1.02c-0.77,0.86-1.38,0.91-2.28,0.17c-2.72-2.26-5.44-4.52-8.16-6.78c-7.46-6.2-14.92-12.41-22.39-18.61
			c-0.96-0.8-1.43-0.8-2.39,0C56.68,48.7,46.57,57.1,36.45,65.49C36.08,65.8,35.64,66.04,35.41,66.19z"/>
		<path class="st0" d="M87.16,99.02c-1.79-0.31-3.73-0.65-5.67-1c-8.74-1.55-17.49-3.09-26.23-4.64c-3.25-0.57-6.51-1.14-9.76-1.72
			c-1.16-0.21-1.52-0.7-1.32-1.86c1.01-5.83,2.03-11.65,3.06-17.48c0.17-0.94,0.79-1.28,1.89-1.09c2.36,0.41,4.72,0.83,7.08,1.25
			c9.64,1.7,19.28,3.41,28.91,5.11c1.71,0.3,3.43,0.61,5.14,0.91c1.38,0.24,1.73,0.69,1.49,2.08c-0.87,4.98-1.75,9.96-2.63,14.93
			c-0.14,0.77-0.26,1.55-0.41,2.31C88.56,98.64,88.08,99.04,87.16,99.02z M55.04,83.72c0.12-0.09,0.17-0.15,0.24-0.18
			c1.73-0.92,2.61-2.44,2.35-4.1c-0.28-1.83-1.56-3.04-3.57-3.38c-0.99-0.17-1.99-0.35-2.98-0.53c-1.29-0.24-1.81,0.13-2.04,1.45
			c-0.23,1.34-0.47,2.69-0.71,4.03c-0.33,1.87-0.67,3.73-0.97,5.6c-0.15,0.96,0.4,1.61,1.24,1.61c0.7,0,1.17-0.46,1.32-1.31
			c0.21-1.18,0.42-2.37,0.64-3.58c0.29,0.06,0.49,0.13,0.69,0.12c0.86-0.03,1.21,0.43,1.4,1.22c0.3,1.25,0.71,2.48,1.08,3.71
			c0.19,0.63,0.64,0.97,1.3,0.95c0.62-0.02,1.07-0.37,1.18-0.99c0.06-0.33-0.01-0.7-0.11-1.03C55.76,86.11,55.39,84.91,55.04,83.72z
			 M72.32,86.52c0.04,0,0.09,0,0.13,0c0.08,0.23,0.16,0.46,0.23,0.69c0.47,1.57,0.93,3.15,1.41,4.72c0.2,0.65,0.63,1.04,1.34,1
			c0.7-0.04,1.09-0.46,1.21-1.14c0.03-0.15,0.07-0.3,0.1-0.44c0.55-3.13,1.1-6.27,1.65-9.41c0.17-0.95-0.2-1.63-0.96-1.78
			c-0.82-0.16-1.4,0.32-1.58,1.31c-0.26,1.42-0.51,2.84-0.77,4.27c-0.63-1.71-1.14-3.42-1.65-5.14c-0.29-0.98-0.76-1.4-1.47-1.34
			c-0.69,0.06-1.08,0.53-1.24,1.49c-0.23,1.32-0.47,2.64-0.7,3.96c-0.33,1.92-0.69,3.83-0.99,5.75c-0.15,0.99,0.43,1.65,1.32,1.59
			c0.7-0.04,1.1-0.48,1.25-1.38C71.84,89.29,72.08,87.91,72.32,86.52z M62.92,80.26c1.24,0.22,2.38,0.43,3.51,0.63
			c0.97,0.17,1.66-0.23,1.8-1.03c0.13-0.75-0.38-1.35-1.32-1.52c-1.51-0.27-3.03-0.54-4.54-0.81c-1.07-0.19-1.63,0.19-1.82,1.26
			c-0.52,2.93-1.03,5.87-1.54,8.81c-0.4,2.28-0.32,2.41,1.96,2.84c1.34,0.25,2.68,0.5,4.03,0.68c0.75,0.1,1.31-0.35,1.44-1.04
			c0.12-0.65-0.3-1.27-1.01-1.47c-0.17-0.05-0.35-0.07-0.52-0.1c-1.1-0.2-2.2-0.4-3.33-0.61c0.17-0.9,0.31-1.68,0.47-2.52
			c1.29,0.23,2.5,0.45,3.72,0.65c0.79,0.13,1.45-0.32,1.58-1.05c0.13-0.68-0.32-1.29-1.09-1.48c-0.24-0.06-0.49-0.1-0.74-0.14
			c-0.99-0.18-1.97-0.36-3.03-0.55C62.62,81.95,62.76,81.17,62.92,80.26z M85.85,84.31c0.9,0.15,1.67,0.31,2.44,0.41
			c0.88,0.11,1.51-0.35,1.6-1.11c0.09-0.71-0.4-1.3-1.24-1.45c-2.38-0.42-4.77-0.84-7.15-1.25c-1.03-0.17-1.67,0.19-1.82,0.98
			c-0.15,0.79,0.39,1.39,1.44,1.58c0.71,0.13,1.43,0.25,2.16,0.38c-0.03,0.22-0.04,0.37-0.07,0.51c-0.48,2.74-0.97,5.47-1.43,8.21
			c-0.16,0.97,0.27,1.6,1.06,1.7c0.75,0.1,1.33-0.38,1.49-1.28c0.22-1.22,0.42-2.44,0.64-3.66C85.24,87.69,85.54,86.03,85.85,84.31z
			"/>
		<path class="st1" d="M78.64,73.82c-6.38-1.13-12.65-2.24-19-3.36c0.11-0.2,0.17-0.35,0.26-0.48c1.96-2.79,3.93-5.57,5.88-8.36
			c0.25-0.36,0.47-0.42,0.92-0.36c0.86,0.1,1.74,0,2.61,0.02c0.25,0.01,0.62,0.06,0.74,0.23c2.84,3.99,5.65,8,8.47,12
			C78.56,73.57,78.58,73.65,78.64,73.82z"/>
		<path class="st1" d="M67.98,53.7c1.45,0.01,2.58,1.15,2.57,2.61c-0.01,1.4-1.16,2.55-2.55,2.57c-1.41,0.02-2.6-1.16-2.6-2.59
			C65.39,54.84,66.53,53.7,67.98,53.7z"/>
		<path class="st0" d="M51.01,80.79c0.16-0.91,0.3-1.68,0.46-2.55c0.92,0.17,1.81,0.29,2.67,0.5c0.64,0.15,1.01,0.79,0.92,1.39
			c-0.1,0.65-0.64,1.16-1.33,1.09C52.84,81.14,51.95,80.95,51.01,80.79z"/>
	</g>
	<path class="st2" d="M89.4,46.44c-0.07-0.06-0.14-0.11-0.2-0.17c-1.47-1.75-2.95-3.5-4.51-5.17c-0.09-0.1-0.14-0.21-0.13-0.34
		c0.01-0.34,0-0.68,0-1.02c0-0.27,0.11-0.37,0.38-0.38c0.52-0.01,1.04,0,1.55-0.03c0.59-0.04,1.16-0.19,1.65-0.55
		c0.31-0.23,0.52-0.52,0.63-0.89c0.01-0.02,0.01-0.05,0.02-0.09c-0.06,0-0.11,0-0.16,0c-1.23,0-2.45,0-3.68,0
		c-0.31,0-0.4-0.09-0.4-0.4c0-0.25,0-0.51,0-0.76c0-0.27,0.1-0.37,0.37-0.37c1.19,0,2.39,0,3.58,0c0.05,0,0.1,0,0.17,0
		c-0.15-0.3-0.36-0.51-0.64-0.66c-0.46-0.26-0.96-0.35-1.48-0.37c-0.53-0.02-1.06-0.01-1.59-0.01c-0.31,0-0.41-0.1-0.41-0.41
		c0-0.35,0-0.7,0-1.06c0-0.25,0.1-0.36,0.35-0.36c2.53,0,5.06,0,7.59,0c0.24,0,0.35,0.1,0.35,0.35c0,0.28,0,0.56,0,0.84
		c0,0.25-0.11,0.34-0.35,0.35c-0.65,0-1.29,0-1.94,0c-0.04,0-0.09,0-0.15,0c0.1,0.17,0.21,0.32,0.28,0.49
		c0.1,0.24,0.18,0.48,0.26,0.73c0.03,0.09,0.06,0.13,0.16,0.13c0.46-0.01,0.93,0,1.39,0c0.27,0,0.36,0.1,0.36,0.36
		c0,0.28,0,0.56,0,0.84c0,0.23-0.11,0.33-0.34,0.33c-0.46,0-0.93,0-1.39,0c-0.09,0-0.13,0.02-0.15,0.12
		c-0.15,0.81-0.53,1.5-1.16,2.04c-0.56,0.48-1.22,0.77-1.94,0.92c-0.2,0.04-0.4,0.07-0.61,0.11c0.04,0.04,0.07,0.08,0.1,0.12
		c1.43,1.55,2.77,3.18,4.11,4.81c0.16,0.2,0.13,0.35-0.11,0.51C90.72,46.44,90.06,46.44,89.4,46.44z"/>
</g>
</svg>
