<svg width="26" height="29" viewBox="0 0 26 29" fill="none" xmlns="http://www.w3.org/2000/svg">
<g clip-path="url(#clip0_111_1096)">
<path d="M11.7754 28.9999C11.504 28.8571 11.1996 28.8863 10.9109 28.8469C9.21305 28.6159 7.6039 28.1025 6.09282 27.3006C3.67556 26.0177 1.75337 24.1915 0.292502 21.8693C0.0853759 21.5405 0.0720382 21.2417 0.243074 20.89C1.34618 18.6175 3.06987 17.0255 5.41103 16.1124C6.02299 15.8735 6.66477 15.7315 7.31361 15.6267C7.70824 15.5628 8.05188 15.6621 8.37199 15.8924C9.22795 16.5066 10.1632 16.9506 11.1925 17.1777C13.4591 17.6768 15.5728 17.3094 17.4989 15.9949C17.9743 15.67 18.4451 15.5659 19.0084 15.6787C22.1294 16.3008 24.3701 18.0647 25.7988 20.9042C25.9495 21.203 25.9361 21.4546 25.7549 21.7471C24.2956 24.1056 22.371 25.968 19.9302 27.273C18.2936 28.1483 16.5464 28.6868 14.6995 28.8934C14.4948 28.9163 14.2766 28.8903 14.0852 29.0007C13.3163 28.9999 12.5459 28.9999 11.7754 28.9999Z" fill="white"/>
<path d="M12.9951 15.0366C10.0322 15.0057 7.61653 12.5708 7.64577 9.64454C7.67557 6.68225 10.1059 4.27104 13.0373 4.29634C15.9968 4.32221 18.4119 6.75591 18.386 9.68671C18.3602 12.6462 15.9203 15.0675 12.9951 15.0366Z" fill="white"/>
</g>
<defs>
<clipPath id="clip0_111_1096">
<rect width="25.7778" height="29" fill="white" transform="translate(0.126953)"/>
</clipPath>
</defs>
</svg>
