<svg width="11" height="12" viewBox="0 0 11 12" fill="none" xmlns="http://www.w3.org/2000/svg">
<path d="M4.97055 12C4.85471 11.936 4.72481 11.9491 4.60161 11.9314C3.87711 11.8278 3.19045 11.5977 2.54563 11.2383C1.51413 10.6632 0.693887 9.84451 0.0705006 8.80354C-0.0178851 8.65614 -0.0235766 8.52217 0.0494085 8.36452C0.520129 7.34582 1.25567 6.63216 2.2547 6.22284C2.51584 6.11573 2.7897 6.05211 3.06657 6.0051C3.23498 5.97647 3.38162 6.021 3.51821 6.12422C3.88347 6.39957 4.28255 6.59858 4.7218 6.70038C5.68902 6.92412 6.59095 6.75941 7.41287 6.17017C7.61576 6.02454 7.81663 5.97788 8.05702 6.02843C9.38883 6.30732 10.345 7.09803 10.9547 8.37088C11.0189 8.50485 11.0132 8.61761 10.9359 8.74875C10.3132 9.80598 9.49194 10.6409 8.4504 11.2259C7.75202 11.6182 7.00643 11.8597 6.21833 11.9523C6.13095 11.9625 6.03787 11.9509 5.95618 12.0003C5.62808 12 5.29932 12 4.97055 12Z" fill="#00467D"/>
<path d="M5.49081 5.74059C4.22649 5.72672 3.19564 4.63525 3.20812 3.32346C3.22084 1.99554 4.25792 0.914649 5.5088 0.925992C6.77169 0.937587 7.80229 2.02856 7.79125 3.34236C7.78021 4.66902 6.73905 5.75445 5.49081 5.74059Z" fill="#00467D"/>
</svg>
